<svg viewBox="0 0 1080 1080" xmlns="http://www.w3.org/2000/svg" xmlns:xlink="http://www.w3.org/1999/xlink" id="图层_1" xml:space="preserve" overflow="hidden"><g><g><g><linearGradient x1="540.601" y1="-2.0754" x2="540.601" y2="1076.74" gradientUnits="userSpaceOnUse" id="SVGID_1_"><stop offset="0" stop-color="#0075C1"/><stop offset="1" stop-color="#FFFFFF"/></linearGradient><linearGradient x1="540.601" y1="207.145" x2="540.601" y2="869.576" gradientUnits="userSpaceOnUse" id="SVGID_2_"><stop offset="0" stop-color="#0075C1"/><stop offset="1" stop-color="#FFFFFF"/></linearGradient><path d="M540.6 1079.4C837.4 1079.4 1080 837.2 1080 540 1080 242.8 837.4 0.6 540.6 0.6 243.4 0.6 1.2 242.8 1.2 540 1.2 837.2 243.4 1079.4 540.6 1079.4Z" fill="url(#SVGID_1_)" display="none"/><path d="M540.6 871.2C722.9 871.2 871.8 722.5 871.8 540 871.8 357.5 722.9 208.8 540.6 208.8 358.1 208.8 209.4 357.5 209.4 540 209.4 722.5 358.1 871.2 540.6 871.2Z" fill="url(#SVGID_2_)" display="none"/><path d="M280.5 742 798.8 742 757.1 784.6 311.5 784.6Z" fill="#FFFFFF"/><path d="M537 597.4 576 597.4 576 621.9 537 621.9 498 621.9 498 597.4 537 597.4 537 597.4ZM537 625.2 537.2 625.2 537.2 625.2 576 625.2 576 633.3 538.6 633.3 538.6 633.3 535.7 633.3 535.7 633.3 498 633.3 498 625.2 537 625.2 537 625.2 537 625.2ZM534.4 586.6 539.9 586.6 539.9 586.6 576 586.6 576 594.7 537.5 594.7 537.5 594.7 536.8 594.7 536.8 594.7 498 594.7 498 586.6 534.4 586.6 534.4 586.6 534.4 586.6ZM513.7 634.7C513.7 634.7 510.6 640.6 506.8 641.8 502.8 643 503.5 642.5 503.2 644.2 503 645.6 502.7 646.8 501.3 648 499.9 649.2 498.7 648.7 498.7 648.7L498.7 634.9 513.7 634.7 513.7 634.7ZM498 585C498 585 505.4 584.8 508.9 582.9 512.5 581 513.7 576.5 512.7 575.5 510.8 573.4 512 571 509.6 569.6 504.4 566.7 502.2 571.5 499.6 575.1 498.7 576.3 498.2 576.8 497.9 576.8L497.9 576.8 497.9 576.6 497.9 576.6 497.9 576.8 497.9 585 498 585ZM494.4 575.7 472.3 575.7 472.3 739.2 494.4 739.2 494.4 575.7 494.4 575.7ZM496.8 554.8 469.9 554.8C469.2 554.8 468.7 555.3 468.7 556L468.7 571.9C468.7 572.6 469.2 573.1 469.9 573.1L496.8 573.1C497.5 573.1 498 572.6 498 571.9L498 556C498 555.2 497.5 554.8 496.8 554.8L496.8 554.8ZM482.8 528.6C483 528.6 483.3 528.6 483.5 528.6 483.7 528.6 484 528.6 484.2 528.6 487.1 528.4 489 532.2 489.9 534.6 490.6 537 490.6 539.6 490.6 539.6 494.2 541.3 496.1 545.6 493.9 548.9 492.2 551.3 494.4 552.7 492 552.7L483.4 552.7 474.8 552.7C472.4 552.7 474.5 551.3 472.9 548.9 470.8 545.6 472.4 541.3 476.2 539.6 476.2 539.6 476 537 476.9 534.6 478 532.2 479.9 528.3 482.8 528.6L482.8 528.6ZM467.8 575.5 467.8 584.3 462.3 584.3C458.3 584.3 457.8 578.1 456.8 576.7 456.3 576.2 452 573.1 451.6 571.2 451.1 569.1 450.7 569.8 452.1 567.6 453.3 565.7 455.4 565.9 455.9 566.6 456.1 566.8 456.6 566.8 456.8 566.6 456.8 566.4 457.1 566.1 457.1 566.1L457.1 566.1 457.1 566.1C457.1 566.1 456.8 566.3 456.8 566.6 456.3 567.1 455.9 567.8 455.9 568.3 456.4 570.9 460.9 570.2 462.8 571.6 463.5 572.1 464.7 574 465.7 574.7 466.4 575.5 467.8 575.5 467.8 575.5L467.8 575.5ZM468.7 586.9 462 586.9 462 595.2 468.7 595.2 468.7 586.9 468.7 586.9ZM468.7 596.6 424.2 596.6 424.2 603.7 468.7 603.7 468.7 596.6 468.7 596.6ZM468.7 605.9 424.4 605.9 424.4 625.6 468.7 625.6 468.7 605.9 468.7 605.9ZM469 627.8 424.3 627.8 424.3 634.5 469 634.5 469 627.8 469 627.8ZM436.9 637.6C438.6 637.6 433.6 643.1 429.8 644.5 428.8 645 428.4 645.2 427.9 646.2 427.4 647.2 426.7 649.1 426.5 649.3 424.8 650.5 424.4 649.8 424.4 649.8L424.4 637.7 436.9 637.7 436.9 637.6ZM420.9 594 400.4 594 400.4 739.6 420.9 739.6 420.9 594 420.9 594ZM422.3 573.6 398 573.6C397.5 573.6 397 574.1 397 574.8L397 589.3C397 590 397.5 590.5 398 590.5L422.3 590.5C423 590.5 423.5 590 423.5 589.3L423.5 574.8C423.5 574 423 573.6 422.3 573.6L422.3 573.6ZM357.1 600.4 337.4 600.2 337.4 738.9 356.4 738.9 356.4 608.1 357.1 607.9 357.1 600.4 357.1 600.4ZM358.6 585.2 336.7 585.2C336.2 585.2 335.7 585.7 335.7 586.2L335.7 597.4C335.7 597.9 336.2 598.3 336.7 598.3L358.6 598.3C359.1 598.3 359.6 597.8 359.6 597.4L359.6 586.2C359.5 585.7 359.1 585.2 358.6 585.2L358.6 585.2ZM347.9 563.6C348.4 563.6 350.3 564.1 351.5 565.7 351.5 565.7 352.2 566.9 352.9 568.6 353.6 570.5 353.8 572.6 353.8 572.6 356.2 573.8 357.8 576.6 355.5 579 353.6 580.9 355.3 581.4 355.3 582.1 355.5 583.1 355.1 583.3 355.1 583.3L347.9 583.3 347.7 583.3 347.7 583.3 340.6 583.3C340.6 583.3 340.1 583.1 340.4 582.1 340.4 581.4 342.1 580.9 340.2 579 337.8 576.6 339.5 573.8 341.9 572.6 341.9 572.6 342.1 570.5 342.8 568.6 343.5 566.9 344.2 565.7 344.2 565.7 345.4 564 347.3 563.6 347.8 563.6L347.8 563.6 347.9 563.6 347.9 563.6ZM396.9 595.7 393.3 595.9C389.7 595.9 388.5 593.3 387.8 590.4 387.1 587.1 383.3 586.8 383.3 583 383.3 580.8 386.2 578.7 388.1 579.2 388.3 579.2 388.6 579.2 388.6 579.2 388.6 579.2 387.6 580.9 388.1 581.8 388.8 584.2 393.6 584.2 395 587 395.5 588.2 395.7 590.1 395.7 591.5 395.7 592.9 396.2 592.9 396.2 592.9L397.1 592.9 396.9 595.7 396.9 595.7ZM396.9 597.4 392.6 597.4 392.6 603.6 396.9 603.6 396.9 597.4 396.9 597.4ZM396.9 604.5 359.5 604.5 359.5 611.7 396.9 611.7 396.9 604.5 396.9 604.5ZM456.1 637.6C454.4 637.6 459.4 643.1 463.2 644.5 464.4 645 464.9 645.2 465.3 646.2 465.8 647.2 466.5 649.1 466.7 649.3 468.1 650.5 468.8 649.8 468.8 649.8L468.6 637.7 456.1 637.7 456.1 637.6ZM409.7 550.5 409.9 550.5 409.9 550.3 410.1 550.3C410.3 550.3 410.6 550.3 410.8 550.3 413.2 550.3 414.8 554.4 415.6 556.3 416.3 558.2 416.3 560.3 416.3 560.3 418.9 561.7 422 567 419.4 569.1 417.5 570.8 419.4 571.5 417.3 571.5L410.4 571.5 410.4 571.5 410.2 571.5 403.3 571.7C401.2 571.7 403.1 571 401.2 569.3 398.6 567.2 401.7 561.9 404.3 560.5 404.3 560.5 404.3 558.4 405 556.5 405.7 554.3 407.4 550.5 409.7 550.5L409.7 550.5ZM424 595.7 427.6 595.9C431.2 595.9 432.4 593.3 433.1 590.4 433.8 587.1 437.6 586.8 437.6 583 437.6 580.8 434.7 578.7 432.8 579.2 432.6 579.2 432.3 579.2 432.3 579.2 432.3 579.2 433.2 580.9 432.8 581.8 432.1 584.2 427.3 584.2 425.9 587 425.4 588.2 425.2 590.1 425.2 591.5 425.2 592.9 424.7 592.9 424.7 592.9L423.7 592.9 424 595.7 424 595.7ZM396.9 613.8 359.5 613.8 359.5 628.6 396.9 628.6 396.9 613.8 396.9 613.8ZM396.9 630.2 359.5 630.2 359.5 637.1 396.9 637.1 396.9 630.2 396.9 630.2ZM396.9 650.2C396.4 649.5 395 647.8 393.8 647.1 390.5 645.2 386.9 643.3 385.2 640 384.7 638.8 384.7 638.6 384.7 638.6L384.7 638.6 384.7 638.6 396.8 638.6 396.8 650.2 396.9 650.2ZM359.8 650.2C359.8 650.2 361.2 647.8 362.7 647.1 366 645.2 369.6 643.3 371.3 640 371.8 638.8 371.8 638.6 371.8 638.6L359.9 638.6 359.9 650.2 359.8 650.2ZM359.5 600.2 359.5 602.8C359.5 603 362.1 603 363.3 602.8 364.5 602.3 367.6 601.6 368.8 600.4 369.8 599 370.5 598.5 370.2 597.5 370.2 596.3 370 595.6 368.3 594.9 366.9 594.2 368 594 367.6 592.8 366.9 591.6 365 590.2 362.1 590.9L361.4 590.9 361.4 599.9 359.5 600.2 359.5 600.2ZM335 603.3 331.2 603.3C327.9 603.5 326.7 600.7 326 598.1 324.6 593.6 321.5 593.6 321.5 589.8 321.5 587.7 322.7 586.2 324.6 586.5 324.8 586.5 325.1 586.7 325.1 586.7 325.1 586.7 324.6 588.1 325.1 588.8 327 590.9 331.5 591.9 333 594.7 333.5 595.7 333.9 597.8 333.9 599 333.9 600.4 334.1 600.4 334.1 600.4L335 600.4 335 603.3 335 603.3ZM334.8 630.2 329.8 630.2 329.8 637.1 334.8 637.1 334.8 630.2 334.8 630.2ZM335.5 604.5 330 604.5 330 611.7 335.5 611.7 335.5 604.5 335.5 604.5ZM334.3 678.2C334.3 678.2 329.1 681.1 327.9 684.6 326.7 687.9 327 689.4 327 689.4 323 692.3 318.2 696.5 318.4 702.7 318.4 707 319.8 710.1 319.8 710.1 319.8 710.1 315.3 713.9 313.9 717.2 312.7 720.5 313.4 730 315.1 730L334.1 729.8 334.3 678.2 334.3 678.2ZM334.3 732.5 310 732.5 310 739.6 334.2 739.6 334.2 732.5 334.3 732.5ZM560.6 634.7C560.6 634.7 563.7 640.6 567.5 641.8 571.5 643 570.8 642.5 571.1 644.2 571.3 645.6 571.6 646.8 572.8 648 574.2 649.2 575.4 648.7 575.4 648.7L575.4 634.9 560.6 634.7 560.6 634.7ZM576 585C576 585 568.9 584.8 565.3 582.9 561.7 581 560.5 576.5 561.3 575.5 563.4 573.4 562.3 571 564.6 569.6 569.8 566.7 572 571.5 574.4 575.1 575.3 576.3 575.8 576.8 576.1 576.8L576.1 576.8 576.1 576.6 576.1 576.6 576.1 576.8 576.1 585 576 585ZM579.6 575.7 601.7 575.7 601.7 739.2 579.6 739.2 579.6 575.7 579.6 575.7ZM577.2 554.8 604.1 554.8C604.8 554.8 605.3 555.3 605.3 556L605.3 571.9C605.3 572.6 604.8 573.1 604.1 573.1L577.2 573.1C576.5 573.1 576 572.6 576 571.9L576 556C576 555.2 576.5 554.8 577.2 554.8L577.2 554.8ZM591.3 528.6C591.1 528.6 590.8 528.6 590.6 528.6 590.4 528.6 590.1 528.6 589.9 528.6 587 528.4 585.1 532.2 584.2 534.6 583.5 537 583.5 539.6 583.5 539.6 579.9 541.3 578 545.6 580.2 548.9 581.9 551.3 579.7 552.7 582.1 552.7L590.7 552.7 599.3 552.7C601.7 552.7 599.5 551.3 601.2 548.9 603.3 545.6 601.4 541.3 597.9 539.6 597.9 539.6 598.1 537 597.2 534.6 596 532.2 594.1 528.3 591.3 528.6L591.3 528.6ZM606 575.5 606.2 584.3 611.7 584.3C615.7 584.3 616.2 578.1 617.2 576.7 617.7 576.2 622 573.1 622.4 571.2 622.9 569.1 623.4 569.8 621.9 567.6 620.7 565.7 618.6 565.9 618.1 566.6 617.9 566.8 617.4 566.8 617.2 566.6 617.2 566.4 617 566.1 617 566.1L617 566.1 617 566.1C617 566.1 617.2 566.3 617.2 566.6 617.7 567.1 618.1 567.8 618.1 568.3 617.6 570.9 613.1 570.2 611.2 571.6 610.5 572.1 609.3 574 608.3 574.7 607.7 575.5 606 575.5 606 575.5L606 575.5ZM605.3 586.9 612 586.9 612 595.2 605.3 595.2 605.3 586.9 605.3 586.9ZM605.3 596.6 649.8 596.6 649.8 603.7 605.3 603.7 605.3 596.6 605.3 596.6ZM605.3 605.9 649.6 605.9 649.6 625.6 605.3 625.6 605.3 605.9 605.3 605.9ZM605.1 627.8 649.8 627.8 649.8 634.5 605.1 634.5 605.1 627.8 605.1 627.8ZM637.2 637.6C635.5 637.6 640.5 643.1 644.3 644.5 645.2 645 645.7 645.2 646.2 646.2 646.7 647.2 647.4 649.1 647.6 649.3 649.3 650.5 649.7 649.8 649.7 649.8L649.7 637.7 637.2 637.7 637.2 637.6ZM653.1 594 673.6 594 673.6 739.6 653.1 739.6 653.1 594 653.1 594ZM651.7 573.6 676 573.6C676.5 573.6 677 574.1 677 574.8L677 589.3C677 590 676.5 590.5 676 590.5L651.7 590.5C651 590.5 650.5 590 650.5 589.3L650.5 574.8C650.5 574 651 573.6 651.7 573.6L651.7 573.6ZM716.9 600.4 736.6 600.2 736.6 738.9 717.6 738.9 717.6 608.1 716.9 607.9 716.9 600.4 716.9 600.4ZM715.5 585.2 737.4 585.2C737.9 585.2 738.3 585.7 738.3 586.2L738.3 597.4C738.3 597.9 737.8 598.3 737.4 598.3L715.5 598.3C715 598.3 714.6 597.8 714.6 597.4L714.6 586.2C714.5 585.7 715 585.2 715.5 585.2L715.5 585.2ZM726.2 563.6C725.7 563.6 723.8 564.1 722.6 565.7 722.6 565.7 721.9 566.9 721.2 568.6 720.5 570.5 720.3 572.6 720.3 572.6 717.9 573.8 716.3 576.6 718.6 579 720.5 580.9 718.8 581.4 718.8 582.1 718.6 583.1 719 583.3 719 583.3L726.1 583.3 726.3 583.3 726.3 583.3 733.4 583.3C733.4 583.3 733.9 583.1 733.6 582.1 733.6 581.4 731.9 580.9 733.8 579 736.2 576.6 734.5 573.8 732.1 572.6 732.1 572.6 731.9 570.5 731.1 568.6 730.4 566.9 729.7 565.7 729.7 565.7 728.5 564 726.6 563.6 726.1 563.6L726.1 563.6 726.2 563.6 726.2 563.6ZM677.2 595.7 680.8 595.9C684.4 595.9 685.6 593.3 686.3 590.4 687 587.1 690.8 586.8 690.8 583 690.8 580.8 687.9 578.7 686 579.2 685.8 579.2 685.5 579.2 685.5 579.2 685.5 579.2 686.5 580.9 686 581.8 685.3 584.2 680.5 584.2 679.1 587 678.6 588.2 678.4 590.1 678.4 591.5 678.4 592.9 677.9 592.9 677.9 592.9L676.9 592.9 677.2 595.7 677.2 595.7ZM677.2 597.4 681.5 597.4 681.5 603.6 677.2 603.6 677.2 597.4 677.2 597.4ZM677.2 604.5 714.6 604.5 714.6 611.7 677.2 611.7 677.2 604.5 677.2 604.5ZM617.9 637.6C619.6 637.6 614.6 643.1 610.5 644.5 609.6 645 609.1 645.2 608.6 646.2 608.1 647.2 607.4 649.1 607.2 649.3 605.8 650.5 605.1 649.8 605.1 649.8L605.3 637.7 617.9 637.7 617.9 637.6ZM664.3 550.5 664.1 550.5 664.1 550.3 663.9 550.3C663.6 550.3 663.4 550.3 663.2 550.3 660.8 550.3 659.2 554.4 658.4 556.3 657.7 558.2 657.7 560.3 657.7 560.3 655.1 561.7 652 567 654.6 569.1 656.5 570.8 654.6 571.5 656.7 571.5L663.6 571.5 663.6 571.5 663.6 571.5 670.7 571.7C672.8 571.7 670.9 571 672.8 569.3 675.4 567.2 672.3 561.9 669.7 560.5 669.7 560.5 669.7 558.4 669 556.5 668.4 554.3 666.7 550.5 664.3 550.5L664.3 550.5ZM650 595.7 646.4 595.9C642.8 595.9 641.6 593.3 640.9 590.4 640.2 587.1 636.4 586.8 636.4 583 636.4 580.8 639.3 578.7 641.2 579.2 641.4 579.2 641.7 579.2 641.7 579.2 641.7 579.2 640.7 580.9 641.2 581.8 641.9 584.2 646.7 584.2 648.1 587 648.6 588.2 648.8 590.1 648.8 591.5 648.8 592.9 649.3 592.9 649.3 592.9L650.2 592.9 650 595.7 650 595.7ZM677.2 613.8 714.6 613.8 714.6 628.6 677.2 628.6 677.2 613.8 677.2 613.8ZM677.2 630.2 714.6 630.2 714.6 637.1 677.2 637.1 677.2 630.2 677.2 630.2ZM677.2 650.2C677.7 649.5 679.1 647.8 680.3 647.1 683.6 645.2 687.2 643.3 688.9 640 689.4 638.8 689.4 638.6 689.4 638.6L689.4 638.6 689.4 638.6 677.3 638.6 677.3 650.2 677.2 650.2ZM714.3 650.2C714.3 650.2 712.9 647.8 711.4 647.1 708.1 645.2 704.5 643.3 702.8 640 702.3 638.8 702.3 638.6 702.3 638.6L714.2 638.6 714.2 650.2 714.3 650.2ZM714.5 600.2 714.5 602.8C714.5 603 711.9 603 710.7 602.8 709.5 602.3 706.4 601.6 705.2 600.4 704.2 599 703.5 598.5 703.8 597.5 703.8 596.3 704 595.6 705.7 594.9 707.1 594.2 705.9 594 706.4 592.8 707.1 591.6 709 590.2 711.9 590.9L712.6 590.9 712.6 599.9 714.5 600.2 714.5 600.2ZM739 603.3 742.8 603.3C746.1 603.5 747.3 600.7 748 598.1 749.4 593.6 752.5 593.6 752.5 589.8 752.5 587.7 751.3 586.2 749.4 586.5 749.2 586.5 748.9 586.7 748.9 586.7 748.9 586.7 749.4 588.1 748.9 588.8 747 590.9 742.5 591.9 741.1 594.7 740.6 595.7 740.1 597.8 740.1 599 740.1 600.4 739.9 600.4 739.9 600.4L738.9 600.4 738.9 603.3 739 603.3ZM739.3 630.2 744.3 630.2 744.3 637.1 739.3 637.1 739.3 630.2 739.3 630.2ZM738.6 604.5 744.1 604.5 744.1 611.7 738.6 611.7 738.6 604.5 738.6 604.5ZM739.8 678.2C739.8 678.2 745 681.1 746.2 684.6 747.4 687.9 747.2 689.4 747.2 689.4 751.2 692.3 756 696.5 755.8 702.7 755.8 707 754.4 710.1 754.4 710.1 754.4 710.1 758.9 713.9 760.4 717.2 761.6 720.5 760.9 730 759.2 730L740.2 729.8 739.8 678.2 739.8 678.2ZM739.8 732.5 764 732.5 764 739.6 739.7 739.6 739.7 732.5Z" fill="#FFFFFF"/><path d="M537.7 0.6 537.7 0.6 537.7 0.6C686.2 0.6 820.6 60.8 917.9 158.1 1015.2 255.4 1075.4 389.9 1075.4 538.3L1075.4 538.3 1075.4 538.3 1075.4 538.3 1075.4 538.3C1075.4 686.8 1015.2 821.2 917.9 918.5 820.6 1015.8 686.2 1076 537.7 1076L537.7 1076 537.7 1076 537.7 1064 537.7 1064 537.7 1064C682.6 1064 814.2 1005.2 909.4 910 1004.6 814.8 1063.4 683.5 1063.4 538.3L1063.4 538.3 1063.4 538.3 1063.4 538.3 1063.4 538.3C1063.4 393.2 1004.6 261.8 909.4 166.6 814.2 71.5 682.6 12.5 537.7 12.5L537.7 12.5 537.7 12.5 537.7 0.6 537.7 0.6ZM537.7 210.7 537.7 210.7 537.7 210.7C628.1 210.7 710 247.3 769.2 306.8 828.5 366 865.3 447.9 865.3 538.3L865.1 538.3 865.1 538.3 865.1 538.3 865.3 538.3C865.3 628.7 828.4 710.8 769.2 769.8 729.9 809.1 680.9 838.3 626.2 853.6L633.3 864.1C688.5 847.9 738 818.2 777.7 778.4 839.1 717 877.2 632.3 877.2 538.3L877.2 538.3 877.2 538.3 877.2 538.3 877.2 538.3C877.2 444.6 839.1 359.6 777.7 298.2 716.3 236.6 631.4 198.7 537.6 198.7L537.6 198.5 537.6 198.5 537.6 210.7ZM537.7 1076.1 537.7 1076.1 537.7 1076.1C389.2 1076.1 254.8 1015.9 157.5 918.6 60.2 821.3 0 686.8 0 538.3L0 538.3 0 538.3 0 538.3 0 538.3C0 389.8 60.2 255.4 157.5 158.1 254.8 60.8 389.3 0.6 537.7 0.6L537.7 0.6 537.7 0.6 537.7 12.5 537.7 12.5 537.7 12.5C392.6 12.5 261.2 71.5 166 166.7 70.9 261.9 11.9 393.2 11.9 538.3L11.9 538.3 11.9 538.3 11.9 538.3 11.9 538.3C11.9 683.4 70.9 814.8 166.1 910 261.3 1005.2 392.6 1064 537.8 1064L537.8 1064 537.8 1064 537.8 1076.1 537.7 1076.1ZM537.7 198.6 537.7 198.6 537.7 198.6 537.7 198.8C443.9 198.8 359 236.6 297.6 298.3 236 359.7 198.1 444.6 198.1 538.4L198.1 538.4 198.1 538.4 198.1 538.4 198.1 538.4C198.1 632.4 235.9 717.1 297.6 778.5 337.3 818.2 386.6 848 442 864.2L449.1 853.7C394.1 838.5 345.1 809.2 306.1 769.9 246.6 710.9 210 628.8 210 538.4L210 538.4 210 538.4 210 538.4 210 538.4C210 448 246.6 366.1 306.1 306.9 365.3 247.4 447.2 210.8 537.6 210.8L537.6 210.8 537.6 210.8 537.6 210.8 537.6 198.6Z" fill="#FFFFFF"/><path d="M607.9 415.1C611.5 414.6 614.6 413.9 616.2 413.7 621 413 625.5 408 631.2 404.4 637.2 400.8 646.4 396.5 653.1 394.4 659.5 392.3 660.2 389.6 660 387.7 659.8 385.8 655.7 382.5 648.3 376.7 640.7 371 638.1 362.2 631.6 355.5 627.6 351.7 620.9 347.6 617.8 346.7 616.1 346.2 614 345.8 611.4 345.5 611.4 344.1 611.6 335.5 610.7 332.9 609.8 330.3 608.8 327.9 607.9 325.3L607.9 355C616.5 356 620.3 358.1 624.6 361.9 629.1 365.9 630.6 370.9 633.4 375.2 636.5 379.2 644.6 386.6 644.6 386.6 644.6 386.6 632 390.6 625.8 395.2 618.7 400.2 615.3 403.5 607.9 404.2L607.9 415.1ZM586.3 424.1C588.2 421.3 589.9 417.7 590.8 413.6 590.8 413.3 591 412.9 591 412.6L591.2 412.8C591.2 412.8 596.9 414.7 602.9 414.9 604.6 415.1 606.2 414.9 607.9 414.9L607.9 404.2C606.5 404.4 605 404.4 603.4 404.4 598.9 404.2 594.1 402.5 592.2 402.3 591.7 402.3 591.3 402.1 590.5 401.8 589.5 398.2 587.9 395.1 586.2 393L586.2 424.1 586.3 424.1ZM607.9 325.4C605.3 318.8 603.1 311.6 602.9 301.4 602.9 299.5 603.1 295.9 601.5 295.5 599.6 295 596.3 293.4 593.4 295 591.5 296 588.9 297.1 586.2 297.9L586.2 308.9C587.9 308.4 589.3 307.9 590 307.7 592.6 306.3 593.1 306.3 593.1 306.3 593.1 306.3 594.3 312.5 594.3 315.3 594.3 317.9 596 323.6 597.4 326.5 600.5 333.4 601 337.5 601 345.1L601 345.3C596 345.5 590.8 346.5 586.2 348.4L586.2 348.4 586.2 360.3C591.2 356.7 596.4 354.4 605 355.1 605.9 355.1 606.9 355.1 607.9 355.3L607.9 325.4ZM576.5 432.2C580.5 430.5 583.6 427.7 586.2 424.1L586.2 393.2C585.3 392 584.3 390.8 583.6 390.1 581.7 388.2 579.6 385.6 576.5 383.4L576.5 395.3C578.9 397.9 580.5 401.3 581.5 405.3 582.5 409.1 580.6 415.1 576.5 419.3L576.5 432.2 576.5 432.2ZM586.3 297.8C584.4 298.5 582.7 299 581.1 299.2 579.9 299.4 578.2 299.9 576.6 300.1L576.6 310.8C580.2 310.1 583.7 309.4 586.3 308.7L586.3 297.8 586.3 297.8ZM586.3 348.2 586.3 360.1C584.9 361.1 583.7 361.8 582.5 363 580.1 364.7 578.2 367.3 576.5 369.9L576.5 354.2C579.1 352 582.2 349.9 586.3 348.2ZM572.5 433.6C573.9 433.1 575.4 432.6 576.5 432.2L576.5 419.3C575.3 420.7 574.1 421.7 572.5 422.6L572.5 433.6 572.5 433.6ZM576.5 300.2C575.3 300.7 573.9 300.9 572.5 301.1L572.5 311.6C573.9 311.4 575.1 311.1 576.5 310.9L576.5 300.2 576.5 300.2ZM576.5 354.2 576.5 369.9C574.6 373.2 573.2 376.6 572.5 378.5L572.5 358.3C573.7 356.8 575.1 355.4 576.5 354.2L576.5 354.2ZM576.5 383.4 576.5 395.3C575.3 394.1 573.9 392.7 572.5 391.7L572.5 381.2C574.1 382 575.3 382.7 576.5 383.4L576.5 383.4ZM572.5 352.7 572.5 344.1C573.4 345.3 573.9 346.7 573.9 348.4 573.9 350.1 573.4 351.6 572.5 352.7ZM565.6 448.9C568.4 443.9 570.6 438.7 572 433.7L572.2 433.7 572.4 433.7 572.4 422.7C571.7 423.2 570.7 423.6 569.5 424.1 568.3 424.3 566.9 424.8 565.5 425L565.5 448.9 565.6 448.9ZM572.5 301.1C570.1 301.8 567.3 302.5 565.6 303.3L565.6 313.8C566.5 313.6 567.3 313.3 568 313.1 569.4 312.6 571.1 312.2 572.5 311.7L572.5 301.1 572.5 301.1ZM572.5 344.2 572.5 352.8C571.3 355.2 568.7 356.8 565.6 356.8L565.6 340.1C568.7 340.1 571.3 341.6 572.5 344.2L572.5 344.2ZM572.5 358.2 572.5 378.4C572.3 379.6 572 380.1 572 380.1L571.5 380.8C572 380.8 572.2 381 572.5 381.3L572.5 391.8C570.6 390.4 568.2 389.4 565.6 388.7L565.6 369.4C566.1 368.7 566.3 368 566.8 367.3 568.7 363.9 570.3 361.1 572.5 358.2ZM536.1 470.5C544.7 470 551.1 466.2 556.6 461 560.2 457.4 563.3 453.4 565.7 448.9L565.7 425.1C560 426.5 553.3 427.7 550 430.1 545 433.4 538.6 440.1 536.2 442.2L536.2 455.1C537.9 454.1 541.4 450.1 549.5 442.5 553.8 438.5 557.1 436.8 560.4 435.8 559.9 437 559.5 439.1 558 442.5 554.7 450.8 546.1 461.1 536.1 461.1L536.1 470.5 536.1 470.5ZM565.6 303.3C565.4 303.3 565.4 303.5 565.1 303.5 553.7 308.3 546.3 314 536.3 321.3 536.3 321.3 536.3 321.5 536.1 321.5L536.1 332C546.6 329.6 554.9 318.2 565.6 313.7L565.6 303.3 565.6 303.3ZM565.6 340.1 565.6 356.8C561.1 356.8 557.3 353 557.3 348.5 557.2 343.7 561.1 340.1 565.6 340.1L565.6 340.1ZM565.6 369.4 565.6 388.7C563.9 388.5 562 388.2 560.1 388.2 553 388.4 543.9 394.9 539.6 398.2 538.2 399.1 536.7 399.1 536 398.9L536 358.9 541.2 358.9 541.2 385.1C541.7 384.9 542.1 384.6 542.6 384.2 542.6 383.5 542.8 381.8 543.3 379.9 543.5 377.5 545 374.9 545.9 372 548.5 365.8 553.7 358.7 553.7 358.7L561.8 364.4C559.2 367.3 556.3 372.7 554.7 377 554.2 378 553.7 378.9 553.5 379.6 556.4 378.9 559.2 378.4 562.1 378.7 562.5 377 563.4 373.7 565.6 369.4L565.6 369.4ZM536.1 351.8 536.1 334.9C540.9 334.9 544.7 338.7 544.7 343.5 544.6 348 540.8 351.8 536.1 351.8ZM506.6 448.9C509.2 453.4 512.1 457.5 515.6 461 521.1 466.2 527.7 470 536.1 470.5L536.1 461C526.3 461 517.8 450.8 514.2 442.4 513 439.1 512.3 436.9 512.1 435.7 515.4 436.6 518.5 438.3 523.1 442.4 531.2 450 534.7 454.1 536.2 455L536.2 442.1C534.1 440 527.4 433.3 522.4 430 519.3 427.6 512.6 426.4 506.7 425L506.7 448.9 506.6 448.9ZM536.1 321.6C536.1 321.6 536.1 321.4 535.9 321.4 526.1 314 518.8 308.3 507.3 303.6 507.1 303.6 506.8 303.4 506.6 303.4L506.6 313.9C517.3 318.4 525.6 329.8 536.1 332.2L536.1 321.6 536.1 321.6ZM536.1 334.9 536.1 351.8C531.6 351.8 527.8 348 527.8 343.5 527.8 338.7 531.6 334.9 536.1 334.9L536.1 334.9ZM536.1 358.9 536.1 398.9C535.6 399.1 534.2 399.1 532.8 398.2 528.3 394.9 519.2 388.4 512.1 388.2 510.2 388.2 508.5 388.4 506.6 388.7L506.6 369.4C509 373.7 509.7 377 510.2 378.7 513.1 378.5 515.9 378.9 518.5 379.6 518.3 378.9 518 377.9 517.6 377 515.7 372.7 512.8 367.2 510.5 364.4L518.6 358.7C518.6 358.7 523.8 365.8 526.2 372 527.4 374.9 528.6 377.5 529.1 379.9 529.3 381.8 529.6 383.5 529.8 384.2 530.3 384.7 530.8 384.9 531.2 385.1L531.2 358.9 536.1 358.9 536.1 358.9ZM506.6 356.8 506.6 340.1C511.4 340.1 514.9 343.7 514.9 348.4 514.9 353 511.3 356.8 506.6 356.8ZM500.2 433.6C501.6 438.6 504 443.8 506.6 448.8L506.6 425C505.2 424.8 504 424.3 502.8 424.1 501.6 423.6 500.4 423.2 499.5 422.7L499.5 433.7C499.7 433.7 499.7 433.7 500 433.7L500.2 433.7 500.2 433.6ZM506.6 303.3C504.9 302.6 502.3 301.9 499.5 301.1L499.5 311.6C501.4 312.1 502.8 312.5 504.3 313 505.2 313.2 506 313.5 506.7 313.7L506.7 303.3 506.6 303.3ZM506.6 340.1 506.6 356.8 506.6 356.8C503.7 356.8 500.9 355.1 499.5 352.8L499.5 344.2C500.9 341.6 503.7 340.1 506.6 340.1L506.6 340.1 506.6 340.1ZM506.6 369.4 506.6 388.7C504.2 389.4 501.6 390.4 499.5 391.8L499.5 381.3C500 381.1 500.5 380.8 500.7 380.8L500.2 380.1C500.2 380.1 500 379.6 499.5 378.4L499.5 358.2C501.9 361.1 503.8 363.9 505.4 367.2 505.9 368 506.3 368.7 506.6 369.4ZM499.4 301.1C498.2 300.9 496.8 300.6 495.3 300.2L495.3 310.9C496.7 311.1 498.2 311.4 499.4 311.6L499.4 301.1 499.4 301.1ZM495.4 432.2C496.8 432.7 498 433.1 499.5 433.6L499.5 422.6C498.1 421.7 496.6 420.7 495.4 419.3L495.4 432.2 495.4 432.2ZM499.4 344.2 499.4 352.8C498.7 351.6 498.2 350.2 498.2 348.5 498.2 346.8 498.7 345.4 499.4 344.2L499.4 344.2ZM499.4 358.2 499.4 378.4C498.7 376.5 497.5 373.2 495.3 369.8L495.3 354.1C497 355.4 498.2 356.8 499.4 358.2L499.4 358.2ZM499.4 381.3 499.4 391.8C498 392.8 496.5 394.2 495.3 395.4L495.3 383.5C496.6 382.7 498 382 499.4 381.3ZM495.4 300.2C493.7 300 492.3 299.5 491.1 299.3 489.4 299.1 487.5 298.6 485.9 297.9L485.9 308.9C488.5 309.6 492.1 310.3 495.4 311L495.4 300.2 495.4 300.2ZM485.9 424.1C488.3 427.7 491.6 430.5 495.4 432.2L495.4 419.3C491.4 415 489.4 409.1 490.4 405.3 491.6 401.3 493.2 397.9 495.4 395.3L495.4 383.4C492.5 385.5 490.4 388.2 488.5 390.1 487.5 390.8 486.6 392 485.9 393.2L485.9 424.1 485.9 424.1ZM495.4 354.2 495.4 369.9C494 367.3 491.8 364.7 489.7 363 488.3 361.8 487.1 361.1 485.9 360.1L485.9 348.2C489.9 349.9 493 352 495.4 354.2ZM485.9 297.8C483 297.1 480.4 295.9 478.7 294.9 475.9 293.2 472.5 294.9 470.6 295.4 468.7 295.9 469.2 299.4 469.2 301.3 469 311.5 466.6 318.7 464.2 325.3L464.2 355C464.9 354.8 465.9 354.8 466.8 354.8 475.6 354.1 480.6 356.5 485.8 360L485.8 348.1 485.8 348.1C481 346.2 475.8 345.2 470.8 345L470.8 344.8C470.8 337.2 471.5 333.1 474.6 326.2 476 323.4 477.5 317.6 477.5 315 477.5 312.1 478.9 306 478.9 306 478.9 306 479.1 306 481.8 307.4 482.5 307.6 483.9 308.1 485.8 308.6L485.8 297.8 485.9 297.8ZM464.2 415.1C465.6 415.1 467.5 415.3 469.2 415.1 475.2 414.9 480.9 413 480.9 413L481.1 412.8C481.1 413 481.1 413.5 481.3 413.8 482.3 417.8 483.7 421.4 485.8 424.3L485.8 393.4C484.1 395.5 482.2 398.6 481.3 402.2 480.8 402.4 480.3 402.7 479.9 402.7 478 402.9 473 404.6 468.5 404.8 466.8 404.8 465.4 404.8 464.2 404.6L464.2 415.1ZM464.2 325.4C463.3 328 462.1 330.4 461.1 333 460.2 335.6 460.4 344.2 460.6 345.6 458 345.8 455.6 346.3 453.9 346.8 450.8 347.7 444.2 351.8 440.3 355.6 433.6 362.3 431 371.1 423.4 376.8 416 382.5 412.2 385.8 412 387.8 411.8 389.7 412.3 392.3 418.9 394.5 425.6 396.6 434.8 400.9 440.5 404.5 446.5 408.1 450.7 413.1 455.7 413.8 457.1 414 460.5 414.7 464 415.2L464 404.5C456.4 403.8 453.1 400.5 446.2 395.5 440 391 427.4 386.9 427.4 386.9 427.4 386.9 435.5 379.5 438.3 375.5 441.4 371.2 442.6 366.2 447.3 362.2 451.6 358.4 455.2 356.3 464 355.3L464 325.4Z" fill="#FFFFFF"/><path d="M95.4 378.9C95.4 378.9 91.8 374.1 91.1 377.7 90.4 381.5 88.9 384.1 87.8 384.1 86.4 384.1 82.8 382.9 83 381.5 83.5 379.8 84.9 375.1 83.2 374.8 81.5 374.6 73.4 371.9 73.4 371.9 73.4 371.9 67.9 370.7 67.2 368.1 66.3 365.7 66.7 360.2 68.6 357.4 70.8 354.3 71.9 355.7 73.1 355.5 74.3 355.3 76.2 354.1 78.3 357.2 80.4 360.3 87.6 365.8 86.6 362.7 85.9 359.8 84.9 353.4 82.3 347.2 79 339.6 72.8 333.2 73.7 330.3 74.9 326 79.4 324.1 81.3 323.9 83.4 323.4 88.2 327.7 88.2 327.7 88.2 327.7 88 334.8 89.1 339.4 92 348.7 91 350.1 92 358 92.7 362 90.6 368 95.1 368.5 99.2 369 110.3 384.4 109.1 377.5 108.6 374.4 109.3 374.6 107.9 373 106.5 371.1 101 362.8 104.1 362.8 107.2 362.8 111 362.8 108.1 360.2 105.5 357.6 101.4 351.6 100 350 98.3 348.1 94.8 343.8 97.9 342.2 101 340.3 102.9 341.5 104.3 343.6 105.5 345.5 106 348.4 108.1 349.3 109.5 349.8 111 351.7 110.5 348.4 109.8 344.8 107.2 338.2 106.7 337.2 106.2 336.2 107.9 331.2 109.5 329.8 110.9 328.4 111.6 331.2 112.1 333.4 112.6 334.6 113.8 339.8 114.5 344.6 115 348.2 114 352.4 114.7 353.6 116.1 356 124.9 372.6 126.4 374.3 127.6 375.7 128.1 374.8 128.5 374.5 128.7 374.3 128.7 374.5 128.5 373.5 127.8 369.7 126.8 344.9 128.3 341.4 129.7 337.8 130.2 334.7 131.9 335.2 133.3 335.9 136.4 340.2 136.4 342.3 136.4 344.7 135 347.8 133.8 350.1 132.6 352.7 132.9 368.7 133.3 371.3 133.5 373.9 133.8 376.5 133.8 376.5 135.9 377.4 151.4 387 154.3 385.1 154.8 384.6 154.8 384.2 154.5 383.4 154 380.1 154.5 374.4 157.4 373.9 160 373.4 163.1 375.3 162.6 377.9 161.9 380.5 159.5 387.4 161.9 388.6 164.3 389.5 185.2 395 189 396 192.8 397 205.2 401.9 200.2 406.5 195 411.3 190.9 413.2 189 412.9 187.3 412.9 185.2 412.9 186.4 410.8 187.8 408.7 188.5 407.2 177.6 402.2 166.9 397.4 163.1 395.3 162.8 396.7 162.3 398.1 163.7 405.7 164.9 406.2 166.1 406.9 172 412.6 167.5 416.4 162.7 420.2 157 418.8 157 416.6 157 414.4 157.2 414.9 157.2 413.5 157 411.8 154.3 403 154.3 398.7 154.3 394.7 155 393.9 155 393.9L136.7 387C136.7 387 134.1 386 135 390.8 135.7 395.3 137.4 407.5 142.1 420.3 146.6 432.9 150.2 433.9 148.5 439.3 147.1 445 143.5 448.8 143.3 447.2 142.6 445.1 138.5 447.2 137.6 444.8 131.4 431 131.9 408.9 130 394.1 129.3 388.4 128.8 384.1 128.8 384.1 128.8 384.1 117.1 377.7 115.7 376.5 114.5 375.8 115.5 381.7 115.9 388.6 116.1 391.2 115.7 393.6 116.1 395.3 117.5 399.3 119.2 404.8 115.9 406.5 104.9 411.5 109 392.7 107.8 389.6 107.3 388.2 106.4 389.1 105.7 388.2 103.5 385.3 99.2 382 95.4 378.9Z" fill="#FFFFFF"/><path d="M237.2 245.9C237.2 245.9 238.1 242.6 241.2 242.8 247.2 243 271.7 263.5 270.9 268.5 270.7 270.2 263.5 279.2 261.1 278.5 259 277.6 256.8 272.8 255.2 269.5 250.8 261.1 243.2 253.3 237.2 245.9Z" fill="#FFFFFF"/><path d="M277.9 179.3C284.8 187.6 291.9 195.7 296.9 201.2 310.2 215.5 317.6 223.8 317.6 223.8 317.6 223.8 317.1 231.7 309.7 232.4 302.1 233.4 289.5 233.8 288.1 233.1 286.9 232.4 286.9 232.4 290.5 230.2 294.1 228.3 301.2 227.1 301 224.5 301 221.9 284.6 204.3 277.9 195.9L277.9 179.3 277.9 179.3ZM277.9 245.9C278.1 246.1 278.4 246.1 278.4 246.4 282.2 250 285.1 250.5 289.6 250 294.1 249.3 289.8 242.9 289.8 242.9 289.8 242.9 279.3 231 278.4 229.3 277.7 227.6 278.9 222.2 278.9 218.6 278.9 217.4 278.4 216.9 277.9 216.7L277.9 245.9ZM266.7 165C270 169.8 274.1 174.5 277.9 179.3L277.9 196C277.9 195.8 277.9 195.8 277.7 195.8 274.8 192.2 270.8 186.3 266.7 180.6L266.7 165 266.7 165ZM277.9 216.7 277.9 246C274.6 242.7 273.6 241.7 272.2 243.6 271.2 245.3 267.9 248.8 266.7 248.6L266.7 246.7C268.4 242.2 270.7 239.6 270.7 239.6L266.7 235.6 266.7 231.1C269.3 229.2 273.1 226.6 273.1 226.6 273.1 226.6 272.6 219.5 273.8 218.3 274.6 217.3 276.7 215.9 277.9 216.7L277.9 216.7ZM266.7 218.8C267.7 217.4 268.6 215.9 269.1 215.2 269.8 214 268.4 212.8 266.7 212.1L266.7 218.8ZM261.3 157.4C263 159.8 264.9 162.4 266.8 165L266.8 180.5C264.9 177.6 263 174.8 261.3 172.4L261.3 157.4 261.3 157.4ZM266.7 212.1 266.7 218.8C265.3 221.2 263.8 223.6 263.8 225 263.8 227.1 261.9 226.7 261.9 226.7 261.9 226.7 261.7 226.7 261.2 227L261.2 213.4C262.2 212.5 263.3 211.7 264.3 211.7 265.1 211.7 266 211.7 266.7 212.1L266.7 212.1ZM266.7 230.9 266.7 235.4 264.3 232.8C264.6 232.3 265.5 231.6 266.7 230.9L266.7 230.9ZM266.7 246.6 266.7 248.5C266.5 248.5 266.2 248 266.7 246.8 266.7 246.9 266.7 246.9 266.7 246.6ZM218.2 225.9C218.2 225.9 218.2 232.1 216.8 233.8 215.6 235.5 213.2 235.7 212 235.9 210.6 236.1 211.5 235 210.1 236.4 208.9 237.6 200.8 238.3 203.4 233.3 205.8 228.3 206.7 229 207.4 226.4 208.1 223.8 210.5 214 211.4 209.5 212.6 204.7 215.7 195 215.7 195 215.7 195 217.4 191.7 212.1 183.8 206.9 175.9 204 170.5 202.3 168.3 200.6 166.2 200.4 164 202.5 164 204.6 164.2 218.7 166.1 220.1 166.4 221.5 166.6 222.5 167.1 223.4 164 224.4 160.9 225.1 156.4 227.7 159 230.3 161.6 234.8 166.1 232.7 173.5 230.6 180.9 228.9 184.2 231.5 193.5 233.9 202.5 233.9 209.2 235.1 210.4 236.3 211.3 237.5 217.3 238.9 216.1 240.6 215.1 244.1 209.4 244.4 201.3 244.7 195.6 242.5 193 242 190.6 241.8 190.4 241.8 190.1 241.8 190.1 240.6 186.8 241.8 183.4 243.9 182.7 244.1 182.7 244.1 182.7 244.4 182.7 247.3 173.4 247 163.9 251.5 154.1 253.2 151 256.3 148.6 257.9 151.7 258.6 153.4 259.8 155 261 157.2L261 172.2C258.4 168.2 256.5 165.1 256 164.4 255.1 162.5 253.4 160.4 252 169.9 250.6 179.2 249.4 181.3 252.5 182 255.4 182.7 258.9 184.1 257.3 190.6 255.4 197.3 250.9 202.3 251.3 204.4 252 206.8 251.8 212 253.2 213.9 254.4 215.8 253.4 220.3 250.8 220.1 248.2 219.9 244.9 219.4 244.9 219.4L244.9 233.7C244.9 233.7 235.4 242.3 236.3 238 237.2 233.7 239.9 229.2 239.9 225.9 239.9 222.6 235.4 221.1 234 217.6 232.8 214.3 227.1 201.4 224.7 203.1 222.3 204.5 219 217.1 219 221 218.9 224.7 218.2 225.9 218.2 225.9L218.2 225.9ZM261.3 213.3C259.9 215 258.9 216.9 259.2 218.3 259.7 220.2 252.6 223.3 253.5 226.2 254.2 229.3 256.6 230 258.5 228.8 259.7 227.8 260.6 227.4 261.4 226.9L261.4 213.3Z" fill="#FFFFFF"/><path d="M460.4 74.8 453.3 78.6C453.3 78.6 453.5 72.4 461.6 64.8 469.7 57.4 476.8 49.1 480.6 47.7 484.4 46.3 490.8 45.8 490.8 50.1 491 54.4 488.9 61.8 487.5 64.8 486.1 67.9 482.5 98.6 482.3 101 481.8 103.6 475.2 107.9 473.3 108.6 471.4 109.3 471.4 112.9 471.9 120 472.1 126.9 472.4 128.8 475 128.6 477.6 128.6 485.2 126 485.7 130.3 486.2 134.6 478.1 148.6 477.6 149.6 476.2 152.7 475.2 155.3 478.5 154.8 482.1 154.3 485.6 151.5 489.2 150.5 492.5 149.6 493.2 150.3 495.9 153.4 498.5 156.7 497.8 162.7 490.9 163.9 483.8 165.1 484.5 166 480.7 166.5 476.9 167 466.7 167 465.2 162.7 463.8 158.4 469.5 159.4 468.5 156.5 467.8 153.6 468.7 143.4 467.6 143.6 466.2 143.6 460.7 141.5 462.6 138.8 463.1 137.8 464.5 137.4 464.7 135.5 465.4 131.5 464.2 125 463.3 123.6 461.9 121.5 455.7 119.5 458.1 115.5 458.8 114.1 459.5 114.3 460.2 112.4 461.6 109.3 461.6 103.6 462.6 102.4 463.8 100.5 461.6 100.3 459.7 100.7 458 100.9 455.4 98.1 457.6 95.5 459 93.8 463.3 94.6 464.7 91.2 465.4 89.3 465.2 85 465.4 82.9 466.4 77.2 466.1 77.4 466.1 77.4 466.1 77.4 470.1 73.6 470.6 76.2 471.3 78.8 470.8 83.6 470.8 86.9 470.8 90 472.2 93.6 473.9 90.7 475.6 88.1 479.1 65.9 480.3 62.6 481.5 59 481 53.8 478.9 56.4 473.7 62.5 465.4 68.4 460.4 74.8Z" fill="#FFFFFF"/><path d="M441.4 85.1C440 84.6 438.1 82.5 441.9 81.3 445.9 80.1 451.4 78.9 452.1 82.7 452.6 86.3 454.7 98.6 455 100.5 455.2 102.7 456.2 107.4 450.2 106.9 444.5 106.7 445 102.6 444.7 97.4 444.2 92.2 442.8 85.5 441.4 85.1Z" fill="#FFFFFF"/><path d="M416.9 97C416.9 97 415.7 97.7 414.3 99.4 412.6 101.1 411.9 102.5 410 102.7 408.8 102.7 401.9 100.3 401.7 98.9 401.7 97.7 400.7 95.8 402.2 93.9 406 89.4 416.5 83.2 418.4 81.3 421 78.7 428.2 72.3 428.9 76.1 429.1 77.8 433.9 79.9 433.7 83.2 433.7 87.5 430.6 94.6 430.6 97.2 430.6 102 429.7 116.3 429.7 116.3 429.7 116.3 433.7 116.8 433.3 119.6 432.6 122.2 427.6 125.1 430.9 127.2 434 129.3 435.2 127.7 435.9 124.6 436.6 121.5 438.3 118.2 438.3 118.2 438.3 118.2 437.8 126 433.8 141.5 429.5 157 425.7 163.1 422.1 165.5 418.5 167.9 414 166.2 415.5 162.4 416.9 158.8 416.4 154.3 417.2 152.2 417.9 150.1 420.3 144.1 420.8 142.9 421.3 141.7 420.6 134.8 418.2 134.6 415.8 134.6 410.4 138.6 407.5 139.1 404.6 139.8 407 130.5 407 131 407.7 132.4 408.7 129.8 409.8 128.6 412.9 125.7 416.7 124.3 416.7 124.3 416.7 124.3 421 123.4 420.3 116.9 419.8 110.5 420 100.7 419.1 98.6 417.8 96.2 416.9 97 416.9 97Z" fill="#FFFFFF"/><path d="M664.8 88.6C665 88.4 663.4 86.9 663.9 86 664.8 84.6 668.2 83.9 671.7 86 677.9 90.3 681.5 91.5 693.8 93.1 706.2 95 709.3 92.1 712.1 93.1 715 93.8 723 100.7 723 100.7 723 100.7 723.2 105.9 720.1 108.1 718.4 109.5 706.1 118.3 697.3 126.4 691.1 131.9 687.1 136.9 686.6 137.6 684.5 140.9 689.5 139.5 694.7 138.6 696.1 138.4 696.8 136.2 698 136.5 700.1 137 704.4 140.1 705.1 141.3 706.3 142.7 704.4 150.6 694.6 149.1 684.6 147.4 675.6 150.1 665.1 152.7 654.9 155.3 641.3 160.1 637.7 163.2 633.9 166.3 628.7 161.3 623.4 158.4 621.7 157.2 619.8 156.3 618.6 152.9 617.4 148.9 617.7 143.4 620.7 143.6 625.9 143.8 624.7 143.6 630.7 144.5 636.6 145.7 633.3 145.7 642.1 143.3 651.1 140.9 659 139.5 661.4 138.8 663.5 138.1 685 118.6 688.5 115.7 692.3 112.9 709.9 101 706.4 99.8 702.8 98.4 687.1 103.6 682.1 104.3 680.9 104.5 680.9 106.7 679.7 106.9 676.1 107.6 670.4 105.9 667.8 101.4 666.5 98.9 664.1 91.7 664.8 88.6Z" fill="#FFFFFF"/><path d="M850.9 235.2C851.1 235.2 849.7 239.2 849.7 243.8 849.7 248.3 850.4 259.5 852.3 264.7 854.2 270.2 856.6 276.4 858 278.3 859.4 280.2 861.3 285.2 856.3 282.6 853.2 280.9 850.3 276.9 847.5 275 843.7 272.1 839.9 271.4 838.2 269.8 835.3 267.4 836.1 266.5 837 256.7 837.7 250 840.8 246.2 840.8 243.4 841 240.3 841.5 236.3 844.1 235.8 846.6 235 850.6 235.2 850.9 235.2Z" fill="#FFFFFF"/><path d="M867.3 191.4C868 190 868 188.3 868 186.4 868 184.7 870.6 184 873.9 183.1 877.2 182.2 877 182.4 879.6 186.2 882.2 190 886.3 193.3 882.2 198.6 879.3 202.7 867.9 215 868.9 216.2 870.3 218.1 868.7 215.2 871.8 216 875.4 216.7 879.4 216 880.1 217.9 881.8 221.7 876.3 229.1 873.2 227.7 870.8 226.7 864.6 221.5 860.3 223.7 857.9 224.9 855.1 227.7 851.7 229.4 849.1 230.6 846 230.6 843.8 232.3 838.1 236.3 828.1 240.6 825.7 241.1 823.3 241.6 806.4 244.4 800 245.4 793.6 246.1 786.2 244.9 782.2 245.2 774.1 245.4 766.7 244.7 757.7 244 756.3 244 757.5 240.9 762.9 240.2 766 240 775.5 237.8 785.3 236.9 793.2 236.2 801 237.1 806.7 235 819.5 230.2 834.5 229 837.6 224.5 840.4 219.7 838.6 221.6 833.8 221.9 829 222.1 821.4 222.9 817.1 217.1 815.7 215.2 815.4 213.8 815.9 212.6 816.4 211.4 817.1 209.5 818.5 209 819.9 208.8 822.3 209.7 823.7 209.7 828.5 210.4 839.9 211.1 842.5 212.1 845.4 213 853 212.6 854.2 211.1 855.6 209.7 866.3 192.9 867.3 191.4Z" fill="#FFFFFF"/><path d="M969.4 375.8C970.1 375.6 971.1 375.6 971.5 375.6 973.2 376.1 975.6 379.6 973.7 380.1 972.3 380.3 971.1 381.3 969.4 382L969.4 387.5C970.4 387.7 971.5 387.5 973 387.3 976.1 386.3 975.9 385.4 977.3 380.6 979 375.8 982.8 380.6 984.9 382.7 986.8 384.6 991.3 387.9 992.5 390.8 993.4 393.4 988.7 393.2 985.8 392.7 982.7 392 974.9 391.7 969.6 391.3L969.4 391.3 969.4 395.3C969.9 395.3 970.1 395.3 970.6 395.1 977.3 394.9 984.9 399.1 990.3 400.8 992.9 401.8 996.5 402.5 999.3 401.5 1002.4 400.5 1004.5 398.2 1005 395.8 1005.2 394.1 1006.9 390.1 1002.9 388.4 998.9 387 989.3 378.9 986.5 378.4 983.9 377.7 981.7 375.5 982.2 373.4 982.9 371.3 980.8 369.4 982.2 367.2 983.9 364.8 986.2 365.1 990 366.3 993.8 367.5 1000 369.6 1004.8 371.8 1009.6 373.7 1010.8 371.1 1013.1 371.1 1015.5 371.3 1015.7 369.2 1016 363 1016.2 356.6 1011.2 356.1 1011 357.8 1010.8 359.2 1010.3 358.3 1004.6 361.6 998.9 365.2 979.9 360.9 978.2 360.2 976.5 359.7 976.5 357.1 974.9 354.5 973.2 352.1 971.8 350.7 969.9 349.7 969.7 349.5 969.7 349.5 969.4 349.2L969.4 354.2C970.1 355.6 970.6 356.8 970.1 357.5 969.9 357.7 969.6 358 969.4 358L969.4 362.3C972.2 364.2 973.7 365.2 973.4 367.1 973.2 369.2 972.9 370.2 971.7 369 971 368.3 970 368 969.3 368L969.3 375.8 969.4 375.8ZM969.4 346.1 969.4 337.5C969.9 337.7 970.1 338 970.4 338.7 972.1 341.1 970.2 344.2 970.2 344.2 970.2 344.2 969.6 345.1 969.4 346.1ZM963.4 377C963.9 376.5 964.4 376.3 965.3 376.3 966.7 376.6 968.1 376.1 969.3 375.8L969.3 368C968.8 368 968.6 368 968.6 368 968.6 368 966.2 366.6 965.5 365.6 964.8 364.4 965.3 359.6 968.6 361.8 968.8 362 969.1 362 969.3 362.3L969.3 358C968.3 359 967.2 359 966 358 964.6 356.8 964.1 356.6 964.1 356.6 964.1 356.6 963.4 355.4 963.4 354.2L963.4 359.7 963.4 359.9 963.4 377 963.4 377ZM969.4 382C968.7 382.2 967.7 382.2 966.8 382 965.4 381.8 964.2 381.5 963.5 381.3L963.5 385.6C964 385.6 964.5 385.8 965.2 386.3 966.6 387 968.1 387.5 969.5 387.5L969.5 382 969.4 382ZM969.4 337.5 969.4 346.1C969.2 347 968.9 348.2 969.4 349.2L969.4 354.2C968.9 353.5 968.4 352.5 968.2 351.8 967 349.7 966.3 351.6 964.2 352.5 963.7 352.7 963.5 353.2 963.5 353.7L963.5 343.9C964.2 342.7 964.7 341.5 965.2 340.8 966.3 337.8 967.9 336.6 969.4 337.5L969.4 337.5ZM969.4 391.3 969.4 395.3C966.8 395.3 964.9 394.8 963.4 394.8L963.4 390.5C965.3 390.8 967.5 391.1 969.4 391.3ZM961.8 380.6C962 379.7 962.3 378 963.5 377L963.5 359.9C963.3 361.3 962.5 362.8 961.8 363.2 959.9 363.7 956.3 363.4 956.3 363.4 956.3 363.4 955.6 359.1 960.1 357.7 962.5 357 963.2 358.2 963.4 359.6L963.4 354.1C963.4 354.1 963.4 353.9 963.4 353.6L963.4 343.8C960.5 347.8 955.8 353.3 952.7 356.7 948.7 361 944.4 360 945.6 358.4 946.8 356.5 948 351.5 948.7 349.8 949.4 348.1 948.7 346 947.5 343.1 946.1 340.5 945.1 344.1 943.2 347.9 941.5 351.7 938.9 355.5 937.2 356 935.5 356.7 935.1 357.4 933.2 359.6 931.1 362 933.2 361.5 935.8 362.7 938.4 363.9 948.6 364.6 952 365.1 955.3 365.6 957.2 368.4 957 370.8 956.8 373.2 950.3 371.5 948.4 370.6 946.3 369.6 943.2 370.8 944.1 372.3 944.8 374 949.1 374.4 955 376.6 961 378.7 958.6 381.1 957.1 381.6 955.9 381.8 953.3 381.1 951.1 383.3 949.2 385.4 958.2 385.7 959.7 385.4 960.9 385.4 961.8 385.2 963.3 385.6L963.3 381.3C962.2 380.8 961.8 380.6 961.8 380.6L961.8 380.6ZM963.4 390.6 963.4 394.9C961.5 394.7 960.3 394.9 959.8 396.6 958.9 399.9 962.9 404.9 960.5 405.6 957.9 406.3 955.7 408.7 949.3 402.5 942.9 396.3 938.6 395.8 933.8 394.2 929.3 392.5 921.2 390.2 923.6 393.5 926 396.6 927.4 398.7 929.3 399 931.2 399.2 935.7 407.6 933.1 412.1 930.7 416.6 929.8 414.5 924.3 411.4 919.1 408.1 914.1 405.9 913.1 405 912.4 404.3 917.6 404.5 919.5 404.3 921.2 403.8 923.8 404.3 920.9 401.2 916.6 396.9 915.2 398.1 912.8 400.5 910.7 402.4 906.8 405.3 905.4 406 902.3 407.2 891.1 413.9 888.7 414.8 886.6 415.7 878.2 416.7 877.5 413.1 877 411.9 877.3 409.5 876.8 406.9 875.8 401.7 874.7 396 874.4 395 874.4 393.6 875.6 390.5 877.5 393.6 879.2 396.5 881.5 403.8 883.7 404.5 884.2 404.5 885.1 403.5 887 403.1 889.1 402.6 892.2 402.6 894.6 401.7 898.9 399.6 902.7 396.2 904.1 395.5 906.9 393.6 908.1 392.9 903.4 388.4 898.6 383.9 886.3 379.8 881.7 372.2 880.7 370.5 878.4 366.2 878.1 364.6 878.1 363.4 881 361.5 881.9 361.5 883.1 361.3 885 364.8 885.9 366 887.3 369.1 892.6 373.8 895.7 375 896.9 375.5 897.8 375.5 900 376.4 903.8 378.1 908.8 380.9 910.7 382.4 913.6 384.5 916.7 385.5 919.3 385 922.2 384.5 925.2 388.3 927.4 389.3 929.3 390.3 938.6 392.9 941.4 391.7 944.5 390.5 945.7 390.5 943.5 389.8 941.4 389.1 928 378.6 924.9 373.4 924.7 372.9 920.1 371.3 919.9 370.8 917.8 366.3 922.5 365.6 926.1 369.4 929.9 373.7 932.3 376.3 936.6 378.7 941.1 381.1 943 381.1 947.8 385.4 952.3 389.4 953.5 391.1 955.2 390.9 956.8 390.3 959.8 390.3 963.4 390.6Z" fill="#FFFFFF"/><path d="M945.6 777 945.6 768.9C946.1 768.7 946.6 768.7 946.8 768.4 948 767.5 948.9 766.5 949.6 765.1 950.3 763.7 950.8 762.2 950.8 760.6 951 759.2 950.6 757.3 949.4 755.1 948.7 753.4 947.3 752 945.6 750.1L945.6 740.3C950.1 744.6 953.9 748.6 955.4 751.5 958.5 757.2 958.5 763.2 955.4 769.1 952.9 773.7 949.6 776.3 945.6 777L945.6 777ZM945.6 728.9 968.4 742.2 980.3 714.6 974.1 711.3 965.3 731.8 945.5 720.4 945.5 728.9 945.6 728.9ZM945.6 700.9 945.6 692.6C946.6 692.8 947.5 693.3 948.2 693.6 953.2 695.7 960.6 697.9 964.1 698.6 967.7 699.1 970.3 699.1 972.4 698.8 983.3 697.6 983.8 689.3 977.2 683.1 975.5 681.7 973.6 679.5 970.5 677.6 967.4 675.7 960 672.8 955 670.7 952.6 669.7 949.1 668.3 945.5 667.1L945.5 659C949.5 660.2 953.8 661.6 957.4 663 967.9 667.3 978.1 672.8 982.4 678 986.4 683 989.8 690.1 987.9 696.8 985.8 703.2 979.6 705.6 973.6 706.6 967.6 707.8 956.2 705.4 945.8 701.1L945.6 700.9 945.6 700.9ZM945.6 654.9C960.8 659.9 980.8 662.3 990.6 659.9 996.3 658.5 1000.1 654.7 1001.5 648 1002.5 643 1001.5 638.7 998.6 634.9L1003.8 636.1 1005 629.9 965.3 621.1 962 638.7 968.7 640.4 970.6 630.9C973.5 631.8 984.4 633.8 986.3 634.5 988.5 635.2 990.1 635.9 991.5 636.9 992.9 637.8 994.1 639 994.8 640.5 995.3 641.9 995.5 643.8 995 645.7 994.8 647.1 994.3 648.6 993.3 649.8 992.4 650.7 990.9 651.7 989 652.2 978.3 655.5 957.8 651 945.4 646.7L945.4 654.9 945.6 654.9ZM945.6 625.9 945.6 617.8C946.1 617.8 946.6 618 947 618L945.6 625.9 945.6 625.9 945.6 625.9ZM945.6 610.2 945.6 603.1 962.7 599.8 945.6 591.5 945.6 583.6 971.5 596.9 1009.6 603.8 1008.4 611.7 971 605 945.6 610.2ZM945.6 583.5 945.6 591.4 930.4 583.8 931.1 575.9 945.6 583.5 945.6 583.5ZM945.6 603.1 945.6 610.2 925.4 614.5 926.8 606.4 945.6 603.1 945.6 603.1ZM945.6 617.8 945.6 625.9C941.6 624.9 938.2 624.5 935.4 625.4 930.4 627.3 929.5 631.1 930.6 635.9 930.8 637.3 931.8 638.8 933.5 640.2 934.9 641.9 937.5 643.3 940.9 644.7 942.1 645.2 943.7 645.9 945.7 646.6L945.7 654.9C938.6 652.5 932.4 649.7 928.8 646.6 924 642.6 922.4 637.1 922.4 630.4 922.4 625.4 927.6 619.4 932.9 618 935.3 617.3 937.4 616.8 939.8 617.1 941.5 617.1 943.4 617.3 945.6 617.8L945.6 617.8ZM945.6 659C937.3 656.4 929 654.5 924.9 655.2 919.2 656.1 913.2 659 911.3 665.7 909.4 672.1 912.2 679 916.3 684.3 920.3 689.3 934.9 696.7 945.6 701L945.6 692.7C939.9 690.3 930.9 686.3 928.2 684.6 925.1 682.7 923 680.6 921.5 678.9 916 673 916.5 664.9 926.3 663.2 928.2 663 931.1 663 934.6 663.7 936.5 664.2 941 665.6 945.5 667.3L945.5 659 945.6 659ZM945.6 720.4 945.6 729 898.7 701.9 898.7 699.3 900.6 694.3 945.6 720.4 945.6 720.4ZM945.6 740.3C940.6 735.8 934.9 731.3 930.1 727.7 920.4 721 907 713.2 901.1 712.7 900.1 712.7 899.4 712.7 898.7 712.7L898.7 720.8C899.4 720.8 900.1 720.8 900.8 720.8 902.9 720.8 905.6 721.7 908.9 723.2 912.2 724.9 921.7 731.3 926.5 734.6 931 737.9 941 745.5 943.9 748.2 944.4 748.9 945.1 749.4 945.6 750.1L945.6 740.3 945.6 740.3ZM945.6 768.9 945.6 777C944.4 777.5 943 777.5 941.6 777.2 935.7 777 921.6 768.6 912.1 762 907.8 758.9 903.1 755.1 898.8 751.5L898.8 742C898.8 742 899 742 899 742.2 901.6 744.8 910.9 752 915.7 755 920.2 758.3 928.3 763.3 931.6 764.8 934.9 766.5 939.9 769.1 942.1 769.3 943.4 769.4 944.6 769.1 945.6 768.9L945.6 768.9ZM898.7 829.8 898.7 819.6 912.3 833.9 907.5 839.6 898.7 829.8 898.7 829.8ZM898.7 806.7 918.9 824.8 923.2 818.6 898.7 796.7 898.7 806.7 898.7 806.7ZM898.7 784.4 935.6 801.5 939.9 795.1 898.7 758.2 898.7 768.4 919.2 787 898.7 776.8 898.7 784.4ZM898.7 699.2 898.7 701.8 897.8 701.3 898.7 699.2 898.7 699.2ZM898.7 712.7 898.7 720.8C897.5 721 896.8 721.3 896.1 721.7 894.9 722.7 894 723.8 893.2 725.3 892.5 726.5 892 727.9 892 729.6 891.8 731 892.2 732.9 893.4 735.1 894.4 737 896 739.4 898.6 742L898.6 751.5C893.4 747 888.8 742.2 887.2 738.9 884.1 733 884.1 727 887.2 721.1 890.1 715.8 893.9 713.2 898.7 712.7L898.7 712.7ZM898.7 758.2 877.8 739.9 874 746.3 898.7 768.4 898.7 758.2 898.7 758.2ZM898.7 776.7 898.7 784.3 869.9 771 898.7 796.7 898.7 806.7 867.1 778.4 867.1 761 898.7 776.7 898.7 776.7ZM898.7 819.6 867.1 786.8 867.1 796.5 876.6 806.3 867.1 818 867.1 837.3 889.2 860.6 894 854.9 868.8 827.3 881.7 811.6 898.8 829.9 898.8 819.6 898.7 819.6ZM867.1 883.8 867.1 875C867.1 874.8 867.1 874.8 867.1 874.8 868.1 873.8 868.8 872.9 869.2 871.9 869.7 870.7 869.7 869.3 869.7 867.9 869.5 866.2 869 864.3 867.8 861.9 867.6 861.4 867.3 860.7 867.1 860.2L867.1 849.7 868.1 848.8C873.1 855.5 875.9 861.4 876.4 866.6 876.9 871.8 875.5 876.4 871.4 880.4 869.9 881.9 868.5 883.1 867.1 883.8ZM867.1 761 867.1 778.4 857.6 769.8 864.7 759.8 867.1 761 867.1 761ZM867.1 786.7 854.5 773.6 850 779.6 867.1 796.5 867.1 786.7 867.1 786.7ZM867.1 817.9 867.1 837.2 834 802.2 834 799.3 837.3 795 863.7 821.7 867.1 817.9 867.1 817.9ZM867.1 849.8 867.1 860.3C865.9 858.4 864.5 856.3 862.8 854.1L867.1 849.8 867.1 849.8ZM867.1 875C865.9 876 865 876.4 863.5 876.9 862.3 877.1 860.6 876.9 858.7 876.2 856.6 875.2 854.2 873.6 851.6 871.2 848.7 868.6 842.1 860.5 838.5 856 837.3 854.3 835.6 851.9 834 849.6L834 862.2C841.4 871.5 850.9 881.5 856.4 883.6 860.2 885.3 863.8 885.3 867.1 883.8L867.1 875 867.1 875ZM834 912.4 834 902.4 848 890.3 852 896.7 834 912.4 834 912.4ZM834 818.4C834.5 818.9 834.9 819.1 835.7 819.6 837.1 821 839 822.7 840.9 825.3L845.9 819.8C841.9 814.6 837.8 811.2 834 809.8L834 818.4ZM834 799.4 834 802.3 832.6 801.1 834 799.4 834 799.4ZM834 809.8 834 818.4C833 817.9 832.1 817.7 831.4 817.4 830.2 817.2 829 817.2 828.1 817.6 827.1 818.1 826.2 818.8 825.5 819.7 824.5 820.6 823.6 821.8 823.1 823.3 822.6 824.7 822.6 826.6 823.1 829 823.6 831.4 824.8 834.2 826.7 837.8 827.9 839.9 831 844.9 834.1 849.5L834.1 862.1C833.9 861.6 833.6 861.4 833.4 861.2 826 851.7 817.9 837.6 816.5 830.7 815.1 824 816.5 818.3 821 813.8 824.6 810 828.6 808.6 832.9 809.5 833.3 809.6 833.5 809.8 834 809.8L834 809.8ZM834 902.4 830.7 905.5 813 876.2 825.9 865.3 821.6 858.9 809 869.8 799.5 853.6 799.5 867.6 829.2 916.6 834 912.3 834 902.4 834 902.4ZM799.5 919.5 799.5 905.7 812.8 927.6 806.9 931.6 799.5 919.5 799.5 919.5ZM799.5 844.1 799.5 834.1 808.1 826.7 812.1 833.1 799.5 844.1ZM799.5 834.1 799.5 844.1 795.9 847.2 799.5 853.6 799.5 867.6 786.2 845.5 799.5 834.1 799.5 834.1ZM799.5 905.7 774.3 863.8 785.5 855.7 781.5 849.1 752.9 869.6 756.7 876 768.4 867.9 799.6 919.5 799.6 905.7 799.5 905.7ZM718.8 979.5 718.8 969.5C719.3 968.5 719.7 967.1 719.7 965.5 720.2 963.1 719.9 959.8 719.2 955.7 719 955.2 719 954.3 718.7 953.6L718.7 928.9C719.2 930.1 719.6 931.5 719.9 932.7 723.9 944.8 727.3 959.6 726.3 966.5 726 972.6 723.3 976.9 718.8 979.5L718.8 979.5ZM718.8 912.9 741.2 969.8 747.6 966.5 731.9 925.6 748.6 916.5 745.7 909.4 729 918.2 720.2 897 739.2 887 735.9 879.9 718.8 888.9 718.8 912.9ZM718.8 888.8 718.8 912.8 710.9 893.1 718.8 888.8 718.8 888.8ZM718.8 928.8C715 918.1 710 908.3 705.9 904.3 705.2 903.6 704.7 903.1 704 902.6L704 913.6C704.7 914.8 705.7 916.4 706.6 918.1 708.3 921.7 711.6 929.5 713.5 935.5 715.2 940.5 717.5 948.6 718.7 953.6L718.7 928.8 718.8 928.8ZM718.8 969.5 718.8 979.5C718.1 980 717.6 980.2 716.9 980.4 712.4 982.5 707.9 982.1 704.1 979L704.1 968.3C704.8 969.5 705.8 970.4 706.5 971.2 708.2 972.9 709.6 973.6 710.8 973.8 712.2 974 713.4 974 714.8 973.3 716.2 972.8 717.2 971.9 718.1 970.7 718.3 970.4 718.6 970 718.8 969.5ZM704.1 902.6 704.1 913.6C703.1 912.4 702.4 911.2 701.7 910.5 700 909.1 698.6 908.1 697.2 907.9 696 907.9 694.6 908.1 693.2 908.6 692 909.1 690.8 910 690.1 911.2 689.2 912.4 688.4 914.1 688.2 916.4 688 918.8 688.2 921.9 688.7 925.9 689.4 929.9 692.3 938 694.2 944 696.1 950 699.7 959.9 701.3 963.5 702.2 965.4 703.2 966.8 704.2 968.3L704.2 979C703.5 978.5 702.8 978 702.1 977.3 697.6 972.5 691.6 958.7 687.8 946.8 683.8 934.7 680.7 922.1 681.4 915.2 682.1 908.3 685.4 903.5 690.9 901.2 695.7 899.1 700 899.5 704.1 902.6L704.1 902.6ZM586.8 1012.3 586.8 992.1 588.7 1012.1 586.8 1012.3 586.8 1012.3ZM586.8 937.4 598.9 935.7 608.2 1009.5 614.9 1008.3 605.6 934.8 618.9 932.2 618 925 586.8 929.5 586.8 937.4 586.8 937.4ZM641.5 964.5 649.8 1002.8 656.4 1000.9 648.3 962.6 653.5 915.7 646.8 917.6 642.8 953.8 628.3 922.2 621.4 924.1 641.5 964.5ZM570.3 955 563.9 955C564.1 945.7 561.3 940.5 555.3 940.2 548.4 940 545.3 945.2 545.3 955 545.5 960.2 547.2 963.8 550.5 966 551.7 966.5 552.9 967.7 554.8 968.4 556.7 969.3 558.1 970.1 559.3 970.5 568.3 975 571.9 981.2 571.7 991.2 571 1005.9 565.5 1014.3 554.6 1014.7 547 1015 542 1010.7 539.4 1002.6 538.4 1000 538 995.2 538.2 987.8L544.1 987.8C543.4 1001.1 547 1007.6 554.8 1007.1 561.7 1006.6 565.3 1002.1 565.3 993.3 565.3 985.9 562.9 982.1 557.7 979.7 557.2 979.7 556.7 979.5 556.3 978.7 555.6 978.5 554.4 977.8 553 977 549.4 975.3 547.1 973.7 545.4 972.5 541.1 969.4 539 963.7 539.2 954.4 539.4 940.4 544.7 932.3 554.4 932 565.1 932.1 570.6 940.5 570.3 955L570.3 955ZM586.8 929.5 586.8 937.3 585.8 937.3 585.1 929.7 586.8 929.5 586.8 929.5ZM586.8 992.1 581.6 930 574.7 931 581.8 1013.1 586.8 1012.4 586.8 992.1 586.8 992.1ZM518.2 980.2 518.2 966.9C520.1 966.4 521.8 965.5 523.2 963.6 524.6 961 526 956 526.3 952.7 526.3 949.4 525.6 946.3 524.2 943.7 522.8 941.3 520.9 939.9 518.3 939.7L518.3 931.9 519.5 931.9C522.1 932.1 524.2 932.8 526.1 934 528 935.4 529.7 937.1 530.9 939 532.1 940.9 532.8 943 533.3 945.4 533.8 947.8 534 949.9 534 952.3 534 960.9 533.3 959.2 532.8 960.2 532.1 961.9 531.9 964 531.1 965.7 530.4 967.6 529.4 969.3 528.2 970.7 527 972.1 525.6 973.1 523.9 973.8L532.9 1014.9 525.3 1014.4 518.2 980.2ZM518.2 931.7 518.2 939.5 518 939.5 511.6 939.3 510.2 966.7 516.6 966.9C517.1 966.9 517.8 966.9 518.3 966.9L518.3 980.2 517 975 509.9 974.5 508.2 1013.5 501.3 1013.3 504.9 931 518.2 931.7 518.2 931.7ZM464.9 1008.7 464.9 989 472.5 927.4 499.4 931.2 498.5 939.3 478.5 936.2 475.2 963.1 490.4 965.2 489.4 973.3 474.4 971.2 470.1 1001.7 491.8 1004.3 490.9 1012.4 464.9 1008.7 464.9 1008.7ZM464.9 934.3 467.3 926.7 464.9 926 464.9 934.3ZM464.9 925.9 464.9 934.2 442.5 1005.1 435.6 1003.7 434.4 919 441.3 921.4 441.8 987.3 460.4 925.2 464.9 925.9 464.9 925.9ZM464.9 989 462.3 1008.5 464.9 1008.7 464.9 989 464.9 989ZM412.8 997.8 412.8 967.8 423.8 916.4 430.5 918.1 413.6 998.1 412.8 997.8 412.8 997.8ZM412.8 936.9 418.8 914.3 412.8 912.2 412.8 936.9ZM412.8 912.1 412.8 936.8 397.6 993.4 390.9 991.3 391.4 914 373.1 974.2 373.1 950 387.4 903.1 397.6 907.2 396.6 970.7 412.1 911.9 412.8 912.1 412.8 912.1ZM412.8 967.8 406.6 996.3 412.8 997.7 412.8 967.8 412.8 967.8ZM373.1 926.4 382.6 901.2 376.4 898.1 373.1 906.4 373.1 926.4ZM373.1 906.4 373.1 926.4 360.5 960C359.3 963.1 358.1 965.5 356.2 967.4 354.5 969.6 352.9 971 350.7 971.9 348.8 972.9 346.9 973.3 344.7 973.1 336.8 972.4 333.5 968.3 330.9 961.9 329.9 959.7 329.7 957.1 329.7 954.3 329.7 951.4 330.4 948.6 331.4 945.7L353.5 886.9 359.9 890 337.5 949.3C336.3 952.4 336.3 955.5 337.3 958.6 338.2 961.5 339.9 963.6 341.8 964.6 343.7 965.6 345.8 965.3 348.5 964.1 350.9 962.9 352.8 960.5 354 957.4L373.1 906.4 373.1 906.4ZM373.1 950 363.8 981.4 370.2 984 373.1 974.3 373.1 950Z" fill="#FFFFFF"/><path d="M148.2 599.5C148.4 597.8 148.4 595.9 148.4 594 148.2 593.3 148.2 592.6 148.2 591.9L148.2 599.5 148.2 599.5ZM148.2 779.1 148.2 770.1 163.7 761.8 152 740.8 148.2 742.7 148.2 735.3 186.5 717.5 189.8 724.4 159.6 738.4 170.1 757.9 200.6 742.9 204.9 749.3 148.2 779.1 148.2 779.1ZM148.2 715.6 148.2 707 169.9 698.2 165.1 687.7 171.5 685.1 184.4 713.9 178 716.5 172.8 705.3 148.2 715.6 148.2 715.6ZM148.2 690.1 170.1 682.2 167.5 674.8 148.2 681.7 148.2 690.1 148.2 690.1ZM148.2 660.9 148.2 653.3 159.2 649.7 161.3 656.6 148.2 660.9 148.2 660.9ZM148.2 645.4 148.2 632.8C148.4 632.1 148.4 631.8 148.2 630.7 148.2 630.5 148.2 630.2 148.2 630L148.2 619.5C151.5 621.4 153.9 624.5 155.1 629.3 156.5 636.2 154.2 640 149.6 644.3 149.2 644.7 148.7 644.9 148.2 645.4ZM131.6 612.1C133.3 611.9 135.2 611.6 137.3 610.9 139.2 610.2 141.1 609.2 143 607.8 144.7 606.6 146.1 604.7 147.3 602.3 147.8 601.6 148 600.4 148.2 599.4L148.2 591.8C147.7 589.4 147.3 587.3 146.3 585.6 145.1 583.5 143.7 581.8 142.3 580.6 140.6 579.4 138.5 577.7 136.6 577.3 125.9 575.4 117.8 579.2 110.9 585.1L110.9 595.1C119.9 585.4 129.9 578 138.7 587.5 140.1 588.9 141.3 591.3 141.6 595.1 141.8 596.8 141.6 598.4 140.7 599.6 140 600.8 138.8 601.7 137.6 602.5 136.4 603 135.2 603.4 134 603.7 132.8 603.9 131.9 603.9 130.9 604.2L131.6 612.1 131.6 612.1ZM148.2 619.5 148.2 630C147.7 629.3 147.3 629.3 146.5 628.3 145.8 627.1 144.4 626.2 142.5 625.4 140.4 624.7 137.7 624.2 134.2 624.5 128.5 624.5 119.4 626.2 110.9 628.3L110.9 620.2C120.7 618.1 130.4 617.1 137.3 617.1 141.3 617.1 145.1 617.8 148.2 619.5L148.2 619.5ZM148.2 632.8 148.2 645.4C142.2 649.4 128.7 654.4 118.5 656.8 116.1 657.3 113.7 657.8 110.9 658.2L110.9 650.1C113.5 649.6 115.7 649.1 117.1 648.9 122.6 647.7 134.5 644.1 137.8 642.7 141.1 641.3 143.5 639.6 144.9 638.2 146.6 636.5 147.5 635.1 148 633.7 148 633.3 148 633 148.2 632.8L148.2 632.8ZM148.2 653.3 110.8 665.4 110.8 673.7 148.2 660.9 148.2 653.3 148.2 653.3ZM148.2 681.8 148.2 690.1 110.8 703.2 110.8 694.9 148.2 681.8 148.2 681.8ZM148.2 707 148.2 715.6 110.8 730.8 110.8 721.8 148.2 707 148.2 707ZM148.2 735.4 148.2 742.8 115.4 758.7 111.8 752 148.2 735.4 148.2 735.4ZM148.2 770.1 148.2 779.1 132 787.7 128 781 148.2 770.1ZM110.9 585.2C103.3 591.9 96.9 601.1 90.2 608.3 89.3 609.2 88.1 610.2 86.9 610.7 85.5 611.2 84 611.7 82.1 611.7 79.5 611.9 77.3 611.2 75.7 610.3 73.8 609.1 72.8 607.2 72.6 604.3 72.4 600.7 73.1 597.9 75 595.7 76.9 593.8 80.5 592.6 85.7 592.1L85 584C83.3 584.2 81.4 584.7 79.3 585.2 77.4 585.7 75.3 586.6 73.1 588.1 71 589.5 69.1 591.4 67.6 594.3 66.2 597.2 65.7 600.7 66.2 605 66.4 608.1 67.1 610.5 68.6 612.6 70 614.7 71.7 616.2 73.4 617.1 75.3 618.3 77.2 619 78.9 619.2 80.6 619.7 82 619.7 83.2 619.7 85.6 619.5 87.5 619 88.9 618.7 90.3 618.2 91.7 617.5 93.2 616.6 97 613.7 103.7 603.5 111 595.2L111 585.2 110.9 585.2ZM110.9 620.2 110.9 628.3C103 630.2 95.4 632.6 90.7 634.7 87.6 636.1 85 637.8 83.3 639.2 81.9 640.9 80.9 642.3 80.4 643.7 79.9 645.4 79.9 645.1 80.2 646.6 80.4 648.3 80.7 648 81.6 649.2 82.5 650.4 84 651.3 85.9 652.1 87.8 652.8 90.7 653.1 94.2 653.1 96.8 652.8 104.7 651.4 110.9 650.2L110.9 658.3C100.7 660 88.5 661.2 84 659.5 78 657.6 75 655 73.8 648.1 72.6 641.4 74.3 638.3 79 633.8 85.2 627.8 98 623 110.9 620.2L110.9 620.2ZM110.9 665.4 110.9 673.7 100.4 677.3C97.5 678.2 95.4 680.4 94.2 683.2 93 685.8 92.5 688.4 93.2 690.8 93.9 693.2 95.6 695.1 98 696.3 100.4 697.7 103.2 697.7 106.1 696.5L110.9 694.8 110.9 703.1 108.8 704.1C105.9 705.1 103.6 705.5 101.2 705.3 98.8 705.1 96.7 704.6 94.8 703.4 92.9 702.5 91.2 701 89.8 699.1 88.6 697.4 87.4 695.5 86.9 693.4 86.2 691.3 86 689.1 86.2 686.7 86.2 684.3 86.7 681.9 87.6 679.8 88.8 677.4 90 675.5 91.9 673.6 93.8 671.9 95.9 670.3 98.6 669.3L110.9 665.4 110.9 665.4ZM110.9 721.8 110.9 730.8 103.5 733.7 100.4 726.1 110.9 721.8Z" fill="#FFFFFF"/><path d="M304.8 932.1 304.8 909.7 306.5 911.1 320.1 881.6 304.9 896.4 304.9 886.9 323.9 869.1 331.3 874.3 304.8 932.1 304.8 932.1ZM304.8 868.4 304.8 857.4 306 856.2 312.2 860.7 304.8 868.4ZM304.8 857.4 304.8 868.4 262.9 911 262.9 888.4 283.4 851.8 262.9 872.5 262.9 861.3 284.1 840.6 293.1 848.2 269.3 892.5 304.8 857.4 304.8 857.4ZM304.8 886.9 262.9 925.9 262.9 927.1 268.4 930.9 291.5 908.5 303.2 918.3 290.3 945 297 949 304.9 932.1 304.9 909.7 297.3 903.5 304.9 896.4 304.9 886.9 304.8 886.9ZM262.9 846.2 276.5 834.1 270.8 828.9 262.9 836 262.9 846.2 262.9 846.2ZM262.9 822.4 262.9 821.2 263.6 821.9 262.9 822.4ZM262.9 821.3 262.9 822.5 244.8 838.7 244.8 829.4 258.6 816.8 262.9 821.3 262.9 821.3ZM262.9 836 244.8 852.7 244.8 862.9 262.9 846.2 262.9 836 262.9 836ZM262.9 861.2 262.9 872.4 244.8 890.7 244.8 879 262.9 861.2 262.9 861.2ZM262.9 888.3 247.7 915.4 253.9 920.2 262.9 910.9 262.9 888.3 262.9 888.3ZM262.9 925.9 262.9 927.1 262.4 926.6 262.9 925.9 262.9 925.9ZM244.8 804.6 244.8 802.7 245.7 803.9 244.8 804.6ZM220.3 784.4C221 784.9 221.5 785.6 221.7 786.5 222.4 787.5 222.7 788.6 222.9 789.8 223.1 791 222.9 792.2 222.4 793.6 221.9 794.8 221.2 795.7 220.3 797.2L220.3 807.2C224.6 803.9 227.4 800.3 228.9 796.5 230.6 791.7 230.3 787 227.9 782.2 226 778.6 223.4 776.3 220.3 775.1L220.3 784.4 220.3 784.4ZM244.8 802.7 244.8 804.6 222.2 822.9 234.6 838.6 244.8 829.3 244.8 838.6 220.3 860 220.3 850.7 228.9 843.3 220.3 832.6 220.3 814 240.5 797.8 244.8 802.7 244.8 802.7ZM244.8 852.7 220.3 875 220.3 885 244.8 862.9 244.8 852.7 244.8 852.7ZM244.8 879.1 244.8 890.8 232.4 903.2 225.7 897.5 244.8 879.1ZM203.7 785.8C204.6 785.5 205.4 785.1 206.1 784.8 209.7 783.1 212.3 782.4 214.4 782.2 216.5 782.2 218 782.5 219.2 783.2 219.7 783.7 220.2 783.9 220.4 784.4L220.4 775.1C218.7 774.4 216.6 774.1 214.4 774.4 211.3 774.6 207.7 775.6 203.7 777.3L203.7 785.8 203.7 785.8ZM220.3 797.2C220.1 797.4 219.8 797.7 219.6 797.9 218.2 799.6 216.3 801.2 213.9 802.9L217.2 809.8C218.4 808.9 219.3 808.1 220.3 807.2L220.3 797.2 220.3 797.2ZM220.3 814.1 220.3 832.7 216.5 827.7 203.7 837.9 203.7 827.7 220.3 814.1 220.3 814.1ZM220.3 850.8 220.3 860.1 203.6 874.9 203.6 865.6 220.3 850.8 220.3 850.8ZM220.3 875 220.3 885 216 889 210.8 883.5 220.3 875ZM185.1 823.2C182.3 825.3 179.6 826.8 177.3 827.5 175.1 828.4 173.5 828.7 172.1 828.7 170.7 828.5 169.5 828.2 168.8 827.5 167.8 826.6 167.1 825.8 166.7 824.6 166 823.2 165.8 821.7 165.8 820.3 165.8 818.6 166.3 817 167.5 814.8 168.7 812.7 170.6 810.3 173.5 807.4 181.8 799.1 193 791.2 204 785.8L204 777.2C188.3 784.1 167.4 800.3 161.6 810.7 158.3 816.6 158.3 822.6 161.1 828.5 163.5 833.5 167 836.1 171.8 836.3 176.3 836.5 182 834.4 188.7 829.7L185.1 823.2 185.1 823.2ZM203.7 827.7 203.7 837.9 182.8 854.6 177.6 848.7 203.7 827.7 203.7 827.7ZM203.7 865.5 203.7 874.8 202.7 875.7 197.5 870.7 203.7 865.5Z" fill="#FFFFFF"/><g><path d="M479.7 882.4 479.3 884 458.2 878.5 458.6 876.9 466.7 877.9C467.5 874.9 468.4 871.8 469.2 868.7L474.6 847.9 467.3 846.8 467.8 844.9 480.6 845.1 481.2 845.8 478.9 853.8 474.7 870.1C473.9 873.1 473.2 876.2 472.4 879.3L479.7 882.4Z" fill="#FFFFFF"/></g><g><path d="M508.7 886.3C518 883.2 522.5 878 524 869.9 522.1 871.6 519.7 872.5 516.9 872.4 511 872.2 506.5 867.9 506.7 860.7 507 853.2 512.1 848.8 518.7 849 526 849.2 530.2 855.2 529.9 864.7 529.6 876 522.6 885.1 508.9 888L508.7 886.3ZM524.3 867.6C524.4 866.7 524.5 865.7 524.5 864.7 524.8 855.2 522.3 851.2 518.6 851.1 515.2 851 512.3 853.9 512.1 860.1 511.9 866.4 514.8 869.5 518.9 869.6 520.9 869.6 522.6 869 524.3 867.6Z" fill="#FFFFFF"/></g><g><path d="M576 884.3 576.2 886 553.6 887.9 553.5 886.2 561.8 884.4C561.6 881.1 561.3 877.8 561.1 874.6L559.2 852.4 551.6 853.9 551.4 851.8 564 847.5 564.8 848 565.4 856.6 566.9 874C567.2 877.2 567.5 880.5 567.9 883.8L576 884.3Z" fill="#FFFFFF"/></g><g><path d="M619 869.5C620.4 875.5 616.3 880.8 608.7 882.6 601.2 884.3 595.8 882 594.5 876.2 593.5 871.8 595.8 868.1 600.9 864.3 595.1 862.8 591.9 859.8 590.9 855.5 589.5 849.4 593.7 844.4 600 842.9 606.7 841.3 611.4 844.3 612.6 849.3 613.3 852.4 612.2 856.1 607.4 860.2 614.2 861.8 617.8 864.4 619 869.5ZM605.6 859.9C608.1 856.6 608.7 854 607.9 850.7 607 846.8 604.2 844.3 600.4 845.2 597.1 846 594.7 849 595.6 852.7 596.3 855.8 598.5 858.3 605.6 859.9ZM613.8 871.8C613 868.2 610.3 866.2 602.6 864.6 599.7 867.7 598.6 870.4 599.5 874.1 600.6 879 604.1 881.3 608.6 880.3 612.8 879.4 614.8 876 613.8 871.8Z" fill="#FFFFFF"/></g></g></g></g></svg>