<svg viewBox="0 0 1080 244" xmlns="http://www.w3.org/2000/svg" xmlns:xlink="http://www.w3.org/1999/xlink" id="图层_1" xml:space="preserve" overflow="hidden"><g><g><g><path d="M1040.6 35.2C1041.1 34.2 1040.8 33 1040.6 31.7L1040.6 19.3C1049 19.1 1052.2 22.5 1056.5 28 1055.5 34.7 1049.6 37.2 1045.9 41.4 1044.2 43.1 1043.2 45.4 1041.4 46.8 1041.2 47 1040.9 47.3 1040.7 47.5L1040.7 35.2 1040.6 35.2ZM1040.6 56 1040.6 67.6C1041.1 67.8 1041.6 68.1 1041.8 68.3 1044.5 70 1042.8 75.5 1042 77.7 1041.5 77.7 1041 77.7 1040.5 77.7L1040.5 88.6C1040.5 88.4 1040.7 88.4 1040.7 88.1 1040.9 87.1 1041.2 86.4 1041.2 85.4 1042.2 84.2 1043.7 83.7 1044.7 82.4 1045.4 81.9 1044.9 80.7 1045.7 79.7 1046.2 79 1047.4 78.2 1047.9 77.2 1048.4 76.2 1048.9 73.7 1049.4 73 1049.9 72.3 1050.9 71.5 1051.1 70.8 1052.3 67.6 1046.9 65.8 1047.6 63.4 1048.1 62.2 1050.3 61.7 1051.1 59.9 1055.8 59.9 1057.3 56.7 1061.7 57.7 1062.2 57.9 1062.2 58.2 1062.4 58.4 1062.6 63.6 1058.4 66.8 1056.2 70.3 1055.7 71.3 1055.7 72.8 1055 73.5 1054.3 74 1053.5 74 1053 74.7 1052.5 75.7 1052.3 77.2 1051.5 77.9 1050.8 78.9 1049.5 79.4 1048.8 80.4 1047.6 81.9 1047.8 84.1 1046.3 85.4 1046.3 85.6 1046.3 85.6 1046.3 85.9 1045.8 87.6 1045.6 91.1 1044.3 92.3 1043.6 93 1042.1 92.8 1041.1 93.3 1040.9 93.5 1040.6 93.8 1040.4 93.8L1040.4 101C1041.6 101 1042.9 101 1043.6 101.2 1043.6 101.9 1043.6 102.7 1043.6 103.2 1042.9 104.7 1041.6 105.9 1040.4 107.2L1040.4 113.6C1040.9 112.9 1041.4 111.9 1041.9 111.4 1042.4 111.4 1042.6 111.4 1043.1 111.2 1044.1 110.7 1044.6 109.2 1045.6 108.5 1046.6 107.5 1048.1 107 1049.6 106 1050.1 105.5 1050.6 104.8 1051.1 104.3 1052.3 103.6 1053.3 103.6 1054.6 102.8 1055.1 102.3 1055.6 101.8 1056.1 101.1 1056.6 100.9 1057.3 100.9 1057.8 100.6 1059 99.6 1059.5 98.1 1060.8 97.1 1060.8 89.9 1056.3 88.2 1051.4 85.5 1051.6 85 1052.9 81.3 1053.4 80.8 1053.9 80.1 1055.1 80.1 1055.6 79.1 1056.1 78.1 1055.6 77.1 1056.3 76.4 1058 74.9 1060.3 74.2 1061.5 72.4 1061.5 71.9 1061.5 71.7 1061.5 71.2 1062.5 70 1064.5 69.2 1065.5 68 1065.5 67.8 1065.5 67.5 1065.5 67.3 1066.2 66.3 1067.5 66.8 1068.2 66.1 1069.4 65.4 1069.9 63.4 1070.9 62.4 1072.4 61.4 1074.4 61.2 1075.4 59.7 1078.6 55.2 1073.9 49 1071.4 47.1 1067.4 43.6 1065 47.3 1062.2 48.3 1061 48.5 1059.7 48.8 1058.7 49.3 1055.2 50.8 1048 59 1042.6 57.7 1041.9 57.2 1041.4 56.5 1040.6 56L1040.6 56ZM1040.6 119.6C1041.3 119.1 1041.8 118.9 1042.1 118.9 1043.1 118.7 1044.1 118.7 1045.3 118.4 1052.2 115.7 1055.9 120.9 1057.2 126.1 1056.7 126.3 1056.2 127.1 1055.7 127.3 1054.7 127.3 1054 127.3 1053.2 127.3 1052.2 127.8 1051 128.8 1050 129.3 1048.8 129.8 1047.3 129.3 1046.5 129.8 1046.7 130.8 1043.3 133 1042 133 1042 133 1042 133 1042 132.8 1041.5 132.6 1041 132.1 1040.5 131.6L1040.5 131.6 1040.5 130.6C1040.5 130.1 1040.7 129.9 1040.5 129.6L1040.5 119.6 1040.6 119.6ZM1040.6 149.1C1040.8 149.3 1041.1 149.8 1041.3 150.1 1042.3 152.1 1041.1 161.7 1040.6 164L1040.6 149.1ZM1037.2 85.5C1034.5 85.3 1033 83.8 1030.3 84.5 1030.3 85.5 1029.6 86.5 1028.8 87.2L1028.8 70.4C1031 69.4 1032.8 67.7 1033.8 66.2 1033.6 66 1033.6 65.5 1033.6 65.2 1031.9 64.5 1031.1 63.7 1028.9 63.2L1028.9 53.8C1029.4 53.8 1029.6 53.6 1029.9 53.3 1031.1 52.3 1031.4 50.1 1032.4 48.6 1034.6 44.1 1038.1 39.7 1040.8 35.5 1040.8 35.3 1040.8 35.3 1040.8 35.3L1040.8 47.7C1038.6 49.4 1035.6 51.2 1035.6 54.4 1036.1 54.6 1036.1 55.1 1036.3 55.4 1037.8 55.6 1039.3 55.9 1040.8 56.1L1040.8 56.1 1040.8 67.7C1040.6 67.7 1040.3 67.7 1040.1 67.7 1039.6 68.4 1038.9 68.4 1038.6 68.9 1037.6 70.1 1038.1 77.1 1038.8 77.3 1039 78 1038.8 77.8 1039.5 77.8 1039.7 78 1040.2 78 1040.7 77.8L1040.7 88.7C1039.7 89.7 1038.2 90.9 1037.2 91.9 1037.2 91.9 1037 91.7 1036.7 91.7 1036.2 91.5 1036 91.2 1036 90.2 1036.7 88.4 1037.4 87.4 1037.2 85.5L1037.2 85.5ZM1040.6 31.7C1040.1 30 1038.9 28.2 1038.6 27.5 1038.6 27.5 1038.1 22.1 1038.1 21.1 1038.8 20.9 1039.6 20.1 1039.8 19.4 1040 19.4 1040.3 19.4 1040.5 19.4L1040.5 31.7 1040.6 31.7ZM1040.6 113.7C1040.4 113.9 1040.4 113.9 1040.1 114.2 1039.4 114.7 1039.1 114 1038.6 114.7 1038.1 114.9 1038.6 114.7 1038.1 115.4 1036.4 117.9 1032.2 117.4 1032.4 121.6 1032.6 121.6 1032.9 121.6 1033.1 121.6 1033.8 122.3 1038.1 120.6 1040.5 119.6L1040.5 129.5 1040.5 129.3C1038.8 129.3 1037.3 129.3 1035.8 129.3 1035.6 129.8 1035.3 129.5 1035.3 130.3 1034.6 132.8 1037 136.2 1037.5 138.5 1038.2 140.5 1037.7 142 1038.5 143.9 1038.5 144.1 1039.2 144.6 1039.5 144.9 1040 146.1 1039.5 146.9 1040 148.1 1040 148.6 1040.2 148.8 1040.5 149.1L1040.5 164C1040.5 164.2 1040.5 164.2 1040.5 164.5 1039.5 168 1041 171.7 1038.3 173.4 1036.3 175.4 1030.9 174.6 1028.6 173.2L1028.6 173.2 1028.6 162.8C1029.6 162.1 1031.1 159.8 1031.6 160.1 1031.6 158.4 1032.3 154.9 1032.8 153.2 1033.5 150.7 1032.1 149.5 1031.6 148.2 1031.6 146.7 1031.6 145.2 1031.6 143.5 1030.9 141.3 1030.4 138.1 1029.6 136.1 1029.4 136.1 1029.1 136.1 1028.6 136.1L1028.6 119C1029.6 118.5 1030.3 118.3 1030.8 117.5 1032 115.8 1033 114 1034.5 112.3 1036 110.6 1038.5 109.1 1040.4 107.3L1040.4 113.7 1040.6 113.7ZM1040.6 131.5 1040.6 130.5C1040.6 130.8 1040.4 131.3 1040.6 131.5L1040.6 131.5ZM1040.6 101.1C1040.4 101.1 1040.1 101.1 1039.9 101.1 1039.7 101.1 1039.7 101.1 1039.7 101.1 1039 101.8 1038.2 102.6 1037.2 103.3 1036.5 103.3 1035.7 103.3 1034.7 103.3 1033 104 1031 105.3 1029.3 106 1029.3 106.2 1029.1 106.2 1028.8 106.2L1028.8 100.5C1029 100.5 1029.3 100.5 1029.5 100.3 1031.2 99.3 1033 97.6 1035 96.6 1035.7 96.6 1036.5 96.4 1037.2 96.1 1038.4 95.6 1039.7 94.6 1040.7 93.9L1040.7 101.1ZM1028.7 87.2C1027.5 88.4 1025.7 89.4 1024 89.7 1023.8 88.7 1023.3 88.7 1023.3 87.5 1024.3 86.3 1025.5 83.8 1025.5 82.3 1024.5 81.8 1023.8 81.6 1022 81.6 1021.5 84.1 1019.3 85.3 1017.8 86.8 1017.6 87.3 1017.1 87.8 1016.8 88.3L1016.8 80C1017 80 1017.3 80 1017.3 80 1018.3 79.5 1019 78.5 1019.5 77.8 1019 76.1 1018.5 75.3 1017 75.1 1016.3 71.1 1019.5 67.2 1021.7 65.7 1021.5 65.2 1021.5 64.7 1021.5 64.2 1020.3 64 1019.3 63.5 1017.5 63.5 1017.3 63.5 1017 63.7 1016.8 63.7L1016.8 58.7C1017.3 58.5 1017.8 58.2 1018 58 1019.2 57.8 1020.5 57.8 1021.7 57.5 1022.4 57.3 1022.7 56.3 1023.4 56 1025.6 55 1027.1 54.8 1028.6 53.8L1028.6 63.2C1028.4 63.2 1027.9 63.2 1027.1 63.2 1026.1 65.4 1023.9 67.2 1023.9 70.1 1024.1 70.3 1024.1 70.6 1024.4 70.8 1025.9 71 1027.4 70.8 1028.6 70.3L1028.6 87.2 1028.7 87.2ZM1028.7 173.1C1028 172.6 1027.5 171.4 1026.5 170.9 1024 169.7 1021.3 169.7 1019.3 168.2 1018.8 167.7 1017.6 167 1016.8 166.2L1016.8 164.5C1018 163.5 1025 163 1025.7 162.8 1026.7 162.8 1027.7 162.8 1028.7 162.8L1028.7 162.8 1028.7 173.1 1028.7 173.1ZM1028.7 136C1023 135.5 1020.3 138.5 1016.8 141L1016.8 129.4C1017 129.2 1017.3 129.2 1017.3 128.9 1019.3 127.7 1025.2 126.4 1026.2 124.7 1026.7 123.7 1026.2 122.5 1026.9 121 1027.1 120 1027.9 119.5 1028.6 119L1028.6 136 1028.7 136ZM1028.7 106.3C1027.7 106.8 1026.7 106.3 1025.7 107 1024.5 108.2 1023.2 110.5 1021.7 111.2 1020.2 111.2 1018.7 111.2 1017.2 111.2 1017.2 111.4 1017 111.4 1016.7 111.4L1016.7 106.4C1019.9 104.9 1022.9 103.2 1025.6 101.2 1026.6 100.7 1027.8 101 1028.6 100.5L1028.6 106.3ZM1016.8 88.2C1014.8 91.7 1013.3 97.4 1007.6 96.6 1007.1 95.6 1006.6 94.6 1005.9 93.6 1005.4 93.4 1005.2 93.1 1004.7 92.9 1003.2 90.9 1003 87.5 1001.5 85.5 1000.5 84.3 999 83.3 998 82.3 997.8 79.6 998 77.3 1001.5 77.3 1002.7 78.8 1004.2 79.8 1006.9 79.5 1007.1 79.3 1007.4 79.3 1007.6 78.8 1009.8 75.8 1007.8 70.4 1005.4 67.4 1005.4 66.4 1005.2 65.2 1005.2 64.2 1004.5 63.7 1004 63.5 1003.2 63.2 1002.7 62.7 1000 58.7 1000 57.5 1000 57.3 1000.2 56.8 1000.5 56.5 1001.5 56 1001.7 55.5 1003 55.5 1006.2 56.5 1006.7 60 1009.9 61.2 1011.6 61.7 1014.9 60 1016.8 58.7L1016.8 63.7C1015.3 64.2 1013.3 63.5 1012.1 65.9 1011.1 68.6 1015.6 79.5 1016.1 79.8 1016.3 80 1016.6 80 1016.8 80L1016.8 88.2 1016.8 88.2ZM1016.8 166.2C1016.3 165.7 1016.1 165 1016.8 164.5L1016.8 164.5 1016.8 166.2 1016.8 166.2ZM1016.8 140.9C1016.8 140.9 1016.6 140.9 1016.6 141.1 1015.4 141.8 1013.9 141.1 1012.6 142.3 1008.6 145.8 996 152 988.6 149.2 988.4 148.2 987.6 147.5 987.6 146.2 988.3 145.5 988.8 144.2 989.6 143.2 992.6 143 995.8 141 997.8 139.5 999 138.8 1000.5 139.3 1001.5 138.5 1002.7 137.5 1004 136 1005.5 135.3 1008.5 133.6 1012.2 133.1 1014.9 131.3 1015.6 130.8 1016.4 129.8 1016.9 129.1L1016.9 140.9 1016.8 140.9ZM1016.8 111.5C1014.3 112.2 1010.4 113.2 1010.4 109.5 1012.6 108.5 1014.9 107.5 1016.8 106.5L1016.8 111.5Z" fill="#004097"/><path d="M352.9 11.4C353.1 11.4 353.4 11.4 353.6 11.4 353.6 11.2 353.8 10.9 353.8 10.7 354.5 9.5 355.8 9.2 358 9.5 358.7 10.5 362.7 12.2 361.7 14.7 361.9 15.9 361.7 17.2 361.2 17.9L361.2 18.1C361 19.1 361.4 20.1 361.4 20.6 361.4 21.6 360.4 22.6 360.2 23.6 359.7 25.1 360.2 27.8 360.2 28.8 360.9 28.8 361.9 28.8 362.7 28.8L368.1 25.1C369.1 24.6 370.3 24.9 371.1 24.1 372.1 23.4 372.8 21.4 374.1 20.6 374.8 20.1 376.1 20.1 376.8 19.4 378 18.4 379 16.7 380 15.4 380.7 15.2 381.2 14.9 382 14.7 384 13 386 9.5 388.2 8 391.2 6 393.9 7.8 396.1 9.5 396.8 10 398.1 10 398.3 10.7 400.3 14.4 391.9 17.1 390.4 18.4 388.4 19.6 386.2 20.9 384.5 22.1 384 22.6 383.8 23.1 383.3 23.6 381.3 24.6 378.3 24.8 376.4 26.1 375.7 26.6 374.9 27.3 374.2 27.8 373.2 28 372.2 28.3 371.2 28.3 366.7 30.8 363.3 33.5 357.6 34.7 357.1 36.4 356.1 38.4 355.1 40.1 354.6 40.8 354.9 43.6 353.6 45.3 353.6 46.3 353.6 47.5 353.6 48.5 352.6 51.2 351.6 54.2 351.9 57.9 352.6 58.1 352.6 58.4 353.6 58.4 358.6 56.4 361.8 54.7 363.5 49.5 364.7 49.5 364.7 49.3 365.7 48.8 367.2 49.3 368.4 51.3 371.1 50.5 372.3 50 379.5 41.1 380 39.6 381.2 36.6 381 34.6 383.2 32.9 384.2 33.1 385.2 33.1 386.2 33.4 386.9 34.1 387.4 34.9 388.2 35.6 388.7 37.3 388 40.1 388.2 41.3 388.4 41.5 388.9 41.5 389.2 41.8 389.9 41.1 397.4 37.3 400.3 38.6 401.5 39.3 403 40.3 403 42.3 400.8 43.8 397.3 45 395.1 46.8 394.4 47.3 392.9 46.6 391.9 47 389.9 48 387.2 49 385.5 50 384.3 50.2 383 50.2 381.8 50.5 380.6 51 376.8 52.5 375.9 53.2 370.9 56.9 369.5 64.3 365 67.8 365 70 363.5 74.7 364.3 76.2 364.5 76.7 364.8 76.9 365 77.2 369 77.2 371.9 74.2 374.7 73 376.4 72.3 378.4 72.5 380.1 71.5 381.1 71 382.3 70 383.3 69.8 384.3 69.6 385.3 69.6 386.3 69.3 388.8 67.6 391.7 65.8 394.2 64.1 395.2 63.4 399.6 64.1 401.4 64.1 401.6 64.8 403.1 65.6 403.6 65.8 403.6 66.3 403.6 66.8 403.6 67.3 402.6 68 401.4 69 400.4 69.8 399.2 70 397.9 70.3 396.7 70.8 396 71 395 71.8 394.5 72.3 394 72.3 393.5 72.3 393 72.3 391.5 72.8 389.3 73.8 387.8 74 387.1 74 386.3 74 385.6 74 382.9 75.5 379.4 77.5 376.4 78.7 371.9 80.4 365.3 80.7 362.8 84.1 360.3 87.1 361.1 96.2 359.6 100.2 359.6 101.2 359.6 102.2 359.6 103.4 359.8 103.9 360.1 104.1 360.3 104.6 362.8 104.6 370.2 102.9 371.7 104.1 372.9 104.8 374.2 106.1 375.4 106.6 375.4 112.5 369.2 113.5 365.5 116 364.8 116 364.3 116 363.5 116 362.3 116.5 360 117.5 359 118.7 358 120.9 360.2 123.4 359.5 126.1 358.5 129.1 359.7 132.8 360.2 135.5 360.4 137 360.7 143.9 360.4 145.4 360.4 146.4 360.4 147.1 360.2 147.9 360.9 149.6 361.2 150.9 360.7 152.9 359.5 158.1 362.9 162.6 356 162.3 354.8 160.6 354 159.1 353 156.9 352 156.7 351.8 156.9 350.3 157.1 350.1 156.1 349.8 155.1 349.3 154.1 347.6 151.9 346.1 151.9 346.1 147.4 353.8 143.7 352.5 132 351.8 123.4 351.3 123.2 351.3 123.2 350.6 122.9 346.9 121.2 341.4 128.1 340.4 130.6 337.7 130.8 335.4 130.4 333 130.1 332.5 128.6 331 127.6 330 126.4 330 117.2 342.6 115.3 348.3 111 350.3 109.8 352.5 110 353.5 107.8 353.5 106.3 353.5 105.1 353.5 103.6 354.2 99.4 356.5 87 352.3 86.8 351.8 87.3 350.8 86.6 349.8 87.3 348.1 88 346.6 89.5 345.1 90.5 344.6 90.5 343.9 90.5 343.1 90.5 342.4 90.7 342.1 91.7 341.4 92.2 340.4 93.2 338.7 92.9 337.7 93.7 337.5 94.2 337 94.7 336.7 95.2 335.7 95.7 334.7 95.4 334 95.9 331.3 97.9 328.8 100.4 326.3 102.3 326.1 102.3 325.6 102.3 325.3 102.3 324.3 102.8 320.3 106 319.6 106.8 318.9 107.5 319.1 109 318.4 110 316.7 112.7 314.4 114.7 311.7 116.7 309 118.9 303.3 117.9 301 119.2 301 119.9 300.8 120.4 300.8 120.9 298.6 121.1 294.1 120.2 293.4 118.7 292.9 118.5 290.9 114.2 290.9 113.5 291.9 113.3 292.6 112.5 293.4 112 293.9 112 294.6 112 295.4 112 295.9 111.5 296.4 110.3 297.1 109.8 297.6 109.8 298.1 109.8 298.6 109.8L298.8 108.8C299.8 108.3 300.8 108.8 301.8 108.3 302.3 108.1 302.3 107.1 302.5 106.8 303.7 105.8 306.5 106.3 307.9 105.6 308.6 105.1 309.4 104.1 310.1 103.6 311.1 103.1 313.3 103.1 314.3 102.4 314.5 102.2 314.5 101.4 314.8 101.2 315.3 101 317.5 100.7 318.3 100.5 320 99.8 321.5 98 323 97.3 324 96.6 325.2 97.1 326.2 96.6 326.4 95.9 326.7 95.4 327.2 94.9 327.7 94.4 328.7 94.7 329.4 94.2 331.1 93.2 333.1 91 334.8 90.2 339.5 88 344.2 87 348.7 84.5 349.9 83.5 353.4 83.5 354.2 82.3 355.7 81.6 354.9 80.1 355.4 78.3 356.1 76.3 359.4 64.9 358.6 62.9 358.4 62.7 357.9 62.2 357.4 61.9 349 63.4 350.2 66.4 346 71.8 344.8 71.6 344.5 70.8 343.5 70.3 342.3 70.5 340.8 70.5 339.3 70.8 338.6 72.3 335.6 74.8 334.1 75.5 333.4 75.7 331.4 75.3 330.4 75.5 329.7 74 327.9 73.8 327.7 71.5 329.7 70.5 331.4 68.3 333.1 67.3 333.6 67.3 334.1 67.3 334.6 67.3 336.1 66.8 338.1 65.8 339.3 65.1 339.8 64.6 342.8 63.1 342.8 63.1 344.8 58.9 345.3 53.9 347 49.5 347.5 47.8 350.7 39.8 350 38.6 350 38.4 349.8 38.1 349.8 37.9 347.6 38.1 346.6 36.9 344.6 36.9 344.1 35.2 343.9 35.4 344.4 33.4 347.9 33.2 348.6 33.2 351.3 31.7 351.3 30 352.5 27.7 351.3 26.5 350.6 25.3 346.8 23.5 347.6 21.1 347.8 19.9 348.3 17.1 349.1 15.9 350.1 14.4 352.4 13.4 352.9 11.4Z" fill="#004097"/><g><path d="M660.2 46.8C660.2 46.3 660.2 46.1 660.2 45.8 664.4 44.3 671.1 33.4 675.8 35.6 678 36.8 680.3 42.5 682.5 43.3 682.5 43.8 682.7 44.5 683 45 682 47.5 679.3 49.2 678 51.2 678 51.7 678 52.2 678 52.7 676 56.2 673.3 59.6 671.1 62.6 670.9 63.8 670.9 65.1 670.6 66.3 669.9 67 669.4 67.8 668.6 68.5 666.9 72.5 665.4 76.9 662.7 80.1 661.2 81.6 661.5 84.3 660.5 86 658.5 89 655.1 89.5 653.1 92.2 652.4 93.4 652.6 103.8 652.9 105.1 653.1 105.3 653.4 105.3 653.6 105.6 658.3 106.6 660.3 103.1 663 107.8 663.5 108.5 664.2 108.8 663.7 110 663.5 110.5 662.5 110.5 662.2 111 661.2 112.5 661.7 114.5 660.7 116 660.2 116.5 658.5 116.7 658 117.5 657 118 657 119.2 656.5 120 656 120.2 655.5 120.5 655 120.7 654.3 121.7 651 126.1 651 127.4 651 128.4 652 129.1 652.2 129.9 653.4 130.1 654.7 130.1 655.9 130.1 657.4 129.6 666.1 125.1 667.3 127.6 669 128.6 670.8 132.1 671.3 134.3 668.8 137 664.6 136.3 661.1 137.8 659.6 137.8 658.4 137.8 656.9 137.8 654.4 138.8 651.7 140.5 648.2 140.5 647.5 138.8 644 139.8 643 138 638.8 134.5 646 126.9 647 124.4 647.5 122.9 648.2 119.7 647 118.5 646.5 118.3 645.5 118.5 645 117.8 644.5 117.6 642 114.3 642 113.8 643.5 112.6 645.2 110.6 647 109.8 647.2 107.3 647 103.1 647 100.4 645.3 99.9 643.3 96.7 642.3 95.2 642.3 88.8 650 87 649.7 80.1 647.5 79.4 645.7 78.1 643.5 77.1 643.7 74.6 649.7 74.4 651.4 72.1 653.1 68.1 650.4 61.7 653.9 60.2 654.4 60.2 655.1 60.2 655.6 60.2 656.3 61.2 656.8 60.9 656.8 62.9 655.1 65.4 655.8 67.9 655.8 70.8 656.5 71 656.5 71.5 657.3 72 657.8 72 658.5 72 659 72 660 69 663 66.1 664.7 63.8 666.9 60.8 668.7 55.6 670.4 52.2 671.6 50 673.6 49.2 673.6 45.8 673.1 45.6 672.6 44.6 672.4 44.1 670.2 44.3 667.9 44.3 665.7 44.6 664.5 48.1 663 46.3 660.5 47.8 659 48.8 657.5 50.5 656.3 51.8 655.8 51.8 655.6 51.8 655.3 51.8 652.6 53.5 649.1 55.5 646.4 58 645.2 59 642.9 62.2 641.2 62 641 63.5 639.5 64.5 639.7 66.5 639.7 68 639.2 80.9 637.7 82.1 637 82.1 636.2 82.1 635.5 82.1 635 80.9 634 80.9 633.5 80.1 633.5 76.4 633.5 72.9 633.5 69.2 632.5 68.5 633.7 65.5 633 64 632.5 62.8 630.5 59.3 632.5 58.1 634.5 57.4 636.2 59.6 637.5 60.3 638.2 60.3 639.2 60.3 640.2 60.3 640.9 59.1 641.9 59.1 642.9 58.3 644.1 57.6 644.6 56.1 645.9 55.1 646.4 55.1 647.1 54.9 647.6 54.6 649.1 53.6 650.3 52.1 651.8 51.1 653 50.4 654.3 50.6 655.3 49.9 656.7 48.8 657.7 46.8 660.2 46.8Z" fill="#004097"/><path d="M618.8 54.3C620 54.3 620.5 54.5 621.5 55 621.7 55.5 623 57.5 622.5 59 621 61.5 620 64.9 618 67.4 617.8 69.6 617.5 71.9 617.3 74.1 615.8 78.6 615.3 84.5 615.3 90.2 617.8 91.2 617.5 93.2 619.3 94.9 621 94.9 621 93.9 622.5 93.7 622.7 93.7 623 93.9 623.2 93.9 623.2 97.1 621.2 102.1 620.2 104.1 620 104.3 618.5 106.8 619 107.1 618.3 107.8 617.3 108.6 616.3 109.6 616.3 110.1 616.3 110.8 616.1 111.6 615.9 112.3 614.9 113.1 614.4 113.8 613.7 115 614.2 116.8 613.7 118 612.2 121 610.7 121.5 611 125.7 610 126.4 610 127.2 609.3 128.2 607.1 131.2 604.1 131.9 598.6 131.7 597.9 130.7 596.6 129.5 596.4 128 596.2 126 597.9 124.5 598.6 123.3 599.1 122.3 598.8 121.6 599.3 120.6 601 117.6 606.5 109.5 606.5 106 605 105.5 603.3 104.5 601.8 104.5 600.6 105.2 599.1 105.5 596.6 105.5 596.1 104.3 595.1 104.3 595.1 102.5 598.1 97.8 605.5 96.8 608.2 92.1 609.9 89.4 607.5 84.4 608.9 80.5 609.1 79.3 609.6 72.1 609.1 71.6 608.9 70.1 606.9 70.4 605.1 70.6 601.9 72.3 595.9 71.6 594.9 68.1 598.1 64.9 603.1 63.9 606.8 61.4 607.8 60.7 608.8 59.2 610 58.7 612.7 57.5 617.1 56 618.8 54.3Z" fill="#004097"/></g><path d="M761 77.3C760.8 75.3 756.8 66.9 758.8 65.9 759 65.7 759.5 65.2 759.8 65.2 761 64.2 763 65.9 763.8 65.9 765.3 66.4 771.7 65.4 773.5 65.2 775.7 64.7 777.7 64 780.7 63.5 784.4 63 789.1 63.5 792.6 62.8 794.1 62.3 795.1 63.3 796.1 63 797.1 63 798.1 63 799.3 62.8 801.3 63.8 805 66.8 805.2 69 804 70.2 804.5 73.5 803.5 74.4 802.5 75.6 800.8 76.6 799.5 77.6 798.8 78.8 798 80.1 797.3 81.1 793.8 84.1 791.1 87.5 788.1 90.8 787.1 91.8 785.4 92.3 784.4 93.5 784.2 94 784.4 94.7 783.9 95.5 783.2 96 782.4 96.2 781.4 96.7 781.2 97.4 780.9 97.9 780.7 98.7 780.2 99.2 779.5 98.9 779 99.2 777.5 100.2 777.3 103.9 777.5 105.4 778.7 105.6 780.5 106.6 782.7 105.9 783.9 105.4 788.9 101.9 790.6 104.9 793.3 105.9 792.8 109.4 791.8 111.3 788.8 111.5 785.6 113.5 782.9 114.3 781.7 114.3 780.4 114.3 779.2 114.3 775.7 115.3 771.3 115.3 767.8 116.5 766.3 117.2 764.6 119 763.1 120 761.9 120.5 760.6 120.2 759.4 121 757.7 122 755.7 123.7 753.7 124.7 752.7 125.2 751.7 124.7 751 125.2 750.5 125.7 750 126.4 749.8 126.9 749.1 127.4 748.1 127.6 747.3 128.1 746.6 128.6 746.3 129.6 745.8 130.3 745.3 130.8 741.8 132 740.8 132.8 738.8 131.6 736.3 132.3 733.9 132.1 732.9 128.6 730.7 130.6 728.5 129.9 728 129.7 724.3 125.7 724 125.2 724 124.2 724 123 724 122 724.5 121.3 728.7 119.3 729.7 119.5 729.9 119.5 731.7 120.2 732.4 120 736.6 117.8 742.1 117 746.3 115.3 748 114.6 751 112.8 752 112.3 753.2 112.1 754.2 111.8 755.5 111.8 758 110.6 760.9 109.3 762.7 107.6 764.7 105.4 765.4 101.9 767.2 99.2 769.7 95.5 773.9 92.3 777.1 88.8 777.3 88.1 777.6 87.3 777.8 86.3 780 83.8 788.7 76.9 788.7 73.2 787.2 72.7 786.2 71.7 784.2 72 783.7 72.5 779.7 72.2 777.8 72.7 775.1 73.7 766.2 79.9 763.2 78.6 762.7 78.4 762.7 78.4 762.5 78.1 761.7 77.8 761.3 77.5 761 77.3Z" fill="#004097"/><g><path d="M899.2 43.4C900.4 43.6 903.2 44.4 904.2 45.4 904.9 45.9 905.2 47.6 905.9 48.1 907.9 49.3 909.9 49.3 911.1 51.3 911.1 54.8 910.9 56.7 909.9 59 909.2 60.2 909.7 65.4 910.1 65.9 910.3 66.4 909.9 67.9 909.9 68.9 911.6 69.6 912.1 69.9 914.9 69.9 915.1 69.9 915.1 69.9 915.1 69.9 915.8 70.6 916.8 70.6 917.1 72.4 917.8 73.1 916.6 76.9 916.1 77.4 913.9 80.1 909.9 81.4 907.2 83.1 905.7 84.1 904.7 86.1 903.7 87.6 903.5 88.6 903.2 89.6 902.7 90.8 902.5 91.3 901.2 91.5 901 92 900.8 93.2 900.5 94.2 900.5 95.5 899.3 97.5 897.5 100 896 101.9 894.8 103.9 895 107.1 893.8 109.1 893.8 109.1 889.8 113.1 889.6 113.3 888.9 113.5 888.4 113.5 887.6 113.8 885.4 115.3 884.6 118.8 882.4 120.5 881.7 120.7 880.7 121 879.7 121.5 879.5 121.7 879.5 122 879.2 122.2 878.7 122.2 878.2 122.2 877.7 122.2 877 122.9 876.2 124.7 875.2 125.2 874.2 125.7 873.5 125.4 872.5 126.2 869.3 128.4 864.6 133.6 860.4 133.6 859.7 136.3 857.4 135.3 855.4 136.8 854.4 137.8 853.4 139.3 852.2 140.3 851.5 140.8 850.2 140.8 849.7 141.3 848.2 142.8 846.5 145.5 844.7 146.5 843.5 146.5 842.5 146.5 841.5 146.5 841 146 840.8 145.5 840.5 145.3 840.5 145.1 840.5 144.8 840.5 144.6 842.5 143.1 844.2 140.9 846.2 139.4 847.7 137.9 849.7 137.4 851.4 136.2 851.9 135.7 852.1 134.5 852.6 134.2 853.3 134 853.8 134 854.6 133.7 855.6 133 856.8 131.7 857.8 131 858.3 131 858.8 131 859.3 131 860 130.5 860.5 129 861.3 128.5 862 128.5 862.5 128.3 863 128 864 127.5 864.5 125.8 865.5 125.3 866.7 124.6 868 123.8 868.7 122.8 869.2 122.3 869.2 121.3 869.9 121.1 876.3 117.1 886 109.7 887 100.5 886.8 100.3 887 100.5 886.8 100.3 884.6 100.3 883.8 101 882.3 101.5 877.6 103.2 873.1 102.2 870.2 99.8 868.7 98.6 867.5 99.1 867.2 96.3 865.2 93.3 873.4 90.4 875.4 89.4 876.9 89.2 878.4 88.7 880.1 88.4 881.6 87.9 882.6 86.4 884.1 85.7 886.1 84.7 888.6 84.5 890.5 83.2 891.5 82.5 891.7 80.7 892.7 80 893.7 79.3 895.4 79.3 895.9 78 895.9 75.8 895.9 73.5 895.9 71.3 896.1 70.6 897.4 60.9 897.1 59.7 896.9 59.7 895.9 48.1 895.9 48.1 896.6 47.1 897.1 45.1 897.6 44.1 898.7 43.9 898.7 43.9 899.2 43.4Z" fill="#004097"/><path d="M903.2 101.8C904.4 101.8 905.2 101.6 905.7 102.5 906.7 103 906.7 104 907.4 104.7 908.9 105.9 910.6 107.2 911.9 108.4 912.4 109.9 913.1 111.4 913.6 112.6 914.3 113.3 915.1 113.8 916.1 114.6 916.3 114.8 916.1 115.3 916.3 115.6 919.8 118.1 924 120.1 927.4 122.5 928.1 123.2 929.1 122.5 930.1 123 931.6 124 933.8 125.2 934.8 126.5 934.8 128.2 934.8 129.7 933.8 130.2 932.1 131.7 926.4 129.5 925.1 129.5 924.1 129.5 923.6 130.5 922.9 130.7 920.9 131.7 917.9 131.4 916 131.2 915 128.5 913.3 127.7 911.8 126 910.8 124.3 910.1 120.8 909.3 118.8 907.6 113.9 901.7 107.8 903.2 101.8Z" fill="#004097"/></g><g><path d="M456.9 76.8C457.1 77.3 454.7 74.1 453.4 73.6 452.2 73.1 452.4 72.4 451.7 71.1 450.5 69.4 448.7 70.4 448.7 66.9 449.7 66.4 449.9 65.7 450.9 65.2 454.4 64.2 457.8 65.7 460.6 64.2 461.1 64.2 461.6 64.2 462.1 64.2 463.3 63.2 465.3 62.5 466.8 62 467.5 62 468.3 62 469 62 474.2 58.8 480.6 57 485.1 53.8 485.8 53.8 486.3 53.8 487.1 53.8 488.6 52.8 494.3 49.8 495 48.6 496 47.1 495.7 44.6 496.5 42.7 498.5 38.7 499.5 32.8 498.5 27.8 499.2 27.3 499.2 26.3 500.2 25.8 500.7 27.3 505.6 29.5 506.9 31 507.1 32.2 507.4 33.2 507.9 34.5 508.1 35.5 510.9 39.5 511.6 40.2 514.6 40.2 516.6 39 519 38.7 519.2 39.4 520 39.9 520.5 40.4 520.5 41.1 520.5 41.6 520.5 42.4 517 44.4 517.5 48.8 514.8 50.8 513.8 51.8 509.6 54 508.4 54.5 507.2 55.2 505.7 55 504.4 56 503.4 57.2 500.4 62.2 499.4 63.7 499.2 64.4 498.9 65.2 498.9 65.9 495.4 70.4 487 76.3 487 83.2 487.2 83.4 487.5 83.7 487.7 83.9 491.4 83.9 494.4 82.4 496.4 80.7 496.9 80.2 497.1 79.2 497.4 79.2 498.4 78.7 499.4 79.2 500.1 78.7 506.5 74.5 512.5 70 519.4 66.3 521.6 64.8 524.6 61.6 526.8 59.6 527.3 59.1 527.5 58.4 527.8 57.9 531.5 55.4 537 53.9 542.9 54.2 543.9 55.7 545.1 56.4 544.9 58.9 541.7 61.9 541.9 68.1 540.2 71.5 540.2 72.7 540.2 73.7 540.2 75 535.5 89.1 535 107.2 532 122.8 532 123.8 532.2 124.8 532.2 125.5 531.5 129.7 531.7 133.2 531 136.1 530.3 139.3 531.5 143.8 529.8 146.3 529.3 147.3 527.3 148 525.8 148 523.8 144.5 521.1 142.3 517.6 140.1 516.4 139.4 515.9 137.6 514.6 136.6 513.4 135.6 509.9 134.6 509.2 133.4 508.5 132.7 508.7 131.4 508 130.7 507.5 130 506.8 129.5 506.3 129 506.3 128.5 506.3 128 506.3 127.8 506.5 127.6 507 127.1 507.3 126.8 508 126.8 508.5 126.8 509.3 126.8 510.8 129 513 129.3 515.2 130.8 516.4 131.5 517.4 133.3 518.9 134 519.9 134 520.9 134 522.1 134 527.1 127.8 525.6 113.7 527.3 104.8 527.1 103.1 527.1 101.3 527.1 99.6 527.3 98.9 527.8 98.1 527.6 96.9 527.6 95.9 527.6 94.9 527.6 93.9 528.1 92.2 529.6 90.2 530.3 88.7 530.3 88 530.3 87.5 530.3 86.7 531.3 83.7 531.5 79.8 532.8 76.5 533.3 75.3 534.5 73.8 535 72.5 535.2 70.5 535.7 68.3 536 66.1 536.5 63.9 537.5 62.6 537.5 59.9 537.3 59.9 537 59.9 536.8 59.9 536.1 59.2 532.6 59.9 531.6 60.4 527.6 62.1 524.4 67.6 520.9 68.8 520.7 72.3 523.1 73.3 523.1 76.7 521.1 77.7 520.1 80.7 518.1 81.9 515.4 83.6 511.7 81.9 508.7 83.1 508.2 83.3 508 84.1 507.5 84.3 505.8 85 504.3 85 502.8 86 502.8 86.2 502.6 87 502.6 87.2 501.6 87.2 500.9 87.4 500.1 87.4 497.4 89.4 494.4 91.6 492.2 94.1 490.2 92.6 488.5 91.1 485.5 91.1 484.5 93.3 479.6 97.8 477.3 98.8 476.3 99 475.8 98.3 475.6 98.3 471.6 97.3 471.6 99.5 468.9 96.3 468.4 95.6 468.2 96.3 467.9 94.8 468.9 94.6 469.4 93.6 470.4 93.1 472.4 92.1 474.9 91.6 476.8 90.6 478.3 90.1 480.5 90.4 481.8 89.4 484 87.4 481.3 84 482.3 80.7 483.3 76.7 487.5 71.3 487.5 67.6 486.5 67.4 485.8 66.6 485 66.4 483.5 65.7 482.5 67.1 481.8 67.6 480.6 67.6 479.6 67.8 478.6 68.1 478.1 68.3 477.9 69.3 477.6 69.6 476.9 70.1 475.9 69.6 475.1 70.1 469.9 73.6 468.9 74.3 468.9 74.3 468.4 74.5 467.9 74.8 467.2 75 467 75 466.7 75.2 466.2 75.5 466.2 75.5 464.7 77 464.7 76.7 465.2 76.5 463.5 77.7 463.7 77.2 463.5 77.4 462 77.7 461.7 77.9 461.7 77.7 459 77.9 459 77.9 458.4 78.3 457.1 77.3 456.9 76.8Z" fill="#004097"/><path d="M502.4 97.4C504.6 97.4 507.4 99.6 507.6 101.9 506.6 102.9 506.1 104.1 505.1 104.9 504.4 105.4 495.9 106.6 495.4 106.1 494.9 105.6 494.4 104.9 494.2 104.4 491.5 102.9 489 104.2 488.5 99.7 490.2 98.7 493.5 98.7 496.4 98.7 497.5 96.9 501.2 98.6 502.4 97.4Z" fill="#004097"/><path d="M462.3 100.3C464 100.8 463.5 101.3 464.3 102.5 466.3 105.2 466.3 105.7 467.3 109.7 467.3 110.7 467.3 111.4 467.3 112.2 470 118.6 469.8 132.8 464.6 136.7 463.9 136.7 462.9 136.7 462.1 136.7 460.9 135 459.1 134 457.6 132 455.9 129.3 460.1 116.1 461.1 113.7 462.6 110 459.1 102.3 461.6 101.1 461.8 100.3 461.8 100.6 462.3 100.3Z" fill="#004097"/><path d="M506.9 108.5C508.4 108.5 509.1 108.7 510.1 109 510.1 114.2 503.2 116.9 501.2 120.4 501.2 121.1 501.2 121.9 501.2 122.6 501 122.8 500.2 123.3 500.2 123.6 500.2 124.6 500.4 125.6 500.4 126.6 500.2 127.1 499.9 127.6 499.7 127.8 498 132.5 502.9 137.5 499 139.7 497.5 140.2 496.8 139.7 495.3 139.5 488.1 138.3 490.1 132.3 490.3 125.6 489.6 125.4 489.6 125.1 488.6 125.1 487.9 125.3 486.9 125.6 486.1 126.1 485.1 125.1 483.4 123.9 483.1 122.1 484.1 121.9 484.6 121.1 485.3 120.9 486.3 120.9 487.3 120.9 488.3 120.9 489.3 120.4 490.5 119.2 491.3 118.4 492.3 116.4 490.8 113.2 492.8 112.2 493 111.5 493.8 111.2 495 111.2 495.7 112.7 499.2 114.2 501.2 114.2 502.4 112.2 505.7 111 506.9 108.5Z" fill="#004097"/></g></g><path d="M1046.1 237.8 1046.1 236 1046.3 236C1049.3 235.5 1051 234 1051.5 231.3 1051.5 228.6 1049.8 227.1 1046.1 227.1L1046.1 223.4C1046.1 223.4 1046.3 223.4 1046.6 223.4L1050.3 223.4C1054.3 223.6 1056.2 225.4 1056.2 228.6 1056 234.1 1052.5 237 1046.1 237.8L1046.1 237.8ZM1046.1 219.7 1046.1 218.2C1047.8 218 1048.6 216 1048.6 212.3 1048.6 209.3 1047.6 207.8 1046.1 207.6L1046.1 206.1C1046.1 206.1 1046.3 206.1 1046.6 206.1 1047.6 206.1 1048.3 206.1 1048.8 206.3 1049.5 206.3 1050.3 206.3 1050.8 206.3L1056 206.3 1056 208 1052.3 208C1053.8 209.2 1054.3 210.7 1054.3 212.7 1054.2 217 1051.3 219.5 1046.1 219.7L1046.1 219.7ZM1063.2 237.5 1068.6 226.8 1059.9 206.2C1060.9 206.4 1062.1 206.4 1063.1 206.4 1064.3 206.4 1065.3 206.4 1066.6 206.2 1067.3 208.7 1068.6 212.1 1070.1 216.6 1070.8 217.8 1071.1 218.8 1071.6 219.6L1073.1 215.1C1074.3 212.1 1075.3 209.2 1076.6 206.2 1077.1 206.4 1077.6 206.4 1078.1 206.4 1078.8 206.4 1079.3 206.4 1080.1 206.2L1075.6 216.1C1071.9 224.5 1068.9 231.5 1066.9 237.4 1066.2 237.4 1065.4 237.4 1064.9 237.4 1064.4 237.5 1063.7 237.5 1063.2 237.5ZM1046.1 206.1 1046.1 207.6 1045.9 207.6C1043.9 207.6 1042.9 209.6 1043.2 213.3 1043.2 216.5 1043.9 218.3 1045.9 218.3 1045.9 218.3 1045.9 218.3 1046.1 218.3L1046.1 219.8C1045.9 219.8 1045.6 219.8 1045.4 219.8L1045.2 219.8C1044.2 219.8 1043.7 219.8 1043.7 220 1043.5 220.2 1043.5 220.2 1043.5 220.5 1043.3 220.7 1043 221 1043.3 221.2 1043.1 222.7 1044 223.4 1046.3 223.4L1046.3 227.1C1046.1 227.1 1045.8 227.1 1045.6 227.1 1042.9 226.9 1041.4 227.8 1040.9 229.6 1040.9 230.1 1040.7 230.6 1040.9 231.1 1040.9 234.1 1042.9 235.6 1046.3 236.1L1046.3 237.8C1046.1 237.8 1045.8 237.8 1045.6 237.8 1039.9 237.6 1037.2 235.6 1036.9 232.1 1036.9 229.6 1038.1 228.1 1040.4 227.4L1041.1 226.9 1040.9 226.9C1039.4 226.4 1038.7 225.4 1038.7 223.9 1038.7 221.9 1039.9 220.4 1041.9 219.4L1042.6 219.4C1038.9 218.4 1037.2 216.2 1037.4 212.5 1036.9 208.3 1039.9 206.1 1046.1 206.1L1046.1 206.1ZM1021.6 227.1 1021.6 225.4C1024.1 225.4 1025.3 221.9 1025.6 215.5 1025.6 210.5 1024.1 208.1 1021.6 207.8L1021.6 207.8 1021.6 206.1C1028 206.3 1031.5 209.8 1032 216.3 1031.5 223.2 1028 226.9 1021.6 227.1ZM1021.6 206.1 1021.6 207.8C1018.6 208 1017.4 211 1017.4 217 1017.4 222.7 1018.6 225.4 1021.6 225.4L1021.6 227.1C1014.7 226.9 1011.2 223.6 1010.9 217.2 1011.1 210 1014.6 206.3 1021.6 206.1L1021.6 206.1ZM981.4 227.1 981.4 225.4C983.9 225.4 985.4 221.9 985.4 215.5 985.4 210.5 984.2 208.1 981.4 207.8L981.4 207.8 981.4 206.1C987.8 206.3 991.6 209.8 991.8 216.3 991.6 223.2 987.9 226.9 981.4 227.1L981.4 227.1ZM1004.2 194.7 1004.2 226.9C1003.2 226.9 1002.2 226.9 1001.5 226.9 1000.5 226.9 999.5 226.9 998.5 226.9L998.5 194.7C998.7 194.7 999.2 194.9 1000 194.9 1000.5 194.9 1001 194.9 1001.5 194.9 1001.7 194.9 1002 194.9 1002.7 194.9 1003.2 194.9 1004 194.7 1004.2 194.7ZM981.4 206.1 981.4 207.8C978.4 208 977.2 211 977.2 217 977.2 222.7 978.4 225.4 981.4 225.4L981.4 227.1C974.5 226.9 971 223.6 970.7 217.2 971 210 974.5 206.3 981.4 206.1L981.4 206.1ZM881.4 227.1 881.4 224.1C882.1 224.3 883.1 224.6 884.1 224.6 885.8 224.6 887.6 223.9 889.1 222.6L889.6 223.1 888.9 225.3C886.9 226.3 884.9 227 882.7 227 882.1 227.1 881.9 227.1 881.4 227.1L881.4 227.1ZM881.4 216.7 881.4 214.7 884.6 214.7C884.4 210.2 883.6 208 881.6 207.8L881.4 207.8 881.4 206.1 881.6 206.1C887.8 206.3 890.8 209.8 890.3 216.7L881.4 216.7 881.4 216.7ZM914.6 207.8 912.9 212.3 911.9 212.3C911.2 209.6 909.7 208.1 907.4 207.8 904.2 208 902.4 211 902.2 216.2 902.2 221.9 904.4 224.6 908.6 224.6 910.3 224.6 911.8 223.9 913.1 222.6L913.8 223.1 912.8 225.8C911.6 226.3 909.6 226.8 907.1 227 899.9 226.8 896.2 223.5 896 216.8 896.5 209.9 900.2 206.4 907.1 205.9 910.1 206.1 912.6 206.8 914.6 207.8L914.6 207.8ZM925.7 194.7 925.7 209.3C927.7 207.3 929.9 206.1 932.1 206.1 934.1 206.1 935.8 206.8 937.1 208.1 938.3 209.1 938.8 211.1 938.8 213.3L938.8 226.9C937.8 226.9 936.8 226.9 935.8 226.9 934.8 226.9 933.8 226.9 933.1 226.9L933.1 216.5C933.1 211.8 932.1 209.6 929.6 209.6 926.6 209.6 925.4 212.1 925.6 217.3L925.6 227C924.9 227 923.9 227 922.9 227 921.9 227 920.9 227 919.9 227L919.9 194.8C920.1 194.8 920.6 195 921.4 195 921.9 195 922.4 195 922.9 195 923.1 195 923.6 195 924.4 195 925 194.9 925.5 194.7 925.7 194.7L925.7 194.7ZM946 226.9 946 206.3C946.7 206.5 947.7 206.5 948.7 206.5 949.7 206.5 950.4 206.5 951.4 206.3L951.4 209.5C953.4 207.3 955.6 206 958.1 206 962.8 206 965 208.7 964.8 214.4L964.8 226.8C963.8 226.8 962.8 226.8 961.8 226.8 960.8 226.8 959.8 226.8 959.1 226.8L959.1 216.4C959.1 211.7 957.9 209.5 955.6 209.5 952.6 209.5 951.4 212 951.6 217.2L951.6 226.9C950.9 226.9 949.9 226.9 948.9 226.9 948 226.9 947 226.9 946 226.9ZM881.4 206.1 881.4 207.8C879.4 208.3 878.2 210.5 878.2 214.7L881.4 214.7 881.4 216.7 878.2 216.7C878.2 220.7 879.2 223.1 881.4 224.1L881.4 227.1C875.2 226.4 872 222.9 872 216.2 872.2 209.8 875.2 206.6 881.4 206.1L881.4 206.1ZM805.3 227.1 805.3 225.4C807.8 225.4 809 221.9 809.3 215.5 809.3 210.5 808.1 208.1 805.3 207.8L805.3 207.8 805.3 206.1C811.7 206.3 815.5 209.8 815.7 216.3 815.5 223.2 811.8 226.9 805.3 227.1L805.3 227.1ZM822.9 209.3 819.7 209.3C819.9 208.3 819.9 207.3 819.7 206.3L822.9 206.3C823.1 203.6 823.9 201.3 825.1 199.4 826.8 195.7 829.8 194.2 834 194.9 833.5 196.6 833.5 198.4 833.8 200.3L833.1 200.5C831.9 199.8 830.9 199.5 829.6 199.3 828.1 199.3 827.4 199.5 827.1 199.8 826.9 200 826.6 200.3 826.6 200.5 826.8 202.2 827.3 204.2 828.6 206.2L832.8 206.2C832.6 207.2 832.6 208.2 832.8 209.2L828.8 209.2 828.8 226.8C827.8 226.8 826.8 226.8 825.8 226.8 824.8 226.8 823.8 226.8 822.8 226.8L822.8 209.3 822.9 209.3ZM859.6 200.9 859.6 226.9C858.6 226.9 857.4 226.9 856.4 226.9 855.4 226.9 854.4 226.9 853.4 226.9L853.4 200.9C851.7 200.9 849.4 201.1 846.7 201.4 846.2 201.4 845.7 201.4 845.2 201.4 845.4 200.9 845.4 200.4 845.4 199.7 845.4 199 845.4 198.5 845.2 198L867.2 198C867 198.5 867 199 867 199.7 867 200.4 867 200.9 867.2 201.4 866.2 201.4 865.5 201.4 864.7 201.2 862.5 201.1 860.8 200.9 859.6 200.9ZM805.3 206.1 805.3 207.8C802.3 208 801.1 211 801.1 217 801.1 222.7 802.3 225.4 805.3 225.4L805.3 227.1C798.4 226.9 794.9 223.6 794.6 217.2 794.9 210 798.4 206.3 805.3 206.1L805.3 206.1ZM679.5 227.1 679.5 224.1C680.2 224.3 681.2 224.6 682.2 224.6 683.9 224.6 685.7 223.9 687.2 222.6L687.7 223.1 686.7 225.3C685 226.3 683 227 680.8 227 680.3 227.1 679.8 227.1 679.5 227.1L679.5 227.1ZM679.5 216.7 679.5 214.7 682.7 214.7C682.5 210.2 681.5 208 679.7 207.8L679.5 207.8 679.5 206.1 679.7 206.1C685.9 206.3 688.9 209.8 688.4 216.7L679.5 216.7 679.5 216.7ZM694.9 226.9 694.9 206.3C695.9 206.5 697.1 206.5 698.1 206.5 699.1 206.5 699.8 206.5 700.8 206.3L700.8 211.7C701.8 207.7 704.3 206 707.7 206 707.5 208 707.5 210 707.5 211.7L707.3 212.2C706.6 211.7 705.8 211.5 705.1 211.5 702.9 211.5 701.6 212.5 701.1 214.2 700.9 215.2 700.6 216.9 700.9 219.4L700.9 226.8C699.9 226.8 699.2 226.8 698.2 226.8 697.1 226.9 695.9 226.9 694.9 226.9L694.9 226.9ZM713 221.7 714 221.7C715 224.2 716.7 225.4 719 225.4 721 225.2 722 224.2 722.2 222.7 722.2 221.5 721 220.5 718.2 219.5 714.2 218 712.3 215.8 712.3 212.8 712.5 208.6 715 206.4 719.7 206.1 721.9 206.1 724.2 206.8 725.9 208.1 725.4 209.3 725.2 210.6 724.9 211.8L723.7 211.8C723 209.6 721.7 208.3 719.5 208.3 717.5 208.3 716.5 209 716.5 210.8 716.5 212 717.7 213 720.2 213.8 724.4 215.5 726.4 217.8 726.4 220.7 726.2 224.7 723.4 226.9 718.2 227.1 715.7 227.1 714 226.6 712.3 225.6 712.3 225.1 712.5 224.6 712.8 223.6 712.7 222.9 713 222.2 713 221.7L713 221.7ZM732.8 226.9 732.8 206.3C733.8 206.5 734.8 206.5 735.8 206.5 736.5 206.5 737.5 206.5 738.5 206.3L738.5 226.9C737.5 226.9 736.5 226.9 735.8 226.9 734.8 226.9 733.8 226.9 732.8 226.9L732.8 226.9ZM732.3 198.7C732.5 196.7 733.5 195.5 735.5 195.2 737.7 195.7 739 196.7 739 198.7 739 200.7 737.8 201.7 735.5 201.9 733.5 201.9 732.3 200.6 732.3 198.7L732.3 198.7ZM753.3 209.3 753.3 221.2C752.8 224.7 754.3 225.9 757.3 224.9L757.3 226.4C757.1 226.6 756.6 226.6 755.8 226.9 754.3 227.1 753.3 227.1 752.8 227.1 749.1 227.3 747.4 225.1 747.6 220.4L747.6 209.3 744.6 209.3C744.6 208.3 744.6 207.3 744.6 206.3L747.6 206.3 747.6 201.6C749.3 200.9 751.3 200.1 753.3 198.9L753.3 206.3 757 206.3C756.8 207.3 756.8 208.3 757 209.3L753.3 209.3 753.3 209.3ZM764.5 237.5 769.9 226.8 761.2 206.2C762.2 206.4 763.2 206.4 764.4 206.4 765.4 206.4 766.6 206.4 767.6 206.2 768.3 208.7 769.6 212.1 771.3 216.6 771.8 217.8 772.3 218.8 772.5 219.6L774.2 215.1C775.2 212.1 776.4 209.2 777.4 206.2 778.1 206.4 778.6 206.4 779.1 206.4 779.6 206.4 780.3 206.4 780.8 206.2L776.6 216.1C772.6 224.5 769.7 231.5 767.7 237.4 767 237.4 766.5 237.4 766 237.4 765.5 237.5 765 237.5 764.5 237.5ZM679.5 206.1 679.5 207.8C677.3 208.3 676.3 210.5 676.3 214.7L679.5 214.7 679.5 216.7 676.3 216.7C676.3 220.7 677.3 223.1 679.5 224.1L679.5 227.1C673.3 226.4 670.1 222.9 670.1 216.2 670.4 209.8 673.3 206.6 679.5 206.1L679.5 206.1ZM546.3 226.6 546.3 224.6C547.8 224.4 548.8 222.9 549 219.9L549 215.7C548.8 215.9 548.3 216.2 547.8 216.2 547.1 216.4 546.6 216.7 546.3 216.9L546.3 215.2C547 215 547.8 214.5 548.3 214.2 548.8 213.7 549 213.2 549 212.5 548.8 210.8 547.8 209.8 546.3 209L546.3 206C546.3 206 546.5 206 546.8 206 552 206.2 554.7 208.2 554.7 211.7L554.7 223.3C554.7 224.5 555.4 225.3 556.9 225.3L556.9 226.3C556.7 226.3 556.4 226.5 556.2 226.5 555 226.7 553.7 227 553.2 227 551 227 549.7 226 549 224.3 548.3 225.4 547.3 226.1 546.3 226.6L546.3 226.6ZM573.3 215.2 573.3 197.9C573.5 197.9 574 197.9 574.8 198.1 575.5 198.1 576 198.1 576.5 198.1 576.7 198.1 577.2 198.1 578 198.1 578.5 197.9 579.2 197.9 579.5 197.9L579.5 209.8C579.5 213.8 579.5 216.5 580 218 580.2 220.2 581 222 582.2 223 583.4 224.2 584.9 224.7 587.2 224.7 590.7 224.9 593.1 223.2 594.6 219.5 595.1 218.3 595.3 215.3 595.3 210.8L595.3 197.9C595.8 197.9 596.5 197.9 597 197.9 597.5 197.9 598 197.9 598.5 197.9L598.5 213C599 219.4 597.5 223.4 594 225.4 591.8 226.6 589 227.1 586.1 227.4 579.2 227.2 575 224.9 574 220.5 573.5 219 573.3 217.2 573.3 215.2L573.3 215.2ZM607.2 226.9 607.2 206.3C607.9 206.5 608.9 206.5 609.9 206.5 610.9 206.5 611.9 206.5 612.9 206.3L612.9 209.5C614.6 207.3 616.9 206 619.3 206 624 206 626.2 208.7 626 214.4L626 226.8C625 226.8 624 226.8 623 226.8 622 226.8 621 226.8 620.3 226.8L620.3 216.4C620.3 211.7 619.3 209.5 616.8 209.5 614.1 209.5 612.6 212 612.8 217.2L612.8 226.9C612.1 226.9 611.1 226.9 610.1 226.9 609.2 226.9 608.2 226.9 607.2 226.9L607.2 226.9ZM633.7 226.9 633.7 206.3C634.7 206.5 635.7 206.5 636.7 206.5 637.4 206.5 638.4 206.5 639.7 206.3L639.7 226.9C638.5 226.9 637.5 226.9 636.7 226.9 635.7 226.9 634.7 226.9 633.7 226.9L633.7 226.9ZM633.2 198.7C633.4 196.7 634.7 195.5 636.7 195.2 638.7 195.7 639.9 196.7 640.2 198.7 640 200.7 638.7 201.7 636.7 201.9 634.4 201.9 633.5 200.6 633.2 198.7L633.2 198.7ZM652.3 206.3 657 221.2C658.7 216.5 660.5 211.5 662 206.3 662.7 206.5 663.2 206.5 664 206.5 664.5 206.5 665 206.5 665.5 206.3 665.5 206.8 665.5 207 665.3 207.3L665.3 207.3C664.6 209 663.8 210.8 663.1 212.3 663.1 212.8 662.6 213.5 662.4 214.3 660.2 219.7 658.4 224 657.7 226.9 657 226.9 656.2 226.9 655.5 226.9 654.8 226.9 654 226.9 653.3 226.9 653.1 226.2 652.8 225.4 652.6 224.4 649.9 216.7 647.6 210.8 645.9 206.3 646.9 206.5 648.1 206.5 649.1 206.5 649.8 206.6 651 206.6 652.3 206.3ZM546.3 206.1 546.3 209.1C545.8 208.9 545.3 208.9 544.8 208.9 542.8 208.9 541.1 209.9 539.6 211.4L539.4 211.4 538.9 208.9C540.8 207.3 543.1 206.3 546.3 206.1L546.3 206.1ZM546.3 215.2 546.3 216.9C545.6 217.1 545.1 217.4 544.8 217.6 543.6 218.6 543.3 219.8 543.3 221.1 543.3 223.3 544 224.6 545.8 224.6 545.8 224.6 546 224.6 546.3 224.6L546.3 226.6C545.3 226.8 544.6 227.1 543.6 227.1 539.6 226.9 537.4 225.1 537.4 221.9 536.9 218.4 539.6 216.2 545.3 215.2 545.3 215.2 545.5 215.2 546 215.2 546 215.2 546 215.2 546.3 215.2L546.3 215.2ZM348.1 227.1 348.1 225.4C350.6 225.4 351.8 221.9 352.1 215.5 352.1 210.5 350.9 208.1 348.1 207.8L348.1 207.8 348.1 206.1C354.5 206.3 358 209.8 358.5 216.3 358.1 223.2 354.6 226.9 348.1 227.1L348.1 227.1ZM383.3 206.3 383.3 226.9C382.3 226.9 381.3 226.9 380.3 226.9 379.3 226.9 378.6 226.9 377.6 226.9L377.6 223.9C375.6 226.1 373.4 227.4 371.2 227.1 368.5 227.1 366.5 226.1 365.5 224.9 364.8 223.9 364.3 221.9 364.3 219 364.3 218.8 364.3 218.5 364.3 218.3L364.3 206.4C365.3 206.6 366.3 206.6 367.5 206.6 368.2 206.6 369.2 206.6 370.2 206.4L370.2 218.3C370.2 219.8 370.4 221 370.7 221.8 371.4 223.3 372.4 224 373.7 224 376.4 224 377.7 222 377.4 217.6L377.4 206.5C378.4 206.7 379.4 206.7 380.4 206.7 381.3 206.6 382.3 206.6 383.3 206.3L383.3 206.3ZM397.7 209.3 397.7 221.2C397.2 224.7 398.4 225.9 401.7 224.9L401.7 226.4C401.2 226.6 400.7 226.6 400.2 226.9 398.7 227.1 397.7 227.1 397.2 227.1 393.2 227.3 391.5 225.1 391.8 220.4L391.8 209.3 388.8 209.3C389 208.3 389 207.3 388.8 206.3L391.8 206.3 391.8 201.6C393.5 200.9 395.5 200.1 397.7 198.9L397.7 206.3 401.2 206.3C401.2 207.3 401.2 208.3 401.2 209.3L397.7 209.3 397.7 209.3ZM412.8 194.7 412.8 209.3C414.8 207.3 416.8 206.1 419 206.1 421.2 206.1 423 206.8 424 208.1 425.2 209.1 426 211.1 426 213.3L426 226.9C425 226.9 424 226.9 423 226.9 422 226.9 421 226.9 420 226.9L420 216.5C420.2 211.8 419 209.6 416.5 209.6 413.8 209.6 412.5 212.1 412.8 217.3L412.8 227C411.8 227 410.8 227 409.8 227 408.8 227 407.8 227 406.8 227L406.8 194.8C407.3 194.8 407.8 195 408.3 195 409 195 409.5 195 409.8 195 410.3 195 410.8 195 411.3 195 412 194.9 412.5 194.7 412.8 194.7L412.8 194.7ZM465.5 221.9 466 222.1 465.3 225.8C462.8 226.5 459.9 227 456.9 227.3 446.7 226.8 441.5 222.1 441.3 213.2 441.5 203 447 197.6 457.9 197.1 461.1 197.1 464.1 197.8 466.6 199.1 466.1 199.8 465.9 200.8 465.6 202.1 465.6 202.8 465.6 203.3 465.6 203.6L464.9 203.6C462.9 201.1 460.7 199.9 458 199.6 451.6 199.8 448.3 204.3 448.1 212.7 448.3 220.6 451.6 224.6 458.3 224.8 460.6 224.9 463.3 223.9 465.5 221.9L465.5 221.9ZM478.4 194.7 478.4 209.3C480.4 207.3 482.6 206.1 484.8 206.1 486.8 206.1 488.5 206.8 489.8 208.1 491 209.1 491.5 211.1 491.5 213.3L491.5 226.9C490.5 226.9 489.5 226.9 488.5 226.9 487.5 226.9 486.5 226.9 485.8 226.9L485.8 216.5C485.8 211.8 484.6 209.6 482.3 209.6 479.3 209.6 478.1 212.1 478.3 217.3L478.3 227C477.6 227 476.6 227 475.6 227 474.6 227 473.6 227 472.6 227L472.6 194.8C472.8 194.8 473.3 195 474.1 195 474.6 195 475.1 195 475.6 195 475.8 195 476.3 195 477.1 195 477.7 194.9 478.2 194.7 478.4 194.7L478.4 194.7ZM499.2 226.9 499.2 206.3C500.2 206.5 501.2 206.5 502.2 206.5 502.9 206.5 503.9 206.5 505.2 206.3L505.2 226.9C504 226.9 503 226.9 502.2 226.9 501.2 226.9 500.2 226.9 499.2 226.9L499.2 226.9ZM498.7 198.7C498.9 196.7 500.2 195.5 502.2 195.2 504.2 195.7 505.4 196.7 505.7 198.7 505.5 200.7 504.2 201.7 502.2 201.9 500 201.9 499 200.6 498.7 198.7L498.7 198.7ZM512.8 226.9 512.8 206.3C513.5 206.5 514.5 206.5 515.5 206.5 516.5 206.5 517.2 206.5 518.2 206.3L518.2 209.5C520.2 207.3 522.4 206 524.9 206 529.6 206 531.8 208.7 531.6 214.4L531.6 226.8C530.6 226.8 529.6 226.8 528.6 226.8 527.6 226.8 526.6 226.8 525.9 226.8L525.9 216.4C525.9 211.7 524.7 209.5 522.4 209.5 519.4 209.5 518.2 212 518.4 217.2L518.4 226.9C517.7 226.9 516.7 226.9 515.7 226.9 514.8 226.9 513.8 226.9 512.8 226.9ZM329.8 203.4 329.3 203.4C328.1 200.9 326.3 199.7 324.3 199.7 321.1 199.7 319.6 201.2 319.6 203.9 319.6 205.6 321.3 207.4 324.8 209.1 329.8 211.6 332.5 214.8 332.5 218.3 332 224 328.3 227 321.1 227.5 318.9 227.3 316.6 226.8 314.4 226 314.9 224.3 315.4 222.3 315.6 220.6L316.3 220.6C317 223.6 319 225.1 322 225.1 325.2 225.1 327 223.6 327.2 220.9 327.2 218.9 325.2 216.9 321.5 215.5 316.8 213.3 314.6 210.3 314.6 206.3 314.8 200.6 318.1 197.6 324.3 197.4 327 197.4 329.3 198.1 331.2 199.4 331 199.9 330.7 200.6 330.2 201.4 330.1 202.1 329.8 202.9 329.8 203.4L329.8 203.4ZM348.1 206.1 348.1 207.8C345.1 208 343.9 211 343.9 217 343.9 222.7 345.1 225.4 348.1 225.4L348.1 227.1C341.2 226.9 337.7 223.6 337.4 217.2 337.7 210 341.2 206.3 348.1 206.1Z" fill="#004097"/><g><linearGradient x1="122.641" y1="46.8583" x2="122.641" y2="197.138" gradientUnits="userSpaceOnUse" id="SVGID_1_"><stop offset="0" stop-color="#0075C1"/><stop offset="1" stop-color="#FFFFFF"/></linearGradient><path d="M122.6 242.8C188.9 242.8 243 188.7 243 122.4 243 56 188.9 2 122.6 2 56.3 2 2.2 56 2.2 122.4 2.2 188.7 56.3 242.8 122.6 242.8Z" fill="#FFFFFF"/><path d="M122.6 197.5C163.9 197.5 197.7 163.8 197.7 122.4 197.7 81 163.9 47.3 122.6 47.3 81.2 47.3 47.5 81 47.5 122.4 47.5 163.8 81.2 197.5 122.6 197.5Z" fill="url(#SVGID_1_)"/><path d="M63.6 168.2 181.2 168.2 171.8 177.9 70.7 177.9Z" fill="#FFFFFF"/><path d="M121.8 135.4 130.6 135.4 130.6 141 121.8 141 113 141 113 135.4 121.8 135.4 121.8 135.4ZM121.8 141.7 121.8 141.7 121.8 141.7 130.6 141.7 130.6 143.5 122.1 143.5 122.1 143.5 121.5 143.5 121.5 143.5 113 143.5 113 141.7 121.8 141.7 121.8 141.7 121.8 141.7ZM121.2 132.9 122.4 132.9 122.4 132.9 130.6 132.9 130.6 134.7 121.9 134.7 121.9 134.7 121.7 134.7 121.7 134.7 113 134.7 113 132.9 121.2 132.9 121.2 132.9 121.2 132.9ZM116.5 143.9C116.5 143.9 115.8 145.2 114.9 145.5 114 145.8 114.1 145.7 114.1 146 114 146.3 114 146.6 113.7 146.9 113.4 147.2 113.1 147.1 113.1 147.1L113.1 144 116.5 143.9 116.5 143.9ZM113 132.6C113 132.6 114.7 132.5 115.5 132.1 116.3 131.7 116.6 130.6 116.4 130.4 116 129.9 116.2 129.4 115.7 129.1 114.5 128.5 114 129.5 113.4 130.3 113.2 130.6 113.1 130.7 113 130.7L113 130.7 113 130.6 113 130.6 113 130.7 113 132.6 113 132.6ZM112.2 130.5 107.2 130.5 107.2 167.6 112.2 167.6 112.2 130.5 112.2 130.5ZM112.7 125.7 106.6 125.7C106.4 125.7 106.3 125.8 106.3 126L106.3 129.6C106.3 129.8 106.4 129.9 106.6 129.9L112.7 129.9C112.9 129.9 113 129.8 113 129.6L113 126C113 125.8 112.9 125.7 112.7 125.7L112.7 125.7ZM109.5 119.8C109.6 119.8 109.6 119.8 109.7 119.8 109.8 119.8 109.8 119.8 109.9 119.8 110.5 119.7 111 120.6 111.2 121.2 111.4 121.7 111.4 122.3 111.4 122.3 112.2 122.7 112.6 123.7 112.2 124.4 111.8 124.9 112.3 125.3 111.8 125.3L109.9 125.3 108 125.3C107.5 125.3 107.9 125 107.6 124.4 107.1 123.6 107.5 122.7 108.4 122.3 108.4 122.3 108.3 121.7 108.6 121.2 108.4 120.6 108.9 119.7 109.5 119.8L109.5 119.8ZM106.1 130.4 106.1 132.4 104.9 132.4C104 132.4 103.9 131 103.7 130.7 103.6 130.6 102.6 129.9 102.5 129.5 102.4 129 102.3 129.2 102.6 128.7 102.9 128.3 103.4 128.3 103.5 128.5 103.6 128.6 103.7 128.6 103.7 128.5 103.7 128.4 103.8 128.4 103.8 128.4L103.8 128.4 103.8 128.4C103.8 128.4 103.7 128.5 103.7 128.5 103.6 128.6 103.5 128.8 103.5 128.9 103.6 129.5 104.6 129.3 105.1 129.7 105.3 129.8 105.5 130.2 105.7 130.4 105.8 130.4 106.1 130.4 106.1 130.4L106.1 130.4ZM106.3 133 104.8 133 104.8 134.9 106.3 134.9 106.3 133 106.3 133ZM106.3 135.2 96.2 135.2 96.2 136.8 106.3 136.8 106.3 135.2 106.3 135.2ZM106.3 137.3 96.3 137.3 96.3 141.8 106.3 141.8 106.3 137.3 106.3 137.3ZM106.4 142.3 96.2 142.3 96.2 143.8 106.3 143.8 106.3 142.3 106.4 142.3ZM99.1 144.5C99.5 144.5 98.3 145.7 97.5 146.1 97.3 146.2 97.2 146.3 97.1 146.5 97 146.7 96.8 147.1 96.8 147.2 96.4 147.5 96.3 147.3 96.3 147.3L96.3 144.5 99.1 144.5 99.1 144.5ZM95.5 134.6 90.9 134.6 90.9 167.6 95.5 167.6 95.5 134.6 95.5 134.6ZM95.8 130 90.3 130C90.2 130 90.1 130.1 90.1 130.3L90.1 133.6C90.1 133.8 90.2 133.9 90.3 133.9L95.8 133.9C96 133.9 96.1 133.8 96.1 133.6L96.1 130.3C96.1 130.1 96 130 95.8 130L95.8 130ZM81 136.1 76.5 136 76.5 167.5 80.8 167.5 80.8 137.8 81 137.7 81 136.1 81 136.1ZM81.3 132.6 76.3 132.6C76.2 132.6 76.1 132.7 76.1 132.8L76.1 135.3C76.1 135.4 76.2 135.5 76.3 135.5L81.3 135.5C81.4 135.5 81.5 135.4 81.5 135.3L81.5 132.8C81.6 132.7 81.5 132.6 81.3 132.6L81.3 132.6ZM78.9 127.7C79 127.7 79.4 127.8 79.7 128.2 79.7 128.2 79.9 128.5 80 128.8 80.2 129.2 80.2 129.7 80.2 129.7 80.7 130 81.1 130.6 80.6 131.2 80.2 131.6 80.5 131.7 80.5 131.9 80.6 132.1 80.4 132.2 80.4 132.2L78.8 132.2 78.7 132.2 78.7 132.2 77.1 132.2C77.1 132.2 77 132.1 77 131.9 77 131.7 77.4 131.6 76.9 131.2 76.4 130.7 76.7 130 77.3 129.7 77.3 129.7 77.4 129.2 77.5 128.8 77.7 128.4 77.8 128.2 77.8 128.2 78.3 127.8 78.8 127.7 78.9 127.7L78.9 127.7 78.9 127.7 78.9 127.7ZM90 135 89.2 135.1C88.4 135.1 88.1 134.5 88 133.9 87.8 133.1 87 133.1 87 132.2 87 131.7 87.6 131.2 88.1 131.3 88.2 131.3 88.2 131.3 88.2 131.3 88.2 131.3 88 131.7 88.1 131.9 88.3 132.4 89.3 132.4 89.7 133.1 89.8 133.4 89.9 133.8 89.9 134.1 89.9 134.4 90 134.4 90 134.4L90.2 134.4 90 135 90 135ZM90 135.4 89 135.4 89 136.8 90 136.8 90 135.4 90 135.4ZM90 137 81.5 137 81.5 138.6 90 138.6 90 137 90 137ZM103.5 144.5C103.1 144.5 104.3 145.7 105.1 146.1 105.4 146.2 105.5 146.3 105.6 146.5 105.7 146.7 105.9 147.1 105.9 147.2 106.2 147.5 106.4 147.3 106.4 147.3L106.3 144.5 103.5 144.5 103.5 144.5ZM93 124.7 93 124.7 93 124.7 93.1 124.6C93.2 124.6 93.2 124.6 93.3 124.6 93.8 124.6 94.2 125.5 94.4 126 94.6 126.4 94.6 126.9 94.6 126.9 95.2 127.2 95.9 128.4 95.3 128.9 94.9 129.3 95.3 129.4 94.8 129.4L93.2 129.4 93.2 129.4 93.1 129.4 91.5 129.5C91 129.5 91.4 129.3 91 129 90.4 128.5 91.1 127.3 91.7 127 91.7 127 91.7 126.5 91.9 126.1 92 125.6 92.4 124.7 93 124.7L93 124.7ZM96.2 135 97 135.1C97.8 135.1 98.1 134.5 98.2 133.9 98.4 133.1 99.2 133.1 99.2 132.2 99.2 131.7 98.6 131.2 98.1 131.3 98 131.3 98 131.3 98 131.3 98 131.3 98.2 131.7 98.1 131.9 97.9 132.4 96.9 132.4 96.5 133.1 96.4 133.4 96.3 133.8 96.3 134.1 96.3 134.4 96.2 134.4 96.2 134.4L96 134.4 96.2 135 96.2 135ZM90 139.1 81.5 139.1 81.5 142.4 90 142.4 90 139.1 90 139.1ZM90 142.8 81.5 142.8 81.5 144.4 90 144.4 90 142.8 90 142.8ZM90 147.4C89.9 147.2 89.6 146.9 89.3 146.7 88.5 146.3 87.7 145.8 87.4 145.1 87.3 144.8 87.3 144.8 87.3 144.8L87.3 144.8 87.3 144.8 90 144.8 90 147.4 90 147.4ZM81.6 147.4C81.6 147.4 81.9 146.9 82.2 146.7 83 146.3 83.8 145.8 84.1 145.1 84.2 144.8 84.2 144.8 84.2 144.8L81.5 144.8 81.5 147.4 81.6 147.4ZM81.6 136 81.6 136.6C81.6 136.7 82.2 136.7 82.5 136.6 82.8 136.5 83.5 136.3 83.7 136.1 83.9 135.8 84.1 135.7 84 135.5 84 135.2 83.9 135.1 83.6 134.9 83.3 134.7 83.5 134.7 83.4 134.4 83.2 134.1 82.8 133.8 82.2 134L82 134 82 136.1 81.6 136 81.6 136ZM76 136.7 75.1 136.7C74.3 136.8 74.1 136.1 73.9 135.5 73.6 134.5 72.9 134.5 72.9 133.6 72.9 133.1 73.2 132.8 73.6 132.8 73.7 132.8 73.7 132.9 73.7 132.9 73.7 132.9 73.6 133.2 73.7 133.4 74.1 133.9 75.2 134.1 75.5 134.7 75.6 134.9 75.7 135.4 75.7 135.7 75.7 136 75.8 136 75.8 136L76 136 76 136.7 76 136.7ZM75.9 142.8 74.8 142.8 74.8 144.4 75.9 144.4 75.9 142.8 75.9 142.8ZM76.1 137 74.9 137 74.9 138.6 76.1 138.6 76.1 137 76.1 137ZM75.8 153.7C75.8 153.7 74.6 154.4 74.3 155.2 74 156 74.1 156.3 74.1 156.3 73.2 156.9 72.1 157.9 72.2 159.3 72.2 160.3 72.5 161 72.5 161 72.5 161 71.5 161.9 71.2 162.6 70.9 163.4 71.1 165.5 71.5 165.5L75.8 165.4 75.8 153.7 75.8 153.7ZM75.8 166 70.3 166 70.3 167.6 75.8 167.6 75.8 166 75.8 166ZM127.2 143.9C127.2 143.9 127.9 145.2 128.8 145.5 129.7 145.8 129.6 145.7 129.6 146 129.7 146.3 129.7 146.6 130 146.9 130.3 147.2 130.6 147.1 130.6 147.1L130.6 144 127.2 143.9 127.2 143.9ZM130.7 132.6C130.7 132.6 129.1 132.5 128.3 132.1 127.5 131.7 127.2 130.6 127.4 130.4 127.9 129.9 127.6 129.4 128.2 129.1 129.4 128.5 129.9 129.5 130.4 130.3 130.6 130.6 130.7 130.7 130.8 130.7L130.8 130.7 130.8 130.6 130.8 130.6 130.8 130.7 130.8 132.6 130.7 132.6ZM131.5 130.5 136.5 130.5 136.5 167.6 131.5 167.6 131.5 130.5 131.5 130.5ZM131 125.7 137.1 125.7C137.3 125.7 137.4 125.8 137.4 126L137.4 129.6C137.4 129.8 137.3 129.9 137.1 129.9L131 129.9C130.8 129.9 130.7 129.8 130.7 129.6L130.7 126C130.7 125.8 130.8 125.7 131 125.7L131 125.7ZM134.1 119.8C134 119.8 134 119.8 133.9 119.8 133.8 119.8 133.8 119.8 133.7 119.8 133.1 119.7 132.6 120.6 132.4 121.2 132.2 121.7 132.2 122.3 132.2 122.3 131.4 122.7 131 123.7 131.4 124.4 131.8 124.9 131.3 125.3 131.8 125.3L133.7 125.3 135.6 125.3C136.1 125.3 135.7 125 136 124.4 136.5 123.6 136.1 122.7 135.2 122.3 135.2 122.3 135.3 121.7 135 121.2 135.2 120.6 134.8 119.7 134.1 119.8L134.1 119.8ZM137.5 130.4 137.6 132.4 138.8 132.4C139.7 132.4 139.8 131 140 130.7 140.1 130.6 141.1 129.9 141.2 129.5 141.3 129 141.4 129.2 141.1 128.7 140.8 128.3 140.3 128.3 140.2 128.5 140.1 128.6 140 128.6 140 128.5 140 128.4 139.9 128.4 139.9 128.4L139.9 128.4 139.9 128.4C139.9 128.4 140 128.5 140 128.5 140.1 128.6 140.2 128.8 140.2 128.9 140.1 129.5 139.1 129.3 138.6 129.7 138.4 129.8 138.2 130.2 138 130.4 137.9 130.4 137.5 130.4 137.5 130.4L137.5 130.4ZM137.3 133 138.8 133 138.8 134.9 137.3 134.9 137.3 133 137.3 133ZM137.3 135.2 147.4 135.2 147.4 136.8 137.3 136.8 137.3 135.2 137.3 135.2ZM137.3 137.3 147.3 137.3 147.3 141.8 137.3 141.8 137.3 137.3 137.3 137.3ZM137.3 142.3 147.4 142.3 147.4 143.8 137.3 143.8 137.3 142.3 137.3 142.3ZM144.6 144.5C144.2 144.5 145.4 145.7 146.2 146.1 146.4 146.2 146.5 146.3 146.6 146.5 146.7 146.7 146.9 147.1 146.9 147.2 147.3 147.5 147.4 147.3 147.4 147.3L147.4 144.5 144.6 144.5 144.6 144.5ZM148.2 134.6 152.8 134.6 152.8 167.6 148.2 167.6 148.2 134.6 148.2 134.6ZM147.8 130 153.3 130C153.4 130 153.5 130.1 153.5 130.3L153.5 133.6C153.5 133.8 153.4 133.9 153.3 133.9L147.8 133.9C147.6 133.9 147.5 133.8 147.5 133.6L147.5 130.3C147.6 130.1 147.7 130 147.8 130L147.8 130ZM162.6 136.1 167.1 136 167.1 167.5 162.8 167.5 162.8 137.8 162.6 137.7 162.6 136.1 162.6 136.1ZM162.3 132.6 167.3 132.6C167.4 132.6 167.5 132.7 167.5 132.8L167.5 135.3C167.5 135.4 167.4 135.5 167.3 135.5L162.3 135.5C162.2 135.5 162.1 135.4 162.1 135.3L162.1 132.8C162.1 132.7 162.2 132.6 162.3 132.6L162.3 132.6ZM164.7 127.7C164.6 127.7 164.2 127.8 163.9 128.2 163.9 128.2 163.7 128.5 163.6 128.8 163.4 129.2 163.4 129.7 163.4 129.7 162.9 130 162.5 130.6 163 131.2 163.4 131.6 163.1 131.7 163.1 131.9 163 132.1 163.2 132.2 163.2 132.2L164.8 132.2 164.9 132.2 164.9 132.2 166.5 132.2C166.5 132.2 166.6 132.1 166.6 131.9 166.6 131.7 166.2 131.6 166.7 131.2 167.2 130.7 166.9 130 166.3 129.7 166.3 129.7 166.2 129.2 166.1 128.8 165.9 128.4 165.8 128.2 165.8 128.2 165.3 127.8 164.9 127.7 164.7 127.7L164.7 127.7 164.7 127.7 164.7 127.7ZM153.6 135 154.4 135.1C155.2 135.1 155.5 134.5 155.6 133.9 155.8 133.1 156.6 133.1 156.6 132.2 156.6 131.7 156 131.2 155.5 131.3 155.4 131.3 155.4 131.3 155.4 131.3 155.4 131.3 155.6 131.7 155.5 131.9 155.3 132.4 154.3 132.4 153.9 133.1 153.8 133.4 153.7 133.8 153.7 134.1 153.7 134.4 153.6 134.4 153.6 134.4L153.4 134.4 153.6 135 153.6 135ZM153.6 135.4 154.6 135.4 154.6 136.8 153.6 136.8 153.6 135.4 153.6 135.4ZM153.6 137 162.1 137 162.1 138.6 153.6 138.6 153.6 137 153.6 137ZM140.2 144.5C140.6 144.5 139.4 145.7 138.5 146.1 138.3 146.2 138.2 146.3 138.1 146.5 138 146.7 137.8 147.1 137.8 147.2 137.5 147.5 137.3 147.3 137.3 147.3L137.4 144.5 140.2 144.5 140.2 144.5ZM150.7 124.7 150.7 124.7 150.7 124.7 150.6 124.6C150.5 124.6 150.5 124.6 150.4 124.6 149.9 124.6 149.5 125.5 149.3 126 149.1 126.4 149.1 126.9 149.1 126.9 148.5 127.2 147.8 128.4 148.4 128.9 148.8 129.3 148.4 129.4 148.9 129.4L150.5 129.4 150.5 129.4 150.5 129.4 152.1 129.5C152.6 129.5 152.2 129.3 152.6 129 153.2 128.5 152.5 127.3 151.9 127 151.9 127 151.9 126.5 151.7 126.1 151.6 125.6 151.2 124.7 150.7 124.7L150.7 124.7ZM147.5 135 146.7 135.1C145.9 135.1 145.6 134.5 145.5 133.9 145.3 133.1 144.5 133.1 144.5 132.2 144.5 131.7 145.1 131.2 145.6 131.3 145.7 131.3 145.7 131.3 145.7 131.3 145.7 131.3 145.5 131.7 145.6 131.9 145.8 132.4 146.8 132.4 147.2 133.1 147.3 133.4 147.4 133.8 147.4 134.1 147.4 134.4 147.5 134.4 147.5 134.4L147.7 134.4 147.5 135 147.5 135ZM153.6 139.1 162.1 139.1 162.1 142.4 153.6 142.4 153.6 139.1 153.6 139.1ZM153.6 142.8 162.1 142.8 162.1 144.4 153.6 144.4 153.6 142.8 153.6 142.8ZM153.6 147.4C153.7 147.2 154 146.9 154.3 146.7 155.1 146.3 155.9 145.8 156.2 145.1 156.3 144.8 156.3 144.8 156.3 144.8L156.3 144.8 156.3 144.8 153.5 144.8 153.5 147.4 153.6 147.4ZM162 147.4C162 147.4 161.7 146.9 161.3 146.7 160.5 146.3 159.7 145.8 159.4 145.1 159.3 144.8 159.3 144.8 159.3 144.8L162 144.8 162 147.4 162 147.4ZM162.1 136 162.1 136.6C162.1 136.7 161.5 136.7 161.2 136.6 160.9 136.5 160.2 136.3 160 136.1 159.8 135.8 159.6 135.7 159.7 135.5 159.7 135.2 159.8 135.1 160.1 134.9 160.4 134.7 160.2 134.7 160.3 134.4 160.5 134.1 160.9 133.8 161.5 134L161.7 134 161.7 136.1 162.1 136 162.1 136ZM167.7 136.7 168.6 136.7C169.4 136.8 169.6 136.1 169.8 135.5 170.1 134.5 170.8 134.5 170.8 133.6 170.8 133.1 170.5 132.8 170.1 132.8 170 132.8 170 132.9 170 132.9 170 132.9 170.1 133.2 170 133.4 169.6 133.9 168.5 134.1 168.2 134.7 168.1 134.9 168 135.4 168 135.7 168 136 167.9 136 167.9 136L167.7 136 167.7 136.7 167.7 136.7ZM167.7 142.8 168.8 142.8 168.8 144.4 167.7 144.4 167.7 142.8 167.7 142.8ZM167.6 137 168.8 137 168.8 138.6 167.6 138.6 167.6 137 167.6 137ZM167.8 153.7C167.8 153.7 169 154.4 169.3 155.2 169.6 156 169.5 156.3 169.5 156.3 170.4 156.9 171.5 157.9 171.4 159.3 171.4 160.3 171.1 161 171.1 161 171.1 161 172.1 161.9 172.5 162.6 172.8 163.4 172.6 165.5 172.2 165.5L167.9 165.4 167.8 153.7 167.8 153.7ZM167.8 166 173.3 166 173.3 167.6 167.8 167.6 167.8 166Z" fill="#FFFFFF"/><path d="M122 0 122 0 122 0C155.7 0 186.2 13.7 208.3 35.7 230.4 57.7 244 88.3 244 122L244 122 244 122 244 122 244 122C244 155.7 230.3 186.2 208.3 208.3 186.3 230.4 155.7 244 122 244L122 244 122 244 122 241.2 122 241.2 122 241.2C154.9 241.2 184.7 227.9 206.3 206.3 227.9 184.7 241.2 154.9 241.2 122L241.2 122 241.2 122 241.2 122 241.2 122C241.2 89.1 227.9 59.3 206.3 37.7 184.7 16.1 154.9 2.7 122 2.7L122 2.7 122 2.7 122 0 122 0ZM122 47.7 122 47.7 122 47.7C142.5 47.7 161.1 56 174.5 69.5 187.9 82.9 196.3 101.5 196.3 122L196.2 122 196.2 122 196.2 122 196.3 122C196.3 142.5 187.9 161.1 174.5 174.5 165.6 183.4 154.5 190 142.1 193.5L143.7 195.9C156.2 192.2 167.5 185.5 176.5 176.5 190.4 162.6 199.1 143.4 199.1 122L199.1 122 199.1 122 199.1 122 199.1 122C199.1 100.7 190.5 81.5 176.5 67.5 162.5 53.5 143.3 45 122 45L122 44.9 122 44.9 122 47.7ZM122 244 122 244 122 244C88.3 244 57.8 230.3 35.7 208.3 13.6 186.3 0 155.7 0 122L0 122 0 122 0 122 0 122C0 88.3 13.7 57.8 35.7 35.7 57.7 13.6 88.3 0 122 0L122 0 122 0 122 2.7 122 2.7 122 2.7C89.1 2.7 59.3 16.1 37.7 37.7 16.1 59.3 2.7 89.1 2.7 122L2.7 122 2.7 122 2.7 122 2.7 122C2.7 154.9 16.1 184.7 37.7 206.3 59.3 227.9 89.1 241.2 122 241.2L122 241.2 122 241.2 122 244 122 244ZM122 44.9 122 44.9 122 44.9 122 44.9C100.7 45 81.5 53.5 67.5 67.5 53.5 81.5 45 100.7 45 122L45 122 45 122 45 122 45 122C45 143.3 53.6 162.5 67.6 176.5 76.6 185.5 87.8 192.3 100.4 195.9L102 193.5C89.5 190 78.4 183.4 69.6 174.5 56.1 161.1 47.8 142.5 47.8 122L47.8 122 47.8 122 47.8 122 47.8 122C47.8 101.5 56.1 82.9 69.6 69.5 83 56 101.6 47.7 122.1 47.7L122.1 47.7 122.1 47.7 122.1 47.7 122.1 44.9Z" fill="#004097"/><path d="M137.9 94C138.7 93.9 139.4 93.7 139.8 93.7 140.9 93.5 141.9 92.4 143.2 91.6 144.6 90.8 146.7 89.8 148.2 89.3 149.7 88.8 149.8 88.2 149.8 87.8 149.7 87.4 148.8 86.6 147.2 85.3 145.5 84 144.9 82 143.4 80.5 142.5 79.6 141 78.7 140.3 78.5 139.9 78.4 139.4 78.3 138.8 78.2 138.8 77.9 138.9 75.9 138.6 75.3 138.4 74.7 138.2 74.2 138 73.6L138 80.3C139.9 80.5 140.8 81 141.8 81.9 142.8 82.8 143.2 84 143.8 84.9 144.5 85.8 146.3 87.5 146.3 87.5 146.3 87.5 143.4 88.4 142 89.4 140.4 90.5 139.6 91.3 138 91.5L138 94ZM133 96.1C133.4 95.5 133.8 94.6 134 93.7 134 93.6 134.1 93.5 134.1 93.5L134.2 93.6C134.2 93.6 135.5 94 136.8 94.1 137.2 94.2 137.6 94.1 137.9 94.1L137.9 91.7C137.6 91.8 137.3 91.8 136.9 91.8 135.9 91.7 134.8 91.4 134.4 91.3 134.3 91.3 134.2 91.2 134 91.2 133.8 90.4 133.4 89.7 133 89.2L133 96.1 133 96.1ZM137.9 73.7C137.3 72.2 136.8 70.6 136.8 68.2 136.8 67.8 136.9 67 136.5 66.9 136.1 66.8 135.3 66.4 134.7 66.8 134.3 67 133.7 67.3 133.1 67.4L133.1 69.9C133.5 69.8 133.8 69.7 134 69.6 134.6 69.3 134.7 69.3 134.7 69.3 134.7 69.3 135 70.7 135 71.4 135 72 135.4 73.3 135.7 73.9 136.4 75.5 136.5 76.4 136.5 78.1L136.5 78.2C135.4 78.3 134.2 78.5 133.2 78.9L133.2 78.9 133.2 81.6C134.3 80.8 135.5 80.3 137.5 80.4 137.7 80.4 137.9 80.4 138.1 80.5L138.1 73.7ZM130.8 97.9C131.7 97.5 132.4 96.9 133 96.1L133 89.1C132.8 88.8 132.6 88.6 132.4 88.4 132 88 131.5 87.4 130.8 86.9L130.8 89.6C131.3 90.2 131.7 91 131.9 91.9 132.1 92.8 131.7 94.1 130.8 95.1L130.8 97.9 130.8 97.9ZM133 67.4C132.6 67.6 132.2 67.7 131.8 67.7 131.5 67.8 131.2 67.9 130.8 67.9L130.8 70.3C131.6 70.1 132.4 70 133 69.8L133 67.4 133 67.4ZM133 78.9 133 81.6C132.7 81.8 132.4 82 132.1 82.2 131.6 82.6 131.1 83.2 130.7 83.8L130.7 80.2C131.4 79.7 132.1 79.2 133 78.9ZM129.9 98.2C130.2 98.1 130.5 98 130.8 97.9L130.8 95C130.5 95.3 130.3 95.5 129.9 95.8L129.9 98.2 129.9 98.2ZM130.8 68C130.5 68.1 130.2 68.2 129.9 68.2L129.9 70.6C130.2 70.5 130.5 70.5 130.8 70.4L130.8 68 130.8 68ZM130.8 80.2 130.8 83.8C130.4 84.6 130 85.3 129.9 85.7L129.9 81.1C130.1 80.8 130.5 80.5 130.8 80.2L130.8 80.2ZM130.8 86.9 130.8 89.6C130.5 89.3 130.2 89 129.9 88.8L129.9 86.4C130.3 86.5 130.5 86.7 130.8 86.9L130.8 86.9ZM129.9 79.9 129.9 78C130.1 78.3 130.2 78.6 130.2 79 130.2 79.3 130.1 79.6 129.9 79.9ZM128.3 101.7C128.9 100.6 129.4 99.4 129.8 98.2L129.9 98.2 130 98.2 130 95.7C129.8 95.8 129.6 95.9 129.4 96 129.1 96.1 128.8 96.2 128.5 96.2L128.5 101.7 128.3 101.7ZM129.9 68.2C129.4 68.4 128.7 68.5 128.3 68.7L128.3 71C128.5 70.9 128.7 70.9 128.8 70.8 129.1 70.7 129.5 70.6 129.8 70.5L129.8 68.2 129.9 68.2ZM129.9 77.9 129.9 79.8C129.6 80.3 129 80.7 128.3 80.7L128.3 77C129 77 129.6 77.4 129.9 77.9L129.9 77.9ZM129.9 81.1 129.9 85.7C129.8 86 129.8 86.1 129.8 86.1L129.7 86.3C129.8 86.3 129.9 86.4 129.9 86.4L129.9 88.8C129.5 88.5 128.9 88.3 128.3 88.1L128.3 83.7C128.4 83.5 128.5 83.4 128.6 83.2 129 82.4 129.4 81.8 129.9 81.1ZM121.6 106.6C123.5 106.5 125 105.6 126.2 104.4 127 103.6 127.7 102.7 128.3 101.6L128.3 96.2C127 96.5 125.5 96.8 124.7 97.3 123.6 98.1 122.1 99.6 121.6 100.1L121.6 103C122 102.8 122.8 101.9 124.6 100.1 125.6 99.2 126.3 98.8 127.1 98.6 127 98.9 126.9 99.4 126.6 100.1 125.8 102 123.9 104.3 121.6 104.3L121.6 106.6 121.6 106.6ZM128.3 68.7C128.2 68.7 128.2 68.8 128.2 68.8 125.6 69.9 123.9 71.2 121.7 72.8 121.7 72.8 121.7 72.9 121.6 72.9L121.6 75.3C124 74.8 125.9 72.2 128.3 71.1L128.3 68.7 128.3 68.7ZM128.3 77 128.3 80.8C127.3 80.8 126.4 79.9 126.4 78.9 126.4 77.8 127.3 77 128.3 77L128.3 77ZM128.3 83.7 128.3 88C127.9 87.9 127.5 87.9 127.1 87.9 125.5 88 123.4 89.4 122.5 90.2 122.2 90.4 121.9 90.4 121.7 90.4L121.7 81.3 122.9 81.3 122.9 87.2C123 87.1 123.1 87.1 123.2 87 123.2 86.8 123.3 86.5 123.4 86 123.5 85.5 123.8 84.9 124 84.2 124.6 82.8 125.8 81.2 125.8 81.2L127.6 82.5C127 83.1 126.4 84.4 126 85.4 125.9 85.6 125.8 85.8 125.7 86 126.3 85.8 127 85.7 127.6 85.8 127.6 85.4 127.8 84.6 128.3 83.7L128.3 83.7ZM121.6 79.7 121.6 75.9C122.7 75.9 123.5 76.8 123.5 77.8 123.6 78.8 122.7 79.7 121.6 79.7ZM114.9 101.7C115.5 102.7 116.1 103.6 117 104.5 118.2 105.7 119.8 106.6 121.6 106.7L121.6 104.5C119.4 104.5 117.4 102.2 116.6 100.3 116.3 99.5 116.2 99.1 116.1 98.8 116.9 99 117.6 99.4 118.6 100.3 120.4 102 121.2 102.9 121.6 103.2L121.6 100.3C121.1 99.8 119.6 98.3 118.5 97.5 117.8 97 116.3 96.7 114.9 96.4L114.9 101.7 114.9 101.7ZM121.6 72.8C121.6 72.8 121.6 72.8 121.6 72.8 119.3 71.1 117.7 69.8 115.1 68.7 115 68.7 115 68.6 114.9 68.6L114.9 71C117.3 72 119.2 74.6 121.6 75.2L121.6 72.8 121.6 72.8ZM121.6 75.8 121.6 79.6C120.6 79.6 119.7 78.7 119.7 77.7 119.7 76.7 120.6 75.8 121.6 75.8L121.6 75.8ZM121.6 81.3 121.6 90.4C121.5 90.5 121.2 90.5 120.8 90.2 119.8 89.4 117.7 88 116.1 87.9 115.7 87.9 115.3 88 114.9 88L114.9 83.6C115.4 84.6 115.6 85.3 115.7 85.7 116.3 85.6 117 85.8 117.6 85.9 117.5 85.7 117.5 85.5 117.4 85.3 117 84.3 116.3 83.1 115.8 82.4L117.6 81.1C117.6 81.1 118.8 82.7 119.3 84.1 119.6 84.8 119.8 85.3 119.9 85.9 120 86.3 120 86.7 120.1 86.9 120.2 87 120.3 87.1 120.4 87.1L120.4 81.2 121.6 81.2 121.6 81.3ZM114.9 80.8 114.9 77C116 77 116.8 77.8 116.8 78.9 116.8 79.9 116 80.8 114.9 80.8ZM113.5 98.2C113.8 99.3 114.4 100.5 115 101.7L115 96.3C114.7 96.2 114.4 96.1 114.1 96.1 113.8 96 113.6 95.9 113.3 95.8L113.3 98.3C113.4 98.2 113.4 98.2 113.5 98.2L113.5 98.2 113.5 98.2ZM114.9 68.7C114.5 68.5 113.9 68.4 113.3 68.2L113.3 70.6C113.7 70.7 114.1 70.8 114.4 70.9 114.6 71 114.8 71 114.9 71.1L114.9 68.7 114.9 68.7ZM114.9 77 114.9 80.8 114.9 80.8C114.3 80.8 113.6 80.4 113.3 79.9L113.3 78C113.6 77.4 114.3 77 114.9 77L114.9 77 114.9 77ZM114.9 83.7 114.9 88C114.4 88.2 113.8 88.4 113.3 88.7L113.3 86.3C113.4 86.2 113.5 86.2 113.6 86.2L113.5 86C113.5 86 113.4 85.9 113.3 85.6L113.3 81C113.8 81.6 114.3 82.3 114.6 83.1 114.8 83.3 114.9 83.5 114.9 83.7ZM113.3 68.2C113 68.1 112.7 68.1 112.4 68L112.4 70.4C112.7 70.5 113 70.5 113.3 70.6L113.3 68.2 113.3 68.2ZM112.4 97.9C112.7 98 113 98.1 113.3 98.2L113.3 95.7C113 95.5 112.6 95.3 112.4 94.9L112.4 97.9 112.4 97.9ZM113.3 77.9 113.3 79.8C113.1 79.5 113 79.2 113 78.8 113 78.5 113.1 78.2 113.3 77.9L113.3 77.9ZM113.3 81.1 113.3 85.7C113.1 85.3 112.9 84.5 112.4 83.8L112.4 80.2C112.8 80.5 113 80.8 113.3 81.1L113.3 81.1ZM113.3 86.4 113.3 88.8C113 89 112.6 89.3 112.4 89.6L112.4 86.9C112.7 86.7 113 86.5 113.3 86.4ZM112.4 68C112 67.9 111.7 67.8 111.4 67.8 111 67.7 110.6 67.6 110.2 67.5L110.2 70C110.8 70.2 111.6 70.3 112.4 70.5L112.4 68 112.4 68ZM110.2 96.1C110.7 96.9 111.5 97.6 112.4 97.9L112.4 95C111.5 94 111 92.7 111.3 91.8 111.6 90.9 111.9 90.1 112.4 89.5L112.4 86.8C111.8 87.3 111.3 87.9 110.8 88.3 110.6 88.5 110.4 88.7 110.2 89L110.2 96.1 110.2 96.1ZM112.4 80.2 112.4 83.8C112.1 83.2 111.6 82.6 111.1 82.2 110.8 81.9 110.5 81.8 110.2 81.6L110.2 78.9C111.1 79.2 111.8 79.7 112.4 80.2ZM110.2 67.4C109.5 67.2 109 67 108.6 66.8 108 66.4 107.2 66.8 106.8 66.9 106.4 67 106.5 67.8 106.5 68.2 106.4 70.5 105.9 72.1 105.4 73.7L105.4 80.4C105.6 80.3 105.8 80.3 106 80.3 108 80.1 109.1 80.7 110.3 81.5L110.3 78.8 110.3 78.8C109.2 78.4 108 78.2 106.9 78.1L106.9 78C106.9 76.3 107.1 75.4 107.8 73.8 108.1 73.2 108.5 71.9 108.5 71.3 108.5 70.7 108.8 69.2 108.8 69.2 108.8 69.2 108.9 69.2 109.5 69.5 109.7 69.6 110 69.7 110.4 69.8L110.4 67.4 110.2 67.4ZM105.3 94C105.6 94 106.1 94.1 106.4 94 107.8 93.9 109 93.5 109 93.5L109.1 93.4C109.1 93.5 109.1 93.6 109.2 93.6 109.4 94.5 109.7 95.3 110.2 96L110.2 89C109.8 89.5 109.4 90.2 109.2 91 109.1 91.1 109 91.1 108.9 91.1 108.5 91.2 107.3 91.5 106.3 91.6 105.9 91.6 105.6 91.6 105.3 91.5L105.3 94ZM105.3 73.7C105.1 74.3 104.8 74.8 104.6 75.4 104.4 76 104.4 77.9 104.5 78.3 103.9 78.4 103.4 78.5 103 78.6 102.3 78.8 100.8 79.7 99.9 80.6 98.4 82.1 97.8 84.1 96.1 85.4 94.4 86.7 93.6 87.5 93.5 87.9 93.4 88.3 93.6 88.9 95.1 89.4 96.6 89.9 98.7 90.9 100 91.7 101.4 92.5 102.3 93.6 103.5 93.8 103.8 93.9 104.6 94 105.4 94.1L105.4 91.7C103.7 91.5 102.9 90.8 101.4 89.6 100 88.6 97.1 87.7 97.1 87.7 97.1 87.7 98.9 86 99.6 85.1 100.3 84.1 100.6 83 101.6 82.1 102.6 81.2 103.4 80.8 105.4 80.5L105.4 73.7Z" fill="#FFFFFF"/><path d="M21.6 85.8C21.6 85.8 20.8 84.7 20.6 85.5 20.4 86.4 20.1 87 19.8 87 19.5 87 18.7 86.7 18.7 86.4 18.8 86 19.1 84.9 18.8 84.9 18.4 84.8 16.6 84.2 16.6 84.2 16.6 84.2 15.4 83.9 15.2 83.3 15 82.8 15.1 81.5 15.5 80.9 16 80.2 16.3 80.5 16.5 80.5 16.8 80.4 17.2 80.2 17.7 80.9 18.2 81.6 19.8 82.8 19.6 82.1 19.4 81.5 19.2 80 18.6 78.6 17.8 76.9 16.4 75.4 16.7 74.8 17 73.8 18 73.4 18.4 73.3 18.9 73.2 20 74.2 20 74.2 20 74.2 19.9 75.8 20.2 76.8 20.8 78.9 20.6 79.2 20.8 81 21 81.9 20.5 83.3 21.5 83.4 22.4 83.5 25 87 24.7 85.5 24.6 84.8 24.8 84.9 24.4 84.5 24.1 84.1 22.8 82.2 23.5 82.2 24.2 82.2 25.1 82.2 24.4 81.6 23.8 81 22.9 79.7 22.6 79.3 22.2 78.9 21.4 77.9 22.1 77.5 22.8 77.1 23.2 77.3 23.6 77.8 23.9 78.2 24 78.9 24.5 79.1 24.8 79.2 25.1 79.6 25 78.9 24.8 78.1 24.2 76.6 24.1 76.4 24 76.2 24.4 75 24.7 74.7 25 74.4 25.2 75 25.3 75.5 25.4 75.8 25.7 77 25.8 78 25.9 78.8 25.7 79.8 25.9 80.1 26.2 80.6 28.2 84.4 28.5 84.8 28.8 85.1 28.9 84.9 29 84.9 29.1 84.8 29.1 84.9 29 84.7 28.8 83.8 28.6 78.2 28.9 77.4 29.2 76.6 29.3 75.9 29.7 76 30 76.2 30.7 77.1 30.7 77.6 30.7 78.1 30.4 78.8 30.1 79.4 29.8 80 29.9 83.6 30 84.2 30.1 84.8 30.1 85.4 30.1 85.4 30.6 85.6 34.1 87.8 34.7 87.3 34.8 87.2 34.8 87.1 34.8 86.9 34.7 86.1 34.8 84.8 35.4 84.7 36 84.6 36.7 85 36.6 85.6 36.4 86.2 35.9 87.8 36.4 88 36.9 88.2 41.7 89.5 42.6 89.7 43.5 89.9 46.3 91 45.1 92.1 43.9 93.2 43 93.6 42.6 93.6 42.2 93.6 41.7 93.6 42 93.1 42.3 92.6 42.5 92.3 40 91.2 37.6 90.1 36.7 89.6 36.7 90 36.6 90.3 36.9 92 37.2 92.2 37.5 92.4 38.8 93.7 37.8 94.5 36.7 95.4 35.4 95 35.4 94.6 35.4 94.1 35.5 94.2 35.5 93.9 35.4 93.5 34.9 91.5 34.9 90.6 34.9 89.7 35.1 89.5 35.1 89.5L30.9 87.9C30.9 87.9 30.3 87.7 30.5 88.8 30.7 89.8 31 92.6 32.1 95.5 33.1 98.4 33.9 98.6 33.6 99.8 33.3 101.1 32.5 102 32.4 101.6 32.2 101.1 31.3 101.6 31.1 101.1 29.7 98 29.8 92.9 29.4 89.6 29.2 88.3 29.1 87.3 29.1 87.3 29.1 87.3 26.5 85.8 26.1 85.6 25.8 85.4 26 86.8 26.2 88.4 26.3 89 26.1 89.5 26.3 89.9 26.6 90.8 27 92.1 26.2 92.4 23.7 93.5 24.6 89.3 24.4 88.6 24.3 88.3 24.1 88.5 23.9 88.3 23.5 87.3 22.5 86.5 21.6 85.8Z" fill="#004097"/><path d="M53.8 55.7C53.8 55.7 54 54.9 54.7 55 56.1 55.1 61.6 59.7 61.4 60.8 61.3 61.2 59.7 63.2 59.2 63.1 58.7 62.9 58.2 61.8 57.9 61 56.9 59.1 55.2 57.3 53.8 55.7Z" fill="#004097"/><path d="M63 40.5C64.6 42.4 66.2 44.2 67.3 45.5 70.3 48.7 72 50.6 72 50.6 72 50.6 71.9 52.4 70.2 52.5 68.5 52.7 65.6 52.8 65.3 52.7 65 52.5 65 52.5 65.8 52.1 66.6 51.7 68.2 51.4 68.2 50.8 68.2 50.2 64.5 46.2 63 44.3L63 40.5 63 40.5ZM63 55.7C63.1 55.8 63.1 55.8 63.1 55.8 64 56.6 64.6 56.7 65.6 56.6 66.6 56.4 65.7 55 65.7 55 65.7 55 63.3 52.3 63.1 51.9 62.9 51.5 63.2 50.3 63.2 49.5 63.2 49.2 63.1 49.1 63 49.1L63 55.7ZM60.5 37.3C61.3 38.4 62.2 39.5 63 40.5L63 44.3C63 44.2 63 44.2 62.9 44.2 62.3 43.4 61.3 42 60.4 40.7L60.4 37.3 60.5 37.3ZM63 49 63 55.6C62.2 54.8 62 54.6 61.7 55.1 61.5 55.5 60.7 56.3 60.5 56.2L60.5 55.8C60.9 54.8 61.4 54.2 61.4 54.2L60.5 53.3 60.5 52.3C61.1 51.9 62 51.3 62 51.3 62 51.3 61.9 49.7 62.2 49.4 62.3 49.2 62.8 48.9 63 49L63 49ZM60.5 49.5C60.7 49.2 60.9 48.9 61 48.7 61.2 48.4 60.8 48.2 60.5 48L60.5 49.5ZM59.3 35.6C59.7 36.1 60.1 36.7 60.5 37.3L60.5 40.8C60.1 40.2 59.6 39.5 59.3 39L59.3 35.6 59.3 35.6ZM60.5 48 60.5 49.5C60.2 50 59.9 50.6 59.9 50.9 59.9 51.4 59.5 51.3 59.5 51.3 59.5 51.3 59.4 51.3 59.3 51.4L59.3 48.3C59.5 48.1 59.8 47.9 60 47.9 60.1 47.9 60.4 47.9 60.5 48L60.5 48ZM60.5 52.3 60.5 53.3 60 52.7C60 52.6 60.2 52.4 60.5 52.3L60.5 52.3ZM60.5 55.8 60.5 56.2C60.5 56.2 60.4 56.1 60.5 55.8 60.5 55.9 60.5 55.9 60.5 55.8ZM49.5 51.1C49.5 51.1 49.5 52.5 49.2 52.9 48.9 53.3 48.4 53.3 48.1 53.4 47.8 53.5 48 53.2 47.7 53.5 47.4 53.8 45.6 53.9 46.2 52.8 46.7 51.7 47 51.8 47.1 51.2 47.3 50.6 47.8 48.4 48 47.4 48.3 46.3 49 44.1 49 44.1 49 44.1 49.4 43.3 48.2 41.6 47 39.8 46.4 38.6 46 38.1 45.6 37.6 45.6 37.1 46.1 37.1 46.6 37.2 49.8 37.6 50.1 37.6 50.4 37.7 50.6 37.8 50.9 37.1 51.1 36.4 51.3 35.4 51.9 36 52.5 36.6 53.5 37.6 53 39.3 52.5 41 52.1 41.7 52.7 43.8 53.2 45.9 53.2 47.4 53.5 47.6 53.8 47.8 54 49.2 54.4 48.9 54.8 48.7 55.6 47.4 55.6 45.6 55.7 44.3 55.2 43.7 55.1 43.2 55 43.1 55 43.1 55 43.1 54.7 42.3 55 41.6 55.5 41.4 55.6 41.4 55.6 41.4 55.6 41.4 56.2 39.3 56.2 37.1 57.2 34.9 57.6 34.2 58.3 33.7 58.7 34.4 58.9 34.8 59.1 35.2 59.4 35.6L59.4 39C58.8 38.1 58.4 37.4 58.3 37.2 58.1 36.8 57.7 36.3 57.4 38.4 57.1 40.5 56.8 41 57.5 41.2 58.1 41.4 59 41.7 58.6 43.1 58.2 44.6 57.1 45.7 57.2 46.2 57.4 46.7 57.3 47.9 57.6 48.4 57.9 48.8 57.7 49.9 57.1 49.8 56.5 49.7 55.8 49.6 55.8 49.6L55.8 52.8C55.8 52.8 53.6 54.7 53.9 53.8 54.1 52.8 54.7 51.8 54.7 51 54.7 50.2 53.7 49.9 53.4 49.1 53.1 48.3 51.8 45.4 51.3 45.8 50.8 46.1 50 49 50 49.8 49.7 50.8 49.5 51.1 49.5 51.1L49.5 51.1ZM59.3 48.3C59 48.7 58.8 49.1 58.8 49.4 58.9 49.8 57.3 50.5 57.5 51.2 57.7 51.9 58.2 52.1 58.6 51.8 58.9 51.6 59.1 51.5 59.2 51.4L59.2 48.3Z" fill="#004097"/><path d="M104.5 16.8 102.9 17.7C102.9 17.7 103 16.3 104.8 14.6 106.6 12.9 108.3 11 109.1 10.7 110 10.4 111.4 10.3 111.4 11.2 111.5 12.2 111 13.8 110.6 14.5 110.3 15.2 109.5 22.2 109.4 22.7 109.3 23.3 107.8 24.3 107.3 24.4 106.9 24.6 106.9 25.4 107 27 107.1 28.6 107.1 29 107.7 28.9 108.3 28.9 110 28.3 110.1 29.3 110.2 30.3 108.4 33.5 108.3 33.7 108 34.4 107.8 35 108.5 34.9 109.3 34.8 110.1 34.1 110.9 33.9 111.7 33.7 111.8 33.8 112.4 34.5 113 35.3 112.8 36.6 111.3 36.9 109.7 37.2 109.8 37.4 109 37.5 108.1 37.6 105.8 37.6 105.5 36.6 105.2 35.6 106.5 35.8 106.3 35.2 106.1 34.6 106.4 32.2 106.1 32.3 105.8 32.3 104.5 31.8 105 31.2 105.1 31 105.4 30.9 105.5 30.4 105.7 29.5 105.4 28 105.2 27.7 104.9 27.2 103.5 26.8 104 25.9 104.2 25.6 104.3 25.6 104.5 25.2 104.8 24.5 104.8 23.2 105 22.9 105.3 22.5 104.8 22.4 104.3 22.5 103.9 22.6 103.3 21.9 103.8 21.3 104.1 20.9 105.1 21.1 105.4 20.3 105.6 19.9 105.5 18.9 105.6 18.4 105.8 17.1 105.8 17.2 105.8 17.2 105.8 17.2 106.7 16.3 106.8 16.9 107 17.5 106.9 18.6 106.9 19.3 106.9 20 107.2 20.8 107.6 20.2 108 19.6 108.8 14.6 109.1 13.8 109.4 13 109.3 11.8 108.8 12.4 107.5 14 105.6 15.4 104.5 16.8Z" fill="#004097"/><path d="M100.1 19.2C99.8 19.1 99.3 18.6 100.2 18.3 101.1 18 102.4 17.8 102.5 18.6 102.6 19.4 103.1 22.2 103.1 22.6 103.2 23.1 103.4 24.2 102 24.1 100.7 24 100.8 23.1 100.8 21.9 100.8 20.8 100.5 19.3 100.1 19.2Z" fill="#004097"/><path d="M94.6 21.9C94.6 21.9 94.3 22.1 94 22.4 93.6 22.8 93.5 23.1 93 23.2 92.7 23.2 91.2 22.7 91.1 22.3 91.1 22 90.9 21.6 91.2 21.2 92.1 20.2 94.4 18.8 94.9 18.3 95.5 17.7 97.1 16.3 97.3 17.1 97.4 17.5 98.4 18 98.4 18.7 98.4 19.7 97.7 21.3 97.7 21.9 97.7 23 97.5 26.2 97.5 26.2 97.5 26.2 98.4 26.3 98.3 27 98.1 27.6 97 28.2 97.8 28.7 98.5 29.2 98.8 28.8 98.9 28.1 99.1 27.4 99.4 26.6 99.4 26.6 99.4 26.6 99.3 28.4 98.4 31.9 97.4 35.4 96.6 36.8 95.8 37.4 95 37.9 94 37.6 94.3 36.7 94.6 35.9 94.5 34.9 94.7 34.4 94.9 33.9 95.4 32.6 95.5 32.3 95.6 32 95.4 30.5 94.9 30.4 94.4 30.4 93.1 31.3 92.5 31.4 91.9 31.6 92.4 29.5 92.4 29.6 92.6 29.9 92.8 29.3 93 29.1 93.7 28.5 94.6 28.1 94.6 28.1 94.6 28.1 95.6 27.9 95.4 26.4 95.3 24.9 95.3 22.7 95.1 22.2 94.8 21.7 94.6 21.9 94.6 21.9Z" fill="#004097"/><path d="M150.8 20C150.9 19.9 150.5 19.6 150.6 19.4 150.8 19.1 151.6 18.9 152.4 19.4 153.8 20.4 154.6 20.6 157.4 21 160.2 21.4 160.9 20.8 161.6 21 162.2 21.2 164.1 22.7 164.1 22.7 164.1 22.7 164.2 23.9 163.5 24.4 163.1 24.7 160.3 26.7 158.3 28.6 156.9 29.8 156 31 155.9 31.1 155.4 31.9 156.5 31.5 157.7 31.3 158 31.2 158.2 30.8 158.5 30.8 159 30.9 160 31.6 160.1 31.9 160.4 32.2 159.9 34 157.7 33.7 155.4 33.3 153.4 33.9 151 34.5 148.7 35.1 145.6 36.2 144.8 36.9 143.9 37.6 142.7 36.5 141.6 35.8 141.2 35.5 140.8 35.3 140.5 34.6 140.2 33.7 140.3 32.4 141 32.5 142.2 32.6 141.9 32.5 143.3 32.7 144.6 33 143.9 33 145.9 32.4 148 31.9 149.7 31.5 150.3 31.4 150.8 31.2 155.6 26.8 156.5 26.2 157.4 25.6 161.4 22.9 160.5 22.6 159.7 22.3 156.1 23.5 155 23.6 154.7 23.7 154.7 24.1 154.5 24.2 153.7 24.4 152.4 24 151.8 23 151.2 22.3 150.7 20.7 150.8 20Z" fill="#004097"/><path d="M193 53.2C193.1 53.2 192.7 54.1 192.7 55.1 192.7 56.1 192.9 58.7 193.3 59.8 193.7 61 194.3 62.4 194.6 62.9 194.9 63.3 195.4 64.5 194.2 63.9 193.5 63.5 192.8 62.6 192.2 62.2 191.3 61.6 190.5 61.4 190.1 61 189.5 60.5 189.6 60.2 189.8 58 190 56.5 190.7 55.6 190.7 55 190.8 54.3 190.9 53.4 191.5 53.3 192.1 53.2 193 53.2 193 53.2Z" fill="#004097"/><path d="M196.8 43.3C197 43 197 42.6 197 42.2 197 41.8 197.6 41.7 198.3 41.4 199.1 41.2 199 41.2 199.6 42.1 200.2 43 201.1 43.7 200.2 44.9 199.6 45.8 197 48.6 197.2 48.9 197.5 49.3 197.1 48.7 197.8 48.8 198.6 49 199.5 48.8 199.7 49.2 200.1 50.1 198.8 51.7 198.1 51.4 197.6 51.2 196.2 50 195.2 50.5 194.7 50.8 194 51.4 193.3 51.8 192.7 52.1 192 52.1 191.5 52.4 190.2 53.3 187.9 54.3 187.4 54.4 186.9 54.5 183 55.2 181.6 55.4 180.1 55.6 178.5 55.3 177.6 55.3 175.8 55.4 174.1 55.2 172 55 171.7 55 171.9 54.3 173.2 54.1 173.9 54 176.1 53.6 178.3 53.3 180.1 53.1 181.9 53.4 183.2 52.9 186.1 51.8 189.5 51.5 190.2 50.5 190.8 49.4 190.4 49.9 189.3 49.9 188.2 50 186.5 50.1 185.5 48.8 185.2 48.4 185.1 48 185.2 47.8 185.3 47.5 185.5 47.1 185.8 47 186.1 46.9 186.7 47.2 187 47.2 188.1 47.4 190.7 47.5 191.3 47.7 191.9 47.9 193.7 47.8 193.9 47.5 194.1 47.4 196.5 43.6 196.8 43.3Z" fill="#004097"/><path d="M219.9 85.1C220.1 85 220.3 85 220.4 85 220.8 85.1 221.3 85.9 220.9 86 220.6 86.1 220.3 86.3 219.9 86.4L219.9 87.6C220.1 87.7 220.4 87.6 220.7 87.5 221.4 87.3 221.3 87.1 221.7 86 222.1 84.9 222.9 86 223.4 86.5 223.8 86.9 224.9 87.7 225.1 88.3 225.3 88.9 224.2 88.8 223.6 88.7 222.9 88.5 221.1 88.5 219.9 88.4L219.8 88.4 219.8 89.3C219.9 89.3 220 89.3 220.1 89.2 221.6 89.1 223.3 90.1 224.6 90.5 225.2 90.7 226 90.9 226.7 90.7 227.4 90.5 227.9 89.9 228 89.4 228.1 89 228.4 88.1 227.5 87.7 226.6 87.4 224.4 85.5 223.8 85.4 223.2 85.2 222.7 84.8 222.8 84.3 223 83.8 222.5 83.4 222.8 82.9 223.2 82.4 223.7 82.4 224.6 82.7 225.5 83 226.9 83.5 227.9 83.9 229 84.3 229.3 83.7 229.8 83.7 230.3 83.8 230.4 83.3 230.4 81.9 230.5 80.4 229.3 80.3 229.3 80.7 229.2 81 229.1 80.8 227.8 81.6 226.5 82.4 222.2 81.4 221.8 81.3 221.4 81.2 221.4 80.6 221 80 220.6 79.5 220.3 79.1 219.9 78.9 219.8 78.8 219.8 78.8 219.8 78.8L219.8 79.9C220 80.2 220.1 80.5 220 80.7 219.9 80.8 219.9 80.8 219.8 80.8L219.8 81.8C220.4 82.2 220.8 82.4 220.7 82.9 220.6 83.4 220.6 83.6 220.3 83.3 220.1 83.1 219.9 83.1 219.8 83.1L219.8 85.1 219.9 85.1ZM219.9 78.4 219.9 76.5C220 76.6 220.1 76.6 220.1 76.8 220.5 77.3 220 78 220 78 220 78 220 78.2 219.9 78.4ZM218.6 85.4C218.7 85.3 218.8 85.2 219 85.2 219.3 85.3 219.6 85.1 219.9 85.1L219.9 83.3C219.8 83.3 219.7 83.3 219.7 83.3 219.7 83.3 219.2 83 219 82.8 218.8 82.5 218.9 81.4 219.7 81.9 219.8 82 219.8 82 219.9 82L219.9 81C219.7 81.2 219.4 81.2 219.1 81 218.8 80.7 218.7 80.7 218.7 80.7 218.7 80.7 218.5 80.4 218.5 80.2L218.5 81.4 218.5 81.5 218.5 85.4 218.6 85.4ZM219.9 86.5C219.7 86.6 219.5 86.6 219.3 86.5 219 86.4 218.7 86.4 218.5 86.3L218.5 87.3C218.6 87.3 218.7 87.4 218.9 87.5 219.2 87.7 219.5 87.8 219.9 87.8L219.9 86.5 219.9 86.5ZM219.9 76.4 219.9 78.3C219.8 78.5 219.8 78.8 219.9 79L219.9 80.1C219.8 79.9 219.7 79.7 219.6 79.6 219.3 79.1 219.2 79.5 218.7 79.8 218.6 79.9 218.5 80 218.5 80.1L218.5 77.9C218.7 77.6 218.8 77.4 218.9 77.2 219.2 76.5 219.6 76.2 219.9 76.4L219.9 76.4ZM219.9 88.6 219.9 89.5C219.3 89.5 218.9 89.4 218.5 89.4L218.5 88.4C219 88.5 219.5 88.6 219.9 88.6ZM218.2 86.2C218.3 86 218.3 85.6 218.6 85.4L218.6 81.5C218.5 81.8 218.4 82.1 218.2 82.3 217.8 82.4 217 82.4 217 82.4 217 82.4 216.8 81.4 217.9 81.1 218.4 80.9 218.6 81.2 218.7 81.5L218.7 80.3C218.7 80.3 218.7 80.2 218.7 80.2L218.7 78C218.1 78.9 217 80.2 216.3 80.9 215.4 81.9 214.4 81.7 214.7 81.3 215 80.9 215.2 79.7 215.4 79.4 215.6 79 215.4 78.5 215.1 77.9 214.8 77.3 214.6 78.1 214.1 79 213.7 79.9 213.1 80.7 212.7 80.8 212.3 81 212.2 81.1 211.8 81.6 211.3 82.1 211.8 82 212.4 82.3 213 82.6 215.3 82.7 216.1 82.8 216.9 82.9 217.3 83.6 217.2 84.1 217.1 84.6 215.7 84.3 215.3 84 214.8 83.8 214.1 84.1 214.3 84.4 214.5 84.8 215.4 84.9 216.8 85.4 218.2 85.9 217.6 86.4 217.3 86.5 217 86.6 216.4 86.4 215.9 86.9 215.5 87.4 217.5 87.4 217.8 87.4 218.1 87.4 218.3 87.3 218.6 87.5L218.6 86.5C218.3 86.3 218.2 86.2 218.2 86.2L218.2 86.2ZM218.6 88.5 218.6 89.5C218.2 89.4 217.9 89.5 217.8 89.9 217.6 90.7 218.5 91.8 218 92 217.4 92.2 216.9 92.7 215.5 91.3 214 89.9 213.1 89.8 212 89.4 211 89 209.1 88.5 209.7 89.2 210.2 89.9 210.6 90.4 211 90.4 211.4 90.5 212.5 92.3 211.9 93.4 211.4 94.4 211.1 93.9 209.9 93.2 208.7 92.4 207.6 92 207.4 91.7 207.2 91.5 208.4 91.6 208.9 91.5 209.3 91.4 209.9 91.5 209.2 90.8 208.2 89.8 207.9 90.1 207.4 90.6 206.9 91 206 91.7 205.7 91.8 205 92.1 202.5 93.6 201.9 93.8 201.4 94 199.5 94.2 199.4 93.4 199.3 93.1 199.3 92.6 199.2 92 199 90.8 198.7 89.5 198.7 89.3 198.7 89 199 88.3 199.4 89 199.8 89.6 200.3 91.3 200.8 91.5 200.9 91.5 201.1 91.3 201.6 91.2 202.1 91.1 202.8 91.1 203.3 90.9 204.3 90.4 205.1 89.7 205.5 89.5 206.1 89.1 206.4 88.9 205.3 87.9 204.2 86.9 201.4 86 200.4 84.2 200.2 83.8 199.6 82.8 199.6 82.5 199.6 82.2 200.3 81.8 200.5 81.8 200.8 81.7 201.2 82.6 201.4 82.8 201.7 83.5 202.9 84.6 203.6 84.9 203.9 85 204.1 85 204.6 85.2 205.5 85.6 206.6 86.2 207 86.6 207.7 87.1 208.4 87.3 208.9 87.2 209.5 87.1 210.2 88 210.7 88.2 211.1 88.4 213.2 89 213.9 88.7 214.6 88.4 214.9 88.4 214.4 88.3 213.9 88.1 210.9 85.8 210.2 84.6 210.1 84.5 209.1 84.1 209.1 84 208.6 83 209.7 82.8 210.5 83.7 211.4 84.7 211.9 85.3 212.9 85.8 213.9 86.3 214.4 86.3 215.4 87.3 216.4 88.2 216.7 88.6 217.1 88.5 217.1 88.4 217.8 88.4 218.6 88.5Z" fill="#004097"/><path d="M214.5 176.1 214.5 174.3C214.6 174.2 214.7 174.2 214.8 174.2 215.1 174 215.3 173.8 215.4 173.4 215.6 173.1 215.7 172.8 215.7 172.4 215.8 172.1 215.6 171.6 215.4 171.2 215.2 170.8 214.9 170.5 214.5 170.1L214.5 167.9C215.5 168.9 216.4 169.8 216.7 170.4 217.4 171.7 217.4 173 216.7 174.4 216.2 175.4 215.4 176 214.5 176.1L214.5 176.1ZM214.5 165.2 219.7 168.2 222.4 161.9 221 161.1 219 165.7 214.5 163.1 214.5 165.2 214.5 165.2ZM214.5 158.9 214.5 157C214.7 157.1 214.9 157.2 215.1 157.2 216.2 157.7 217.9 158.2 218.7 158.3 219.5 158.4 220.1 158.4 220.6 158.4 223.1 158.1 223.2 156.2 221.7 154.8 221.3 154.5 220.9 154 220.2 153.6 219.5 153.2 217.8 152.5 216.7 152 216.2 151.8 215.4 151.5 214.5 151.2L214.5 149.4C215.4 149.7 216.4 150 217.2 150.3 219.6 151.3 221.9 152.5 222.9 153.7 223.8 154.8 224.6 156.5 224.1 158 223.6 159.5 222.2 160 220.9 160.2 219.5 160.4 216.9 159.9 214.5 158.9L214.5 158.9 214.5 158.9ZM214.5 148.4C218 149.5 222.5 150.1 224.7 149.5 226 149.2 226.9 148.3 227.2 146.8 227.4 145.7 227.2 144.7 226.6 143.8L227.8 144.1 228.1 142.7 219.1 140.7 218.3 144.7 219.8 145.1 220.2 142.9C220.8 143.1 223.3 143.5 223.8 143.7 224.3 143.9 224.7 144 225 144.2 225.3 144.4 225.6 144.7 225.8 145 225.9 145.3 226 145.8 225.9 146.2 225.8 146.5 225.7 146.8 225.5 147.1 225.3 147.3 225 147.5 224.5 147.6 222.1 148.4 217.4 147.3 214.6 146.4L214.6 148.4 214.5 148.4ZM214.5 141.9 214.5 140C214.6 140 214.7 140.1 214.8 140.1L214.5 141.9 214.5 141.9 214.5 141.9ZM214.5 138.3 214.5 136.7 218.4 135.9 214.5 134 214.5 132.2 220.4 135.2 229 136.8 228.7 138.6 220.2 137.1 214.5 138.3ZM214.5 132.2 214.5 134 211 132.3 211.2 130.5 214.5 132.2 214.5 132.2ZM214.5 136.7 214.5 138.3 209.9 139.3 210.2 137.5 214.5 136.7 214.5 136.7ZM214.5 140 214.5 141.8C213.6 141.6 212.8 141.5 212.2 141.7 211.1 142.1 210.9 143 211.1 144.1 211.2 144.4 211.4 144.8 211.7 145.1 212 145.5 212.6 145.8 213.4 146.1 213.7 146.2 214 146.4 214.5 146.5L214.5 148.4C212.9 147.9 211.5 147.2 210.7 146.5 209.6 145.6 209.2 144.3 209.2 142.8 209.2 141.7 210.4 140.3 211.6 140 212.1 139.8 212.6 139.7 213.2 139.8 213.6 139.9 214 139.9 214.5 140L214.5 140ZM214.5 149.4C212.6 148.8 210.7 148.4 209.8 148.5 208.5 148.7 207.2 149.4 206.7 150.9 206.3 152.4 206.9 153.9 207.8 155.1 208.7 156.2 212 157.9 214.4 158.9L214.4 157C213.1 156.5 211.1 155.5 210.5 155.2 209.8 154.8 209.3 154.3 209 153.9 207.8 152.6 207.9 150.7 210.1 150.3 210.5 150.2 211.2 150.2 212 150.4 212.4 150.5 213.5 150.8 214.5 151.2L214.5 149.4 214.5 149.4ZM214.5 163.3 214.5 165.2 203.9 159 203.9 158.4 204.3 157.3 214.5 163.3 214.5 163.3ZM214.5 167.8C213.4 166.8 212.1 165.7 211 164.9 208.8 163.4 205.8 161.6 204.4 161.5 204.2 161.5 204 161.5 203.9 161.5L203.9 163.3C204.1 163.3 204.2 163.3 204.4 163.3 204.9 163.3 205.5 163.5 206.2 163.8 207 164.2 209.1 165.6 210.2 166.4 211.2 167.2 213.5 168.9 214.1 169.5 214.2 169.7 214.4 169.8 214.5 169.9L214.5 167.8 214.5 167.8ZM214.5 174.3 214.5 176.1C214.2 176.2 213.9 176.2 213.6 176.2 212.3 176.1 209.1 174.3 206.9 172.7 205.9 172 204.8 171.1 203.9 170.3L203.9 168.1C203.9 168.1 204 168.1 204 168.2 204.6 168.8 206.7 170.4 207.8 171.1 208.8 171.9 210.7 173 211.4 173.3 212.2 173.7 213.3 174.3 213.8 174.3 214 174.4 214.3 174.4 214.5 174.3L214.5 174.3ZM203.9 188.1 203.9 185.8 207 189 205.9 190.3 203.9 188.1 203.9 188.1ZM203.9 182.9 208.5 187 209.5 185.6 203.9 180.6 203.9 182.9 203.9 182.9ZM203.9 177.8 212.3 181.7 213.3 180.2 204 171.8 204 174.1 208.6 178.3 204 176 204 177.8ZM203.9 158.5 203.9 159.1 203.7 159 203.9 158.5 203.9 158.5ZM203.9 161.6 203.9 163.4C203.6 163.5 203.5 163.5 203.3 163.6 203 163.8 202.8 164.1 202.6 164.4 202.4 164.7 202.3 165 202.3 165.4 202.2 165.7 202.4 166.2 202.6 166.6 202.8 167 203.2 167.6 203.8 168.2L203.8 170.4C202.6 169.4 201.6 168.3 201.2 167.5 200.5 166.2 200.5 164.8 201.2 163.5 201.9 162.3 202.8 161.7 203.9 161.6L203.9 161.6ZM203.9 171.9 199.2 167.7 198.3 169.2 203.9 174.2 203.9 171.9 203.9 171.9ZM203.9 176.1 203.9 177.8 197.4 174.8 203.9 180.6 203.9 182.9 196.7 176.5 196.7 172.6 203.9 176.1 203.9 176.1ZM203.9 185.8 196.7 178.3 196.7 180.5 198.9 182.7 196.7 185.3 196.7 189.7 201.7 195 202.8 193.7 197.1 187.4 200 183.8 203.9 188 203.9 185.8 203.9 185.8ZM196.7 200.4 196.7 198.4C196.7 198.3 196.7 198.3 196.7 198.3 196.9 198.1 197.1 197.9 197.2 197.7 197.3 197.4 197.3 197.1 197.3 196.8 197.2 196.4 197.1 196 196.9 195.4 196.8 195.3 196.8 195.1 196.7 195L196.7 192.6 196.9 192.4C198 193.9 198.7 195.3 198.8 196.4 198.9 197.6 198.6 198.6 197.7 199.5 197.3 199.9 197 200.2 196.7 200.4ZM196.7 172.5 196.7 176.4 194.5 174.5 196.1 172.2 196.7 172.5 196.7 172.5ZM196.7 178.3 193.8 175.3 192.8 176.7 196.7 180.5 196.7 178.3 196.7 178.3ZM196.7 185.4 196.7 189.8 189.2 181.9 189.2 181.3 190 180.3 196 186.3 196.7 185.4 196.7 185.4ZM196.7 192.7 196.7 195.1C196.4 194.7 196.1 194.2 195.7 193.7L196.7 192.7 196.7 192.7ZM196.7 198.4C196.4 198.6 196.2 198.7 195.9 198.8 195.6 198.9 195.3 198.8 194.8 198.6 194.3 198.4 193.8 198 193.2 197.5 192.6 196.9 191 195.1 190.2 194 189.9 193.6 189.6 193.1 189.2 192.5L189.2 195.4C190.9 197.5 193 199.8 194.3 200.3 195.2 200.7 196 200.7 196.7 200.4L196.7 198.4 196.7 198.4ZM189.2 206.8 189.2 204.5 192.4 201.7 193.3 203.2 189.2 206.8 189.2 206.8ZM189.2 185.5C189.3 185.6 189.4 185.7 189.6 185.8 189.9 186.1 190.4 186.5 190.8 187.1L191.9 185.9C191 184.7 190.1 184 189.2 183.6L189.2 185.5ZM189.2 181.2 189.2 181.8 188.9 181.5 189.2 181.2 189.2 181.2ZM189.2 183.6 189.2 185.5C189 185.4 188.8 185.3 188.6 185.3 188.3 185.2 188.1 185.2 187.8 185.4 187.6 185.5 187.4 185.7 187.2 185.9 187 186.1 186.8 186.4 186.7 186.7 186.6 187 186.6 187.5 186.7 188 186.8 188.5 187.1 189.2 187.5 190 187.8 190.5 188.5 191.6 189.2 192.6L189.2 195.5C189.1 195.4 189.1 195.3 189 195.3 187.3 193.1 185.5 190 185.2 188.4 184.9 186.9 185.2 185.6 186.2 184.6 187 183.7 187.9 183.4 188.9 183.6 189 183.5 189.1 183.6 189.2 183.6L189.2 183.6ZM189.2 204.6 188.4 205.3 184.4 198.7 187.3 196.2 186.3 194.7 183.4 197.2 181.2 193.5 181.2 196.7 187.9 207.8 189 206.8 189 204.6 189.2 204.6ZM181.4 208.5 181.4 205.4 184.4 210.4 183.1 211.3 181.4 208.5 181.4 208.5ZM181.4 191.4 181.4 189.1 183.3 187.4 184.2 188.9 181.4 191.4ZM181.4 189.1 181.4 191.4 180.6 192.1 181.4 193.6 181.4 196.8 178.4 191.8 181.4 189.1 181.4 189.1ZM181.4 205.3 175.7 195.8 178.2 194 177.3 192.5 170.8 197.1 171.7 198.6 174.3 196.8 181.4 208.5 181.4 205.3 181.4 205.3ZM163.1 222.1 163.1 219.8C163.2 219.6 163.3 219.3 163.3 218.9 163.4 218.4 163.4 217.6 163.2 216.7 163.1 216.6 163.1 216.4 163.1 216.2L163.1 210.6C163.2 210.9 163.3 211.2 163.4 211.5 164.3 214.3 165.1 217.6 164.9 219.2 164.7 220.5 164.1 221.5 163.1 222.1L163.1 222.1ZM163.1 207 168.2 219.9 169.7 219.1 166.1 209.8 169.9 207.7 169.3 206.1 165.5 208.1 163.5 203.3 167.8 201 167 199.4 163.1 201.5 163.1 207ZM163.1 201.5 163.1 207 161.3 202.5 163.1 201.5 163.1 201.5ZM163.1 210.6C162.2 208.2 161.1 206 160.2 205 160 204.8 159.9 204.7 159.8 204.6L159.8 207.1C160 207.4 160.2 207.7 160.4 208.1 160.8 208.9 161.5 210.7 162 212 162.4 213.1 162.9 215 163.2 216.1L163.2 210.6 163.1 210.6ZM163.1 219.8 163.1 222.1C162.9 222.2 162.8 222.3 162.7 222.3 161.7 222.8 160.6 222.7 159.8 222L159.8 219.6C160 219.9 160.2 220.1 160.3 220.2 160.7 220.6 161 220.7 161.3 220.8 161.6 220.9 161.9 220.9 162.2 220.7 162.5 220.6 162.7 220.4 163 220.1 163 220 163 219.9 163.1 219.8ZM159.7 204.6 159.7 207.1C159.5 206.8 159.3 206.6 159.2 206.4 158.8 206.1 158.5 205.9 158.2 205.8 157.9 205.8 157.6 205.9 157.3 206 157 206.1 156.8 206.3 156.6 206.6 156.4 206.9 156.2 207.2 156.2 207.8 156.1 208.3 156.2 209 156.3 210 156.5 210.9 157.1 212.8 157.5 214.1 157.9 215.5 158.7 217.7 159.1 218.5 159.3 218.9 159.5 219.3 159.8 219.6L159.8 222C159.6 221.9 159.5 221.8 159.3 221.6 158.3 220.5 156.9 217.4 156.1 214.7 155.2 211.9 154.5 209.1 154.6 207.5 154.8 205.9 155.5 204.9 156.8 204.3 157.8 203.8 158.8 203.9 159.7 204.6L159.7 204.6ZM133.1 229.5 133.1 224.9 133.5 229.4 133.1 229.5 133.1 229.5ZM133.1 212.5 135.9 212.1 138 228.8 139.5 228.5 137.4 211.8 140.4 211.2 140.2 209.6 133.1 210.6 133.1 212.5 133.1 212.5ZM145.5 218.7 147.4 227.4 148.9 227 147.1 218.3 148.3 207.7 146.8 208.1 145.9 216.3 142.6 209.1 141 209.5 145.5 218.7ZM129.4 216.5 127.9 216.5C128 214.4 127.3 213.2 126 213.2 124.4 213.1 123.7 214.3 123.7 216.5 123.8 217.7 124.1 218.5 124.9 219 125.2 219.1 125.4 219.4 125.9 219.5 126.3 219.7 126.7 219.9 126.9 220 128.9 221 129.8 222.4 129.7 224.7 129.5 228 128.3 229.9 125.8 230 124.1 230.1 122.9 229.1 122.3 227.3 122.1 226.7 122 225.6 122 224L123.3 224C123.1 227 123.9 228.5 125.7 228.4 127.3 228.3 128.1 227.3 128.1 225.3 128.1 223.6 127.6 222.8 126.4 222.2 126.3 222.2 126.2 222.1 126.1 222 125.9 221.9 125.7 221.8 125.3 221.6 124.5 221.2 124 220.8 123.6 220.6 122.6 219.9 122.1 218.6 122.2 216.5 122.3 213.3 123.4 211.5 125.7 211.4 128.2 211.3 129.4 213.2 129.4 216.5L129.4 216.5ZM133.1 210.7 133.1 212.5 132.9 212.5 132.7 210.8 133.1 210.7 133.1 210.7ZM133.1 224.9 131.9 210.8 130.3 211 131.9 229.6 133 229.4 133 224.9 133.1 224.9ZM117.6 222.2 117.6 219.2C118 219.1 118.4 218.9 118.7 218.4 119 217.8 119.3 216.7 119.4 215.9 119.4 215.1 119.2 214.4 118.9 213.8 118.6 213.3 118.1 212.9 117.6 212.9L117.6 211.1 117.9 211.1C118.5 211.2 119 211.3 119.4 211.6 119.8 211.9 120.2 212.3 120.5 212.7 120.8 213.1 120.9 213.6 121 214.2 121.1 214.7 121.2 215.2 121.2 215.8 121.2 217.7 121 217.4 120.9 217.6 120.7 218 120.7 218.5 120.5 218.8 120.3 219.2 120.1 219.6 119.9 219.9 119.6 220.2 119.3 220.4 118.9 220.6L121 229.9 119.3 229.8 117.6 222.2ZM117.6 211.2 117.6 213 117.5 213 116 212.9 115.7 219.1 117.2 219.2C117.3 219.2 117.5 219.2 117.6 219.2L117.6 222.2 117.3 221 115.7 220.9 115.3 229.8 113.7 229.7 114.5 211 117.6 211.2 117.6 211.2ZM105.5 228.7 105.5 224.2 107.2 210.2 113.3 211.1 113.1 212.9 108.6 212.2 107.8 218.3 111.3 218.8 111.1 220.6 107.7 220.1 106.7 227 111.6 227.6 111.4 229.4 105.5 228.7 105.5 228.7ZM105.5 211.8 106 210.1 105.5 209.9 105.5 211.8ZM105.5 209.9 105.5 211.8 100.4 227.9 98.8 227.6 98.5 208.4 100.1 208.9 100.2 223.9 104.4 209.8 105.5 209.9 105.5 209.9ZM105.5 224.2 104.9 228.6 105.5 228.7 105.5 224.2 105.5 224.2ZM93.7 226.2 93.7 219.4 96.2 207.7 97.7 208.1 93.9 226.2 93.7 226.2 93.7 226.2ZM93.7 212.4 95.1 207.3 93.7 206.8 93.7 212.4ZM93.7 206.8 93.7 212.4 90.2 225.2 88.7 224.7 88.8 207.2 84.6 220.9 84.6 215.4 87.8 204.8 90.1 205.7 90 220.1 93.5 206.8 93.7 206.8 93.7 206.8ZM93.7 219.4 92.3 225.9 93.7 226.2 93.7 219.4 93.7 219.4ZM84.6 210 86.8 204.3 85.4 203.6 84.6 205.5 84.6 210ZM84.6 205.5 84.6 210 81.7 217.6C81.4 218.3 81.2 218.8 80.7 219.3 80.3 219.8 79.9 220.1 79.5 220.3 79.1 220.5 78.6 220.6 78.1 220.6 76.3 220.4 75.6 219.5 75 218.1 74.8 217.6 74.7 217 74.7 216.4 74.7 215.8 74.9 215.1 75.1 214.5L80.1 201.2 81.6 201.9 76.5 215.3C76.2 216 76.2 216.7 76.4 217.4 76.6 218.1 77 218.5 77.4 218.8 77.8 219 78.3 219 78.9 218.7 79.4 218.4 79.9 217.9 80.1 217.2L84.6 205.5 84.6 205.5ZM84.6 215.4 82.5 222.5 84 223.1 84.6 220.9 84.6 215.4Z" fill="#004097"/><path d="M33.6 135.9C33.7 135.5 33.7 135.1 33.7 134.7 33.6 134.5 33.6 134.4 33.6 134.2L33.6 135.9 33.6 135.9ZM33.6 176.6 33.6 174.5 37.1 172.6 34.5 167.9 33.6 168.3 33.6 166.6 42.3 162.6 43.1 164.2 36.2 167.4 38.6 171.8 45.5 168.4 46.5 169.9 33.6 176.6 33.6 176.6ZM33.6 162.2 33.6 160.3 38.5 158.3 37.4 155.9 38.9 155.3 41.8 161.8 40.3 162.4 39.1 159.9 33.6 162.2 33.6 162.2ZM33.6 156.4 38.6 154.6 38 153 33.6 154.6 33.6 156.4 33.6 156.4ZM33.6 149.8 33.6 148.1 36.1 147.3 36.6 148.9 33.6 149.8 33.6 149.8ZM33.6 146.3 33.6 143.4C33.7 143.2 33.7 143.2 33.6 142.9 33.6 142.8 33.6 142.8 33.6 142.7L33.6 140.3C34.4 140.7 34.9 141.4 35.2 142.5 35.5 144.1 35 144.9 34 145.9 33.8 146.1 33.7 146.2 33.6 146.3ZM29.9 138.7C30.3 138.6 30.7 138.6 31.2 138.4 31.6 138.2 32.1 138 32.5 137.7 32.9 137.4 33.2 137 33.5 136.5 33.6 136.3 33.7 136.1 33.7 135.9L33.7 134.2C33.6 133.7 33.5 133.2 33.3 132.8 33 132.3 32.7 131.9 32.4 131.7 32 131.4 31.5 131.1 31.1 130.9 28.7 130.5 26.8 131.3 25.3 132.7L25.3 135C27.4 132.8 29.6 131.1 31.6 133.3 31.9 133.6 32.2 134.2 32.2 135 32.3 135.4 32.2 135.8 32 136 31.8 136.3 31.6 136.5 31.3 136.6 31 136.7 30.8 136.8 30.5 136.9 30.2 137 30 137 29.8 137L29.9 138.7 29.9 138.7ZM33.6 140.4 33.6 142.8C33.5 142.6 33.4 142.6 33.2 142.4 33 142.1 32.7 141.9 32.3 141.8 31.8 141.6 31.2 141.5 30.4 141.6 29.1 141.6 27.1 142 25.1 142.5L25.1 140.7C27.3 140.2 29.5 140 31.1 140 32.1 139.9 32.9 140 33.6 140.4L33.6 140.4ZM33.6 143.4 33.6 146.3C32.2 147.2 29.2 148.3 26.9 148.9 26.4 149 25.8 149.1 25.2 149.2L25.2 147.4C25.8 147.3 26.3 147.2 26.6 147.1 27.8 146.8 30.5 146 31.3 145.7 32.1 145.4 32.6 145 32.9 144.7 33.3 144.3 33.5 144 33.6 143.7 33.6 143.5 33.6 143.5 33.6 143.4L33.6 143.4ZM33.6 148.1 25.1 150.9 25.1 152.8 33.6 149.9 33.6 148.1 33.6 148.1ZM33.6 154.5 33.6 156.4 25.1 159.4 25.1 157.5 33.6 154.5 33.6 154.5ZM33.6 160.3 33.6 162.2 25.1 165.7 25.1 163.6 33.6 160.3 33.6 160.3ZM33.6 166.7 33.6 168.4 26.2 172 25.4 170.5 33.6 166.7 33.6 166.7ZM33.6 174.6 33.6 176.7 29.9 178.6 29 177.1 33.6 174.6ZM25.2 132.6C23.5 134.1 22 136.2 20.5 137.8 20.3 138 20 138.2 19.7 138.3 19.4 138.4 19.1 138.5 18.6 138.5 18 138.6 17.5 138.4 17.1 138.2 16.7 137.9 16.4 137.5 16.4 136.8 16.3 136 16.5 135.3 16.9 134.9 17.3 134.5 18.1 134.2 19.3 134.1L19.1 132.3C18.7 132.4 18.3 132.5 17.8 132.6 17.4 132.7 16.9 132.9 16.4 133.2 15.9 133.5 15.5 134 15.2 134.6 14.9 135.2 14.8 136.1 14.9 137 15 137.7 15.1 138.2 15.4 138.7 15.7 139.2 16.1 139.5 16.5 139.7 16.9 140 17.4 140.1 17.7 140.2 18.1 140.3 18.4 140.3 18.7 140.3 19.2 140.2 19.7 140.1 20 140.1 20.3 140 20.6 139.8 21 139.6 21.9 139 23.4 136.6 25 134.7L25 132.6 25.2 132.6ZM25.2 140.6 25.2 142.4C23.4 142.8 21.7 143.4 20.6 143.9 19.9 144.2 19.3 144.6 18.9 144.9 18.6 145.3 18.4 145.6 18.3 145.9 18.2 146.3 18.2 146.2 18.2 146.5 18.3 146.9 18.3 146.8 18.5 147.1 18.7 147.4 19 147.6 19.5 147.7 19.9 147.9 20.6 147.9 21.4 147.9 22 147.8 23.8 147.5 25.2 147.3L25.2 149.1C22.9 149.5 20.1 149.7 19.1 149.4 17.7 149 17 148.4 16.8 146.8 16.5 145.3 16.9 144.6 18 143.6 19.3 142.3 22.2 141.2 25.2 140.6L25.2 140.6ZM25.2 150.8 25.2 152.7 22.8 153.5C22.1 153.7 21.7 154.2 21.4 154.8 21.1 155.4 21 156 21.2 156.5 21.4 157 21.7 157.5 22.3 157.7 22.8 158 23.5 158 24.1 157.8L25.2 157.4 25.2 159.3 24.7 159.5C24 159.7 23.5 159.8 23 159.8 22.5 159.7 22 159.6 21.5 159.4 21.1 159.2 20.7 158.9 20.4 158.4 20.1 158 19.9 157.6 19.8 157.1 19.6 156.6 19.6 156.1 19.6 155.6 19.6 155.1 19.7 154.5 19.9 154 20.2 153.5 20.4 153 20.9 152.6 21.3 152.2 21.8 151.8 22.4 151.6L25.2 150.8 25.2 150.8ZM25.2 163.6 25.2 165.7 23.5 166.3 22.8 164.6 25.2 163.6Z" fill="#004097"/><path d="M69.1 211.3 69.1 206.2 69.5 206.5 72.6 199.8 69.1 203.1 69.1 200.9 73.4 196.9 75.1 198.1 69.1 211.3 69.1 211.3ZM69.1 196.9 69.1 194.4 69.4 194.1 70.8 195.1 69.1 196.9ZM69.1 194.4 69.1 196.9 59.6 206.6 59.6 201.5 64.2 193.2 59.6 197.9 59.6 195.4 64.4 190.7 66.5 192.4 61.1 202.4 69.1 194.4 69.1 194.4ZM69.1 201.1 59.6 210 59.6 210.3 60.8 211.2 66 206.1 68.6 208.3 65.7 214.3 67.2 215.2 69 211.4 69 206.3 67.3 204.9 69 203.3 69 201.1 69.1 201.1ZM59.6 191.8 62.7 189 61.4 187.8 59.6 189.4 59.6 191.8 59.6 191.8ZM59.6 186.4 59.6 186.1 59.8 186.3 59.6 186.4ZM59.6 186.2 59.6 186.5 55.5 190.2 55.5 188 58.6 185.1 59.6 186.2 59.6 186.2ZM59.6 189.5 55.5 193.3 55.5 195.6 59.6 191.8 59.6 189.5 59.6 189.5ZM59.6 195.2 59.6 197.7 55.5 201.9 55.5 199.3 59.6 195.2 59.6 195.2ZM59.6 201.4 56.1 207.6 57.5 208.7 59.6 206.6 59.6 201.4 59.6 201.4ZM59.6 209.9 59.6 210.2 59.5 210.1 59.6 209.9 59.6 209.9ZM55.5 182.4 55.5 182 55.7 182.3 55.5 182.4ZM50 177.8C50.2 177.9 50.3 178.1 50.3 178.3 50.5 178.5 50.5 178.8 50.6 179.1 50.7 179.4 50.6 179.6 50.5 180 50.4 180.3 50.2 180.5 50 180.8L50 183.1C51 182.3 51.6 181.5 51.9 180.7 52.3 179.6 52.2 178.5 51.7 177.5 51.3 176.7 50.7 176.2 50 175.9L50 177.8 50 177.8ZM55.5 182 55.5 182.4 50.4 186.6 53.2 190.2 55.5 188.1 55.5 190.2 50 195 50 192.9 51.9 191.2 50 188.8 50 184.6 54.6 180.9 55.5 182 55.5 182ZM55.5 193.3 49.9 198.4 49.9 200.7 55.5 195.7 55.5 193.3 55.5 193.3ZM55.5 199.3 55.5 201.9 52.7 204.7 51.2 203.4 55.5 199.3ZM46.2 178.1C46.4 178 46.6 177.9 46.7 177.9 47.5 177.5 48.1 177.4 48.6 177.3 49.1 177.3 49.4 177.4 49.7 177.5 49.8 177.6 49.9 177.7 50 177.8L50 175.7C49.6 175.5 49.1 175.5 48.6 175.5 47.9 175.6 47.1 175.8 46.2 176.1L46.2 178.1 46.2 178.1ZM50 180.7C49.9 180.8 49.9 180.8 49.8 180.9 49.5 181.3 49 181.7 48.5 182L49.3 183.6C49.6 183.4 49.8 183.2 50 183L50 180.7 50 180.7ZM50 184.6 50 188.8 49.1 187.7 46.2 190 46.2 187.7 50 184.6 50 184.6ZM50 192.9 50 195 46.2 198.3 46.2 196.2 50 192.9 50 192.9ZM50 198.4 50 200.7 49 201.6 47.8 200.4 50 198.4ZM42 186.6C41.4 187.1 40.8 187.4 40.2 187.6 39.7 187.8 39.3 187.9 39 187.9 38.7 187.8 38.4 187.8 38.2 187.6 38 187.4 37.8 187.2 37.7 187 37.5 186.7 37.5 186.4 37.5 186 37.5 185.6 37.6 185.2 37.9 184.8 38.2 184.3 38.6 183.8 39.3 183.1 41.2 181.2 43.7 179.4 46.2 178.2L46.2 176.3C42.6 177.9 37.9 181.5 36.6 183.9 35.8 185.2 35.8 186.6 36.5 187.9 37 189 37.8 189.6 38.9 189.7 39.9 189.8 41.2 189.3 42.7 188.2L42 186.6 42 186.6ZM46.2 187.6 46.2 189.9 41.5 193.7 40.3 192.4 46.2 187.6 46.2 187.6ZM46.2 196.2 46.2 198.3 46 198.5 44.8 197.4 46.2 196.2Z" fill="#004097"/><g><path d="M108.8 200 108.7 200.4 103.9 199.2 104 198.8 105.8 199C106 198.3 106.2 197.6 106.4 196.9L107.6 192.2 106 192 106.1 191.6 109 191.6 109.1 191.8 108.6 193.6 107.6 197.3C107.4 198 107.3 198.7 107.1 199.4L108.8 200Z" fill="#004097"/></g><g><path d="M115.4 200.9C117.5 200.2 118.5 199 118.9 197.2 118.5 197.6 117.9 197.8 117.3 197.8 116 197.8 114.9 196.8 115 195.1 115.1 193.4 116.2 192.4 117.7 192.4 119.4 192.5 120.3 193.8 120.2 196 120.1 198.6 118.5 200.6 115.4 201.3L115.4 200.9ZM118.9 196.7C118.9 196.5 118.9 196.3 118.9 196 119 193.8 118.4 192.9 117.6 192.9 116.8 192.9 116.2 193.5 116.1 194.9 116.1 196.3 116.7 197 117.6 197.1 118.2 197.2 118.6 197 118.9 196.7Z" fill="#004097"/></g><g><path d="M130.7 200.5 130.7 200.9 125.6 201.3 125.6 200.9 127.5 200.5C127.4 199.8 127.4 199 127.3 198.3L126.9 193.3 125.2 193.6 125.2 193.1 128.1 192.1 128.3 192.2 128.4 194.2 128.7 198.1C128.8 198.8 128.8 199.6 128.9 200.3L130.7 200.5Z" fill="#004097"/></g><g><path d="M140.4 197.1C140.7 198.5 139.8 199.7 138.1 200.1 136.4 200.5 135.2 200 134.9 198.7 134.7 197.7 135.2 196.9 136.3 196 135 195.7 134.3 195 134 194 133.7 192.6 134.6 191.5 136.1 191.1 137.6 190.7 138.7 191.4 139 192.6 139.2 193.3 138.9 194.2 137.8 195.1 139.3 195.4 140.2 196 140.4 197.1ZM137.4 194.9C138 194.2 138.1 193.6 137.9 192.8 137.7 191.9 137.1 191.3 136.2 191.5 135.4 191.7 134.9 192.4 135.1 193.2 135.3 194 135.8 194.6 137.4 194.9ZM139.3 197.7C139.1 196.9 138.5 196.4 136.8 196.1 136.1 196.8 135.9 197.4 136.1 198.3 136.4 199.4 137.2 199.9 138.2 199.7 139 199.4 139.5 198.6 139.3 197.7Z" fill="#004097"/></g></g></g></g></svg>