<svg viewBox="0 0 1080 1080" xmlns="http://www.w3.org/2000/svg" xmlns:xlink="http://www.w3.org/1999/xlink" id="图层_1" xml:space="preserve" overflow="hidden"><g><g><g><linearGradient x1="543.37" y1="207.917" x2="543.37" y2="873.129" gradientUnits="userSpaceOnUse" id="SVGID_1_"><stop offset="0" stop-color="#0075C1"/><stop offset="1" stop-color="#FFFFFF"/></linearGradient><path d="M543.4 1075.1C836.7 1075.1 1076.3 835.8 1076.3 542.2 1076.3 248.5 836.6 9.3 543.4 9.3 249.7 9.2 10.4 248.5 10.4 542.2 10.4 835.8 249.7 1075.1 543.4 1075.1Z" fill="#FFFFFF"/><path d="M543.4 874.8C726.4 874.8 876 725.5 876 542.2 876 358.9 726.4 209.6 543.4 209.6 360.1 209.6 210.8 358.9 210.8 542.2 210.8 725.4 360.1 874.8 543.4 874.8Z" fill="url(#SVGID_1_)"/><path d="M282.2 745 802.6 745 760.8 787.8 313.3 787.8Z" fill="#FFFFFF"/><path d="M539.8 599.8 579 599.8 579 624.4 539.8 624.4 500.6 624.4 500.6 599.8 539.8 599.8 539.8 599.8ZM539.8 627.7 540 627.7 540 627.7 579 627.7 579 635.8 541.5 635.8 541.5 635.8 538.6 635.8 538.6 635.8 500.6 635.8 500.6 627.7 539.8 627.7 539.8 627.7 539.8 627.7ZM537.2 589 542.7 589 542.7 589 579 589 579 597.1 540.3 597.1 540.3 597.1 539.6 597.1 539.6 597.1 500.6 597.1 500.6 589 537.2 589 537.2 589 537.2 589ZM516.4 637.3C516.4 637.3 513.3 643.3 509.5 644.5 505.4 645.7 506.2 645.2 505.9 646.9 505.7 648.3 505.4 649.5 504 650.7 502.6 651.9 501.4 651.4 501.4 651.4L501.4 637.5 516.4 637.3 516.4 637.3ZM500.6 587.3C500.6 587.3 508 587.1 511.6 585.2 515.2 583.3 516.4 578.7 515.4 577.8 513.5 575.6 514.7 573.3 512.3 571.8 507 568.9 504.9 573.7 502.3 577.3 501.3 578.5 500.9 579 500.6 579L500.6 579 500.6 578.8 500.6 578.8 500.6 579 500.6 587.3 500.6 587.3ZM497 578 474.8 578 474.8 742.2 497 742.2 497 578 497 578ZM499.4 557 472.4 557C471.7 557 471.2 557.5 471.2 558.2L471.2 574.2C471.2 574.9 471.7 575.4 472.4 575.4L499.4 575.4C500.1 575.4 500.6 574.9 500.6 574.2L500.6 558.2C500.6 557.5 500.1 557 499.4 557L499.4 557ZM485.3 530.7C485.5 530.7 485.8 530.7 486 530.7 486.2 530.7 486.5 530.7 486.7 530.7 489.6 530.5 491.5 534.3 492.4 536.7 493.1 539.1 493.1 541.7 493.1 541.7 496.7 543.4 498.6 547.7 496.4 551 494.7 553.4 496.9 554.8 494.5 554.8L486 554.8 477.4 554.8C475 554.8 477.1 553.4 475.5 551 473.4 547.7 475 543.4 478.8 541.7 478.8 541.7 478.6 539.1 479.5 536.7 480.5 534.3 482.4 530.5 485.3 530.7L485.3 530.7ZM470.3 577.8 470.3 586.6 464.8 586.6C460.7 586.6 460.3 580.4 459.3 578.9 458.8 578.4 454.5 575.3 454 573.4 453.5 571.3 453 572 454.5 569.8 455.7 567.9 457.8 568.1 458.3 568.8 458.5 569 459 569 459.3 568.8 459.3 568.6 459.6 568.3 459.6 568.3L459.6 568.3 459.6 568.3C459.6 568.3 459.3 568.5 459.3 568.8 458.8 569.3 458.3 570 458.3 570.5 458.8 573.1 463.3 572.4 465.2 573.8 465.9 574.3 467.1 576.2 468.1 576.9 468.8 577.8 470.3 577.8 470.3 577.8L470.3 577.8ZM471.2 589.2 464.5 589.2 464.5 597.6 471.2 597.6 471.2 589.2 471.2 589.2ZM471.2 599 426.5 599 426.5 606.2 471.2 606.2 471.2 599 471.2 599ZM471.2 608.4 426.8 608.4 426.8 628.2 471.2 628.2 471.2 608.4 471.2 608.4ZM471.5 630.3 426.6 630.3 426.6 637 471.5 637 471.5 630.3 471.5 630.3ZM439.2 640.1C440.9 640.1 435.9 645.6 432 647 431 647.5 430.6 647.7 430.1 648.7 429.6 649.7 428.9 651.6 428.7 651.8 427 653 426.6 652.3 426.6 652.3L426.6 640.1 439.2 640.1 439.2 640.1ZM423.2 596.4 402.7 596.4 402.7 742.6 423.2 742.6 423.2 596.4 423.2 596.4ZM424.6 575.9 400.2 575.9C399.7 575.9 399.2 576.4 399.2 577.1L399.2 591.7C399.2 592.4 399.7 592.9 400.2 592.9L424.6 592.9C425.3 592.9 425.8 592.4 425.8 591.7L425.8 577.1C425.8 576.3 425.3 575.9 424.6 575.9L424.6 575.9ZM359.1 602.9 339.3 602.7 339.3 742 358.4 742 358.4 610.5 359.1 610.3 359.1 602.9 359.1 602.9ZM360.6 587.6 338.6 587.6C338.1 587.6 337.6 588.1 337.6 588.6L337.6 599.8C337.6 600.3 338.1 600.8 338.6 600.8L360.6 600.8C361.1 600.8 361.6 600.3 361.6 599.8L361.6 588.6C361.5 588 361.1 587.6 360.6 587.6L360.6 587.6ZM349.8 565.8C350.3 565.8 352.2 566.3 353.4 567.9 353.4 567.9 354.1 569.1 354.8 570.8 355.5 572.7 355.8 574.9 355.8 574.9 358.2 576.1 359.9 579 357.5 581.4 355.6 583.3 357.3 583.8 357.3 584.5 357.5 585.5 357.1 585.7 357.1 585.7L349.9 585.7 349.7 585.7 349.7 585.7 342.5 585.7C342.5 585.7 342 585.5 342.3 584.5 342.3 583.8 344 583.3 342.1 581.4 339.7 579 341.4 576.1 343.8 574.9 343.8 574.9 344 572.8 344.7 570.8 345.4 569.1 346.1 567.9 346.1 567.9 347.3 566.2 349.2 565.8 349.7 565.8L349.7 565.8 349.8 565.8 349.8 565.8ZM399.1 598.1 395.5 598.3C391.9 598.3 390.7 595.7 390 592.8 389.3 589.5 385.5 589.2 385.5 585.4 385.5 583.2 388.4 581.1 390.3 581.6 390.5 581.6 390.8 581.6 390.8 581.6 390.8 581.6 389.8 583.3 390.3 584.2 391 586.6 395.8 586.6 397.2 589.5 397.7 590.7 397.9 592.6 397.9 594 397.9 595.4 398.4 595.4 398.4 595.4L399.4 595.4 399.1 598.1 399.1 598.1ZM399.1 599.8 394.8 599.8 394.8 606 399.1 606 399.1 599.8 399.1 599.8ZM399.1 606.9 361.6 606.9 361.6 614.1 399.1 614.1 399.1 606.9 399.1 606.9ZM458.5 640.1C456.8 640.1 461.8 645.6 465.7 647 466.9 647.5 467.4 647.7 467.8 648.7 468.3 649.7 469 651.6 469.2 651.8 470.6 653 471.3 652.3 471.3 652.3L471.1 640.1 458.5 640.1 458.5 640.1ZM412 552.7 412.2 552.7 412.2 552.5 412.4 552.5C412.6 552.5 412.9 552.5 413.1 552.5 415.5 552.5 417.2 556.6 417.9 558.5 418.6 560.4 418.6 562.6 418.6 562.6 421.2 564 424.3 569.3 421.7 571.4 419.8 573.1 421.7 573.8 419.6 573.8L412.7 573.8 412.7 573.8 412.5 573.8 405.6 574C403.5 574 405.4 573.3 403.5 571.6 400.9 569.4 404 564.2 406.6 562.8 406.6 562.8 406.6 560.7 407.3 558.7 407.9 556.5 409.6 552.7 412 552.7L412 552.7ZM426.3 598.1 429.9 598.3C433.5 598.3 434.7 595.7 435.4 592.8 436.1 589.5 439.9 589.2 439.9 585.4 439.9 583.2 437 581.1 435.1 581.6 434.9 581.6 434.6 581.6 434.6 581.6 434.6 581.6 435.6 583.3 435.1 584.2 434.4 586.6 429.6 586.6 428.2 589.5 427.7 590.7 427.5 592.6 427.5 594 427.5 595.4 427 595.4 427 595.4L426 595.4 426.3 598.1 426.3 598.1ZM399.1 616.2 361.6 616.2 361.6 631 399.1 631 399.1 616.2 399.1 616.2ZM399.1 632.7 361.6 632.7 361.6 639.6 399.1 639.6 399.1 632.7 399.1 632.7ZM399.1 652.8C398.6 652.1 397.2 650.4 396 649.7 392.7 647.8 389.1 645.9 387.4 642.5 386.9 641.3 386.9 641.1 386.9 641.1L386.9 641.1 386.9 641.1 399.1 641.1 399.1 652.8 399.1 652.8ZM361.8 652.8C361.8 652.8 363.2 650.4 364.7 649.7 368 647.8 371.6 645.9 373.3 642.5 373.8 641.3 373.8 641.1 373.8 641.1L361.9 641.1 361.9 652.8 361.8 652.8ZM361.5 602.6 361.5 605.2C361.5 605.4 364.1 605.4 365.3 605.2 366.5 604.7 369.6 604 370.8 602.8 371.8 601.4 372.5 600.9 372.2 599.9 372.2 598.7 372 598 370.3 597.3 368.9 596.6 370 596.4 369.6 595.2 368.9 594 367 592.6 364.1 593.3L363.4 593.3 363.4 602.4 361.5 602.6 361.5 602.6ZM336.9 605.7 333.1 605.7C329.8 605.9 328.6 603.1 327.8 600.5 326.4 596 323.3 596 323.3 592.1 323.3 590 324.5 588.5 326.4 588.8 326.6 588.8 326.9 589 326.9 589 326.9 589 326.4 590.4 326.9 591.2 328.8 593.3 333.4 594.3 334.8 597.2 335.3 598.2 335.8 600.3 335.8 601.5 335.8 602.9 336 602.9 336 602.9L337 602.9 337 605.7 336.9 605.7ZM336.7 632.7 331.7 632.7 331.7 639.6 336.7 639.6 336.7 632.7 336.7 632.7ZM337.4 606.9 331.9 606.9 331.9 614.1 337.4 614.1 337.4 606.9 337.4 606.9ZM336.2 681C336.2 681 330.9 683.9 329.8 687.5 328.6 690.8 328.8 692.3 328.8 692.3 324.7 695.2 320 699.5 320.2 705.7 320.2 710 321.6 713.1 321.6 713.1 321.6 713.1 317.1 716.9 315.6 720.3 314.4 723.6 315.1 733.2 316.8 733.2L335.9 733 336.2 681 336.2 681ZM336.2 735.5 311.9 735.5 311.9 742.7 336.2 742.7 336.2 735.5 336.2 735.5ZM563.4 637.3C563.4 637.3 566.5 643.3 570.3 644.5 574.4 645.7 573.6 645.2 573.9 646.9 574.1 648.3 574.4 649.5 575.6 650.7 577 651.9 578.2 651.4 578.2 651.4L578.2 637.5 563.4 637.3 563.4 637.3ZM579 587.3C579 587.3 571.8 587.1 568.3 585.2 564.7 583.3 563.5 578.7 564.2 577.8 566.3 575.6 565.2 573.3 567.5 571.8 572.8 568.9 574.9 573.7 577.3 577.3 578.3 578.5 578.7 579 579 579L579 579 579 578.8 579 578.8 579 579 579 587.3 579 587.3ZM582.6 578 604.8 578 604.8 742.2 582.6 742.2 582.6 578 582.6 578ZM580.2 557 607.2 557C607.9 557 608.4 557.5 608.4 558.2L608.4 574.2C608.4 574.9 607.9 575.4 607.2 575.4L580.2 575.4C579.5 575.4 579 574.9 579 574.2L579 558.2C579 557.5 579.4 557 580.2 557L580.2 557ZM594.3 530.7C594.1 530.7 593.8 530.7 593.6 530.7 593.4 530.7 593.1 530.7 592.9 530.7 590 530.5 588.1 534.3 587.2 536.7 586.5 539.1 586.5 541.7 586.5 541.7 582.9 543.4 581 547.7 583.2 551 584.9 553.4 582.7 554.8 585.1 554.8L593.7 554.8 602.3 554.8C604.7 554.8 602.5 553.4 604.2 551 606.3 547.7 604.4 543.4 600.9 541.7 600.9 541.7 601.1 539.1 600.2 536.7 599 534.3 597.1 530.5 594.3 530.7L594.3 530.7ZM609.1 577.8 609.3 586.6 614.8 586.6C618.9 586.6 619.3 580.4 620.3 578.9 620.8 578.4 625.1 575.3 625.5 573.4 626 571.3 626.5 572 625 569.8 623.8 567.9 621.7 568.1 621.2 568.8 621 569 620.5 569 620.2 568.8 620.2 568.6 620 568.3 620 568.3L620 568.3 620 568.3C620 568.3 620.2 568.5 620.2 568.8 620.7 569.3 621.2 570 621.2 570.5 620.7 573.1 616.2 572.4 614.3 573.8 613.6 574.3 612.4 576.2 611.4 576.9 610.8 577.8 609.1 577.8 609.1 577.8L609.1 577.8ZM608.4 589.2 615.1 589.2 615.1 597.6 608.4 597.6 608.4 589.2 608.4 589.2ZM608.4 599 653.1 599 653.1 606.2 608.4 606.2 608.4 599 608.4 599ZM608.4 608.4 652.8 608.4 652.8 628.2 608.4 628.2 608.4 608.4 608.4 608.4ZM608.1 630.3 653 630.3 653 637 608.1 637 608.1 630.3 608.1 630.3ZM640.4 640.1C638.7 640.1 643.8 645.6 647.6 647 648.5 647.5 649 647.7 649.5 648.7 650 649.7 650.7 651.6 650.9 651.8 652.6 653 653.1 652.3 653.1 652.3L653.1 640.1 640.4 640.1 640.4 640.1ZM656.4 596.4 676.9 596.4 676.9 742.6 656.4 742.6 656.4 596.4 656.4 596.4ZM655 575.9 679.4 575.9C679.9 575.9 680.4 576.4 680.4 577.1L680.4 591.7C680.4 592.4 679.9 592.9 679.4 592.9L655 592.9C654.3 592.9 653.8 592.4 653.8 591.7L653.8 577.1C653.7 576.3 654.2 575.9 655 575.9L655 575.9ZM720.4 602.9 740.2 602.7 740.2 742 721.1 742 721.1 610.5 720.4 610.3 720.4 602.9 720.4 602.9ZM719 587.6 741 587.6C741.5 587.6 741.9 588.1 741.9 588.6L741.9 599.8C741.9 600.3 741.4 600.8 741 600.8L719 600.8C718.5 600.8 718 600.3 718 599.8L718 588.6C718 588 718.5 587.6 719 587.6L719 587.6ZM729.7 565.8C729.2 565.8 727.3 566.3 726.1 567.9 726.1 567.9 725.4 569.1 724.7 570.8 724 572.7 723.7 574.9 723.7 574.9 721.3 576.1 719.6 579 722 581.4 723.9 583.3 722.2 583.8 722.2 584.5 722 585.5 722.4 585.7 722.4 585.7L729.6 585.7 729.8 585.7 729.8 585.7 737 585.7C737 585.7 737.5 585.5 737.2 584.5 737.2 583.8 735.5 583.3 737.4 581.4 739.8 579 738.1 576.1 735.7 574.9 735.7 574.9 735.5 572.8 734.7 570.8 734 569.1 733.3 567.9 733.3 567.9 732.1 566.2 730.2 565.8 729.7 565.8L729.7 565.8 729.7 565.8 729.7 565.8ZM680.5 598.1 684.1 598.3C687.7 598.3 688.9 595.7 689.6 592.8 690.3 589.5 694.1 589.2 694.1 585.4 694.1 583.2 691.2 581.1 689.3 581.6 689.1 581.6 688.8 581.6 688.8 581.6 688.8 581.6 689.8 583.3 689.3 584.2 688.6 586.6 683.8 586.6 682.4 589.5 681.9 590.7 681.7 592.6 681.7 594 681.7 595.4 681.2 595.4 681.2 595.4L680.2 595.4 680.5 598.1 680.5 598.1ZM680.5 599.8 684.8 599.8 684.8 606 680.5 606 680.5 599.8 680.5 599.8ZM680.5 606.9 718 606.9 718 614.1 680.5 614.1 680.5 606.9 680.5 606.9ZM621 640.1C622.7 640.1 617.7 645.6 613.6 647 612.6 647.5 612.2 647.7 611.7 648.7 611.2 649.7 610.5 651.6 610.3 651.8 608.9 653 608.2 652.3 608.2 652.3L608.4 640.1 621 640.1 621 640.1ZM667.6 552.7 667.4 552.7 667.4 552.5 667.2 552.5C666.9 552.5 666.7 552.5 666.5 552.5 664.1 552.5 662.4 556.6 661.7 558.5 661 560.4 661 562.6 661 562.6 658.4 564 655.3 569.3 657.9 571.4 659.8 573.1 657.9 573.8 660.1 573.8L667 573.8 667 573.8 667 573.8 674.2 574C676.4 574 674.4 573.3 676.4 571.6 679 569.4 675.9 564.2 673.3 562.8 673.3 562.8 673.3 560.7 672.6 558.7 671.7 556.5 670 552.7 667.6 552.7L667.6 552.7ZM653.3 598.1 649.7 598.3C646.1 598.3 644.9 595.7 644.2 592.8 643.5 589.5 639.7 589.2 639.7 585.4 639.7 583.2 642.6 581.1 644.5 581.6 644.7 581.6 645 581.6 645 581.6 645 581.6 644 583.3 644.5 584.2 645.2 586.6 650 586.6 651.4 589.5 651.9 590.7 652.1 592.6 652.1 594 652.1 595.4 652.6 595.4 652.6 595.4L653.6 595.4 653.3 598.1 653.3 598.1ZM680.5 616.2 718 616.2 718 631 680.5 631 680.5 616.2 680.5 616.2ZM680.5 632.7 718 632.7 718 639.6 680.5 639.6 680.5 632.7 680.5 632.7ZM680.5 652.8C681 652.1 682.4 650.4 683.6 649.7 686.9 647.8 690.5 645.9 692.2 642.5 692.7 641.3 692.7 641.1 692.7 641.1L692.7 641.1 692.7 641.1 680.5 641.1 680.5 652.8 680.5 652.8ZM717.8 652.8C717.8 652.8 716.4 650.4 714.9 649.7 711.6 647.8 708 645.9 706.3 642.5 705.8 641.3 705.8 641.1 705.8 641.1L717.8 641.1 717.8 652.8 717.8 652.8ZM718 602.6 718 605.2C718 605.4 715.4 605.4 714.2 605.2 713 604.7 709.9 604 708.7 602.8 707.7 601.4 707 600.9 707.3 599.9 707.3 598.7 707.5 598 709.2 597.3 710.6 596.6 709.4 596.4 709.9 595.2 710.6 594 712.5 592.6 715.4 593.3L716.1 593.3 716.1 602.4 718 602.6 718 602.6ZM742.6 605.7 746.4 605.7C749.7 605.9 750.9 603.1 751.6 600.5 753 596 756.1 596 756.1 592.1 756.1 590 754.9 588.5 753 588.8 752.8 588.8 752.5 589 752.5 589 752.5 589 753 590.4 752.5 591.2 750.6 593.3 746.1 594.3 744.6 597.2 744.1 598.2 743.6 600.3 743.6 601.5 743.6 602.9 743.4 602.9 743.4 602.9L742.4 602.9 742.4 605.7 742.6 605.7ZM742.9 632.7 747.9 632.7 747.9 639.6 742.9 639.6 742.9 632.7 742.9 632.7ZM742.2 606.9 747.7 606.9 747.7 614.1 742.2 614.1 742.2 606.9 742.2 606.9ZM743.4 681C743.4 681 748.7 683.9 749.8 687.5 751 690.8 750.8 692.3 750.8 692.3 754.9 695.2 759.6 699.5 759.4 705.7 759.4 710 758 713.1 758 713.1 758 713.1 762.5 716.9 764 720.3 765.2 723.6 764.5 733.2 762.8 733.2L743.7 733 743.4 681 743.4 681ZM743.4 735.5 767.8 735.5 767.8 742.7 743.4 742.7 743.4 735.5Z" fill="#FFFFFF"/><path d="M540.5 0.5 540.5 0.5 540.5 0.5C689.6 0.5 824.6 61 922.3 158.7 1020 256.4 1080.5 391.4 1080.5 540.5L1080.5 540.5 1080.5 540.5 1080.5 540.5 1080.5 540.5C1080.5 689.6 1020 824.6 922.3 922.3 824.6 1020 689.6 1080.5 540.5 1080.5L540.5 1080.5 540.5 1080.5 540.5 1068.3 540.5 1068.3 540.5 1068.3C686 1068.3 818.1 1009.3 913.7 913.7 1009.3 818.1 1068.3 686.2 1068.3 540.5L1068.3 540.5 1068.3 540.5 1068.3 540.5 1068.3 540.5C1068.3 394.7 1009.3 262.9 913.7 167.3 818.1 71.7 686 12.4 540.5 12.4L540.5 12.4 540.5 12.4 540.5 0.5 540.5 0.5ZM540.5 211.5 540.5 211.5 540.5 211.5C631.3 211.5 713.5 248.3 773 308 832.5 367.5 869.5 449.7 869.5 540.5L869.3 540.5 869.3 540.5 869.3 540.5 869.5 540.5C869.5 631.3 832.5 713.7 773 773 733.6 812.4 684.4 841.8 629.4 857.1L636.6 867.6C692 851.3 741.7 821.5 781.6 781.6 843.2 720 881.5 634.9 881.5 540.5L881.5 540.5 881.5 540.5 881.5 540.5 881.5 540.5C881.5 446.4 843.3 361.1 781.6 299.4 720 237.5 634.7 199.5 540.5 199.5L540.5 199.3 540.5 199.3 540.5 211.5ZM540.5 1080.5 540.5 1080.5 540.5 1080.5C391.4 1080.5 256.4 1020 158.7 922.3 61 824.6 0.5 689.6 0.5 540.5L0.5 540.5 0.5 540.5 0.5 540.5 0.5 540.5C0.5 391.4 61 256.4 158.7 158.7 256.4 61 391.4 0.5 540.5 0.5L540.5 0.5 540.5 0.5 540.5 12.4 540.5 12.4 540.5 12.4C394.7 12.4 262.9 71.7 167.3 167.2 71.7 262.9 12.4 394.7 12.4 540.5L12.4 540.5 12.4 540.5 12.4 540.5 12.4 540.5C12.4 686.3 71.7 818.1 167.2 913.7 262.8 1009.3 394.7 1068.3 540.4 1068.3L540.4 1068.3 540.4 1068.3 540.4 1080.5 540.5 1080.5ZM540.5 199.3 540.5 199.3 540.5 199.3 540.5 199.5C446.4 199.5 361.1 237.5 299.4 299.4 237.5 361 199.5 446.3 199.5 540.5L199.5 540.5 199.5 540.5 199.5 540.5 199.5 540.5C199.5 634.9 237.5 719.9 299.4 781.6 339.3 821.5 388.8 851.4 444.4 867.6L451.6 857.1C396.4 841.8 347.2 812.4 308 773 248.3 713.7 211.5 631.3 211.5 540.5L211.5 540.5 211.5 540.5 211.5 540.5 211.5 540.5C211.5 449.7 248.3 367.5 308 308 367.5 248.3 449.7 211.5 540.5 211.5L540.5 211.5 540.5 211.5 540.5 211.5 540.5 199.3Z" fill="#004097"/><path d="M611 416.7C614.6 416.2 617.7 415.5 619.4 415.3 624.2 414.6 628.7 409.6 634.4 406 640.4 402.4 649.7 398.1 656.4 396 662.8 393.9 663.6 391.2 663.3 389.3 663.1 387.4 659 384 651.6 378.3 644 372.6 641.3 363.7 634.9 357 630.8 353.2 624.2 349.1 621 348.2 619.3 347.7 617.2 347.2 614.5 347 614.5 345.6 614.7 337 613.8 334.3 612.8 331.7 611.9 329.3 610.9 326.6L610.9 356.5C619.5 357.5 623.3 359.6 627.6 363.4 632.1 367.5 633.6 372.5 636.4 376.8 639.5 380.9 647.6 388.3 647.6 388.3 647.6 388.3 634.9 392.4 628.7 396.9 621.5 401.9 618.2 405.3 610.8 406L610.8 416.7ZM589.2 425.8C591.1 422.9 592.8 419.3 593.8 415.3 593.8 415 594 414.6 594 414.3L594.2 414.5C594.2 414.5 599.9 416.4 605.9 416.7 607.6 416.9 609.2 416.7 610.9 416.7L610.9 406C609.5 406.2 608 406.2 606.4 406.2 601.9 406 597.1 404.3 595.2 404.1 594.7 404.1 594.2 403.9 593.5 403.6 592.5 400 590.9 396.9 589.2 394.8L589.2 425.8 589.2 425.8ZM611 326.6C608.4 319.9 606.2 312.8 606 302.5 606 300.6 606.2 297 604.6 296.5 602.7 296 599.3 294.3 596.5 296 594.6 297 592 298.1 589.3 298.9L589.3 309.9C591 309.4 592.4 308.9 593.1 308.7 595.7 307.3 596.2 307.3 596.2 307.3 596.2 307.3 597.4 313.5 597.4 316.4 597.4 319 599.1 324.8 600.5 327.6 603.6 334.5 604.1 338.6 604.1 346.2L604.1 346.4C599.1 346.6 593.8 347.6 589.3 349.5L589.3 349.5 589.3 361.4C594.3 357.8 599.6 355.4 608.2 356.1 609.2 356.1 610.1 356.1 611.1 356.3L611.1 326.6ZM579.4 433.9C583.5 432.2 586.6 429.4 589.2 425.8L589.2 394.7C588.2 393.5 587.3 392.3 586.6 391.6 584.7 389.7 582.5 387.1 579.4 384.9L579.4 396.8C581.8 399.4 583.5 402.8 584.4 406.8 585.4 410.6 583.4 416.6 579.4 420.9L579.4 433.9 579.4 433.9ZM589.2 298.9C587.3 299.6 585.6 300.1 583.9 300.3 582.7 300.5 581 301 579.4 301.3L579.4 312C583 311.3 586.6 310.6 589.2 309.9L589.2 298.9 589.2 298.9ZM589.2 349.6 589.2 361.5C587.8 362.5 586.6 363.2 585.4 364.4 583 366.1 581.1 368.7 579.4 371.3L579.4 355.5C582.1 353.4 585.2 351.3 589.2 349.6ZM575.4 435.4C576.8 434.9 578.3 434.4 579.5 434L579.5 421C578.3 422.4 577.1 423.4 575.4 424.3L575.4 435.4 575.4 435.4ZM579.4 301.3C578.2 301.8 576.8 302 575.3 302.2L575.3 312.7C576.7 312.5 577.9 312.2 579.4 312L579.4 301.3 579.4 301.3ZM579.4 355.6 579.4 371.4C577.5 374.7 576.1 378.1 575.3 380L575.3 359.7C576.6 358.2 578 356.8 579.4 355.6L579.4 355.6ZM579.4 385 579.4 396.9C578.2 395.7 576.8 394.3 575.3 393.3L575.3 382.8C577.1 383.5 578.3 384.2 579.4 385L579.4 385ZM575.4 354.1 575.4 345.5C576.4 346.7 576.8 348.1 576.8 349.8 576.8 351.5 576.3 352.9 575.4 354.1ZM568.5 450.7C571.4 445.7 573.5 440.4 574.9 435.4L575.1 435.4 575.3 435.4 575.3 424.4C574.6 424.9 573.6 425.4 572.4 425.8 571.2 426 569.8 426.5 568.3 426.8L568.3 450.7 568.5 450.7ZM575.4 302.3C573 303 570.1 303.7 568.5 304.5L568.5 315C569.4 314.8 570.2 314.5 570.9 314.3 572.3 313.8 574 313.3 575.4 312.9L575.4 302.3 575.4 302.3ZM575.4 345.5 575.4 354.1C574.2 356.5 571.6 358.2 568.5 358.2L568.5 341.5C571.6 341.5 574.2 342.9 575.4 345.5L575.4 345.5ZM575.4 359.6 575.4 379.9C575.2 381.1 574.9 381.6 574.9 381.6L574.4 382.3C574.9 382.3 575.1 382.5 575.4 382.8L575.4 393.3C573.5 391.9 571.1 390.9 568.5 390.2L568.5 370.8C569 370.1 569.2 369.4 569.7 368.7 571.6 365.4 573.2 362.5 575.4 359.6ZM538.8 472.4C547.4 471.9 553.9 468.1 559.3 462.8 562.9 459.2 566 455.2 568.4 450.6L568.4 426.7C562.7 428.1 556 429.3 552.6 431.7 547.6 435 541.1 441.7 538.7 443.9L538.7 456.8C540.4 455.8 544 451.8 552.1 444.1 556.4 440 559.7 438.4 563.1 437.4 562.6 438.6 562.1 440.7 560.7 444.1 557.4 452.5 548.8 462.7 538.7 462.7L538.7 472.4 538.8 472.4ZM568.5 304.4C568.3 304.4 568.3 304.6 568 304.6 556.5 309.4 549.1 315.1 539.1 322.5 539.1 322.5 539.1 322.7 538.9 322.7L538.9 333.2C549.4 330.8 557.8 319.3 568.5 314.8L568.5 304.4 568.5 304.4ZM568.5 341.5 568.5 358.2C564 358.2 560.1 354.4 560.1 349.8 560.1 345 563.9 341.5 568.5 341.5L568.5 341.5ZM568.5 370.9 568.5 390.3C566.8 390.1 564.9 389.8 563 389.8 555.8 390 546.7 396.5 542.4 399.8 541 400.7 539.5 400.7 538.8 400.5L538.8 360.4 544.1 360.4 544.1 386.7C544.6 386.5 545.1 386.2 545.5 385.8 545.5 385.1 545.7 383.4 546.2 381.5 546.4 379.1 547.9 376.5 548.8 373.6 551.4 367.4 556.7 360.2 556.7 360.2L564.8 365.9C562.2 368.8 559.3 374.3 557.6 378.6 557.1 379.6 556.6 380.5 556.4 381.2 559.3 380.5 562.1 380 565 380.2 565.3 378.5 566.3 375.2 568.5 370.9L568.5 370.9ZM538.8 353.2 538.8 336.2C543.6 336.2 547.4 340 547.4 344.8 547.4 349.3 543.6 353.2 538.8 353.2ZM509.2 450.7C511.8 455.2 514.7 459.3 518.3 462.9 523.8 468.2 530.5 472 538.8 472.5L538.8 462.9C529 462.9 520.4 452.6 516.8 444.3 515.6 441 514.9 438.8 514.7 437.6 518 438.6 521.1 440.2 525.7 444.3 533.8 451.9 537.4 456 538.8 457L538.8 444C536.7 441.9 530 435.2 524.9 431.8 521.8 429.4 515.1 428.2 509.1 426.8L509.1 450.7 509.2 450.7ZM538.8 322.8C538.8 322.8 538.8 322.6 538.6 322.6 528.8 315.2 521.4 309.5 509.9 304.7 509.7 304.7 509.4 304.5 509.2 304.5L509.2 315C520 319.5 528.3 331 538.8 333.4L538.8 322.8 538.8 322.8ZM538.8 336.2 538.8 353.2C534.3 353.2 530.4 349.4 530.4 344.8 530.5 340 534.3 336.2 538.8 336.2L538.8 336.2ZM538.8 360.3 538.8 400.4C538.3 400.6 536.9 400.6 535.5 399.7 531 396.3 521.9 389.9 514.7 389.7 512.8 389.7 511.1 389.9 509.2 390.2L509.2 370.8C511.6 375.1 512.3 378.4 512.8 380.1 515.7 379.9 518.5 380.3 521.2 381.1 521 380.4 520.7 379.4 520.2 378.5 518.3 374.2 515.4 368.7 513 365.8L521.1 360.1C521.1 360.1 526.4 367.3 528.7 373.5 529.9 376.4 531.1 379 531.6 381.4 531.8 383.3 532.1 385 532.3 385.7 532.8 386.2 533.3 386.4 533.7 386.6L533.7 360.3 538.8 360.3 538.8 360.3ZM509.2 358.2 509.2 341.5C514 341.5 517.6 345.1 517.6 349.8 517.6 354.4 514 358.2 509.2 358.2ZM502.8 435.4C504.2 440.4 506.6 445.7 509.2 450.7L509.2 426.8C507.8 426.6 506.6 426.1 505.4 425.8 504.2 425.3 503 424.8 502.1 424.4L502.1 435.4C502.3 435.4 502.3 435.4 502.6 435.4L502.8 435.4 502.8 435.4ZM509.2 304.4C507.5 303.7 504.9 303 502 302.2L502 312.7C503.9 313.2 505.3 313.7 506.8 314.1 507.7 314.3 508.5 314.6 509.2 314.8L509.2 304.4 509.2 304.4ZM509.2 341.5 509.2 358.2 509.2 358.2C506.3 358.2 503.5 356.5 502 354.1L502 345.5C503.5 342.9 506.3 341.5 509.2 341.5L509.2 341.5 509.2 341.5ZM509.2 370.9 509.2 390.3C506.8 391 504.2 392 502 393.4L502 382.9C502.5 382.7 503 382.4 503.2 382.4L502.7 381.7C502.7 381.7 502.5 381.2 502 380L502 359.7C504.4 362.6 506.3 365.4 508 368.8 508.5 369.4 509 370.1 509.2 370.9ZM502 302.3C500.8 302.1 499.4 301.8 497.9 301.4L497.9 312.1C499.3 312.3 500.8 312.6 502 312.8L502 302.3 502 302.3ZM498 433.9C499.4 434.4 500.6 434.9 502.1 435.3L502.1 424.3C500.7 423.4 499.2 422.4 498 421L498 433.9 498 433.9ZM502 345.5 502 354.1C501.3 352.9 500.8 351.5 500.8 349.8 500.8 348.2 501.3 346.7 502 345.5L502 345.5ZM502 359.6 502 379.9C501.3 378 500.1 374.6 497.9 371.3L497.9 355.5C499.6 356.8 500.8 358.2 502 359.6L502 359.6ZM502 382.8 502 393.3C500.6 394.3 499.1 395.7 497.9 396.9L497.9 385C499.2 384.2 500.6 383.5 502 382.8ZM498 301.3C496.3 301.1 494.9 300.6 493.7 300.3 492 300.1 490.1 299.6 488.4 298.9L488.4 309.9C491 310.6 494.6 311.3 498 312L498 301.3 498 301.3ZM488.4 425.8C490.8 429.4 494.1 432.3 498 433.9L498 421C493.9 416.7 492 410.7 493 406.9 494.2 402.8 495.9 399.5 498 396.9L498 385C495.1 387.1 493 389.8 491.1 391.7 490.1 392.4 489.2 393.6 488.5 394.8L488.5 425.8 488.4 425.8ZM498 355.6 498 371.4C496.6 368.8 494.4 366.1 492.3 364.5 490.9 363.3 489.7 362.6 488.5 361.6L488.5 349.7C492.5 351.3 495.6 353.4 498 355.6ZM488.4 298.9C485.5 298.2 482.9 297 481.2 296 478.3 294.3 475 296 473.1 296.5 471.2 297 471.7 300.6 471.7 302.5 471.5 312.8 469.1 319.9 466.7 326.6L466.7 356.5C467.4 356.3 468.4 356.3 469.3 356.3 478.1 355.6 483.2 358 488.4 361.6L488.4 349.7 488.4 349.7C483.6 347.8 478.4 346.8 473.3 346.6L473.3 346.4C473.3 338.8 474 334.7 477.1 327.8 478.5 324.9 480 319.2 480 316.6 480 313.7 481.4 307.5 481.4 307.5 481.4 307.5 481.6 307.5 484.3 308.9 485 309.1 486.4 309.6 488.4 310.1L488.4 298.9 488.4 298.9ZM466.7 416.7C468.1 416.7 470.1 416.9 471.7 416.7 477.7 416.5 483.4 414.5 483.4 414.5L483.6 414.3C483.6 414.5 483.6 415 483.8 415.3 484.8 419.3 486.2 422.9 488.3 425.8L488.3 394.7C486.6 396.8 484.7 400 483.8 403.5 483.3 403.7 482.8 404 482.4 404 480.5 404.2 475.5 405.9 470.9 406.1 469.2 406.1 467.8 406.1 466.6 405.9L466.6 416.7ZM466.7 326.6C465.8 329.2 464.6 331.6 463.6 334.3 462.6 336.9 462.9 345.5 463.1 347 460.5 347.2 458.1 347.7 456.4 348.2 453.3 349.2 446.6 353.2 442.8 357 436.1 363.7 433.5 372.5 425.8 378.3 418.4 384 414.6 387.4 414.3 389.3 414.1 391.2 414.6 393.8 421.2 396 427.9 398.1 437.2 402.5 442.9 406 448.9 409.6 453.2 414.6 458.2 415.3 459.6 415.5 463 416.3 466.6 416.7L466.6 406C459 405.3 455.6 401.9 448.7 396.9 442.5 392.4 429.8 388.3 429.8 388.3 429.8 388.3 437.9 380.9 440.8 376.8 443.9 372.5 445.1 367.5 449.9 363.4 454.2 359.6 457.8 357.4 466.6 356.5L466.6 326.6Z" fill="#FFFFFF"/><path d="M96.3 380.4C96.3 380.4 92.7 375.6 92 379.2 91.3 383 89.8 385.7 88.6 385.7 87.2 385.7 83.6 384.5 83.8 383.1 84.3 381.4 85.7 376.6 84 376.4 82.3 376.2 74.2 373.5 74.2 373.5 74.2 373.5 68.7 372.3 68 369.7 67 367.3 67.5 361.8 69.4 358.9 71.6 355.8 72.8 357.2 73.9 357 75.1 356.8 77 355.6 79.2 358.7 81.3 361.8 88.5 367.3 87.6 364.2 86.9 361.3 85.9 354.9 83.3 348.7 80 341.1 73.7 334.6 74.7 331.7 75.9 327.4 80.4 325.5 82.3 325.2 84.4 324.7 89.2 329 89.2 329 89.2 329 89 336.2 90.2 340.7 93.1 350 92.1 351.5 93.1 359.3 93.8 363.4 91.7 369.3 96.2 369.8 100.3 370.3 111.5 385.8 110.3 378.9 109.8 375.8 110.5 376 109.1 374.4 107.7 372.5 102.2 364.1 105.3 364.1 108.4 364.1 112.2 364.1 109.4 361.5 106.8 358.9 102.7 352.9 101.3 351.2 99.6 349.3 96 345 99.1 343.3 102.2 341.4 104.1 342.6 105.6 344.7 106.8 346.6 107.3 349.5 109.4 350.4 110.8 350.9 112.3 352.8 111.8 349.4 111.1 345.8 108.5 339.1 108 338.2 107.5 337.2 109.2 332.2 110.9 330.8 112.3 329.4 113.1 332.2 113.5 334.4 114 335.6 115.2 340.8 115.9 345.6 116.4 349.2 115.4 353.5 116.1 354.7 117.5 357.1 126.4 373.8 127.8 375.5 129 376.9 129.5 376 129.9 375.7 130.1 375.5 130.1 375.7 129.9 374.7 129.2 370.9 128.2 346 129.7 342.4 131.1 338.8 131.6 335.7 133.3 336.2 134.7 336.9 137.8 341.2 137.8 343.4 137.8 345.8 136.4 348.9 135.2 351.3 134 353.9 134.2 369.9 134.7 372.6 134.9 375.2 135.2 377.9 135.2 377.9 137.3 378.9 152.9 388.4 155.7 386.5 156.2 386 156.2 385.6 155.9 384.8 155.4 381.4 155.9 375.7 158.8 375.2 161.4 374.7 164.5 376.6 164.1 379.3 163.4 381.9 161 388.9 163.4 390.1 165.8 391 186.8 396.5 190.6 397.5 194.4 398.5 206.9 403.5 201.8 408 196.5 412.8 192.5 414.7 190.6 414.4 188.9 414.4 186.8 414.4 188 412.3 189.4 410.2 190.1 408.7 179.2 403.7 168.4 398.9 164.6 396.8 164.4 398.2 163.9 399.6 165.4 407.3 166.6 407.8 167.8 408.5 173.8 414.2 169.2 418.1 164.4 421.9 158.7 420.5 158.7 418.3 158.7 416.2 158.9 416.6 158.9 415.2 158.7 413.5 156 404.7 156 400.4 156 396.3 156.7 395.6 156.7 395.6L138.3 388.7C138.3 388.7 135.7 387.7 136.6 392.5 137.3 397 139 409.2 143.8 422.1 148.3 434.8 151.9 435.7 150.2 441.2 148.8 446.9 145.2 450.8 144.9 449.1 144.2 446.9 140.1 449.1 139.2 446.7 133 432.8 133.5 410.6 131.6 395.8 130.9 390.1 130.4 385.8 130.4 385.8 130.4 385.8 118.7 379.4 117.3 378.2 116.1 377.5 117.1 383.5 117.5 390.4 117.7 393 117.3 395.4 117.7 397.1 119.1 401.2 120.8 406.7 117.5 408.3 106.5 413.3 110.6 394.4 109.4 391.3 108.9 389.9 108 390.8 107.3 389.9 104.4 386.9 100.1 383.5 96.3 380.4Z" fill="#004097"/><path d="M238.7 246.8C238.7 246.8 239.7 243.5 242.8 243.7 248.8 243.9 273.4 264.5 272.7 269.5 272.5 271.2 265.3 280.3 262.9 279.5 260.7 278.5 258.6 273.8 256.9 270.4 252.3 262.1 244.7 254.3 238.7 246.8Z" fill="#004097"/><path d="M279.6 179.9C286.5 188.3 293.7 196.4 298.7 201.9 312.1 216.2 319.5 224.6 319.5 224.6 319.5 224.6 319 232.5 311.6 233.2 304 234.2 291.3 234.6 289.9 233.9 288.7 233.2 288.7 233.2 292.3 231 295.9 229.1 303 227.9 302.8 225.3 302.8 222.7 286.3 205 279.6 196.6L279.6 179.9 279.6 179.9ZM279.6 246.8C279.8 247 280.1 247 280.1 247.3 283.9 250.9 286.8 251.4 291.3 250.9 295.8 250.2 291.5 243.7 291.5 243.7 291.5 243.7 281 231.7 280 230.1 279.3 228.4 280.5 222.9 280.5 219.3 280.5 218.1 280 217.6 279.5 217.4L279.5 246.8ZM268.3 165.6C271.6 170.4 275.7 175.2 279.5 179.9L279.5 196.6C279.5 196.4 279.5 196.4 279.3 196.4 276.4 192.8 272.4 186.8 268.3 181.1L268.3 165.6 268.3 165.6ZM279.6 217.5 279.6 246.9C276.3 243.6 275.3 242.6 273.9 244.5 272.9 246.2 269.6 249.8 268.4 249.5L268.4 247.6C270.1 243.1 272.5 240.4 272.5 240.4L268.4 236.3 268.4 231.7C271 229.8 274.8 227.2 274.8 227.2 274.8 227.2 274.3 220 275.5 218.8 276.2 218.2 278.4 216.7 279.6 217.5L279.6 217.5ZM268.3 219.6C269.3 218.2 270.2 216.7 270.7 216 271.4 214.8 270 213.6 268.3 212.9L268.3 219.6ZM262.9 158C264.6 160.4 266.5 163 268.4 165.7L268.4 181.2C266.5 178.3 264.6 175.5 262.9 173.1L262.9 158 262.9 158ZM268.3 212.9 268.3 219.6C266.9 222 265.4 224.4 265.4 225.8 265.4 227.9 263.5 227.5 263.5 227.5 263.5 227.5 263.3 227.5 262.8 227.8L262.8 214.2C263.8 213.2 264.9 212.5 265.9 212.5 266.7 212.4 267.6 212.4 268.3 212.9L268.3 212.9ZM268.3 231.8 268.3 236.4 265.9 233.8C266.2 233.2 267.2 232.5 268.3 231.8L268.3 231.8ZM268.3 247.6 268.3 249.5C268.1 249.5 267.8 249 268.3 247.8 268.3 247.8 268.3 247.8 268.3 247.6ZM219.6 226.8C219.6 226.8 219.6 233 218.2 234.7 217 236.4 214.6 236.6 213.4 236.8 212 237 212.9 235.8 211.5 237.3 210.3 238.5 202.2 239.2 204.8 234.2 207.2 229.2 208.2 229.9 208.9 227.3 209.6 224.7 212 214.9 213 210.3 214.2 205.5 217.3 195.7 217.3 195.7 217.3 195.7 219 192.4 213.7 184.5 208.5 176.6 205.6 171.1 203.9 169 202.2 166.8 202 164.7 204.1 164.7 206.2 164.9 220.3 166.8 221.8 167.1 223.2 167.3 224.2 167.8 225.1 164.7 226.1 161.6 226.8 157.1 229.4 159.7 232 162.3 236.6 166.9 234.4 174.3 232.3 181.7 230.6 185.1 233.2 194.4 235.6 203.5 235.6 210.2 236.8 211.4 238 212.4 239.2 218.3 240.6 217.1 242.3 216.1 245.9 210.4 246.1 202.3 246.4 196.6 244.2 193.9 243.7 191.6 243.5 191.4 243.5 191.1 243.5 191.1 242.3 187.8 243.5 184.4 245.7 183.7 245.9 183.7 245.9 183.7 246.2 183.7 249.1 174.4 248.8 164.8 253.4 155 255.1 151.9 258.2 149.5 259.9 152.6 260.6 154.3 261.8 155.9 263 158.1L263 173C260.4 168.9 258.5 165.8 258 165.1 257 163.2 255.4 161 253.9 170.6 252.5 179.9 251.3 182.1 254.4 182.8 257.3 183.5 260.8 184.9 259.2 191.4 257.3 198.1 252.7 203.1 253.2 205.3 253.9 207.7 253.7 212.9 255.1 214.9 256.3 216.8 255.3 221.4 252.7 221.1 250.1 220.9 246.7 220.4 246.7 220.4L246.7 234.7C246.7 234.7 237.1 243.3 238.1 239 239.1 234.7 241.7 230.2 241.7 226.8 241.7 223.5 237.2 222 235.7 218.4 234.5 215.1 228.8 202.2 226.4 203.8 224 205.2 220.7 217.9 220.7 221.7 220.3 225.6 219.6 226.8 219.6 226.8L219.6 226.8ZM262.9 214.1C261.5 215.8 260.5 217.7 260.7 219.1 261.2 221 254 224.1 255 227 255.7 230.1 258.1 230.8 260 229.6 261.2 228.6 262.1 228.2 262.9 227.7L262.9 214.1Z" fill="#004097"/><path d="M462.8 75.1 455.6 78.9C455.6 78.9 455.8 72.7 464 65 472.1 57.6 479.3 49.2 483.1 47.8 486.9 46.4 493.4 45.9 493.4 50.2 493.6 54.5 491.5 61.9 490 65 488.6 68.1 485 98.9 484.8 101.3 484.3 103.9 477.6 108.2 475.7 109 473.8 109.7 473.8 113.3 474.3 120.5 474.5 127.4 474.8 129.3 477.4 129.1 480 129.1 487.7 126.5 488.1 130.8 488.6 135.1 480.4 149.2 480 150.2 478.6 153.3 477.6 155.9 480.9 155.5 484.5 155 488.1 152.2 491.7 151.2 495 150.2 495.8 151 498.4 154.1 501 157.4 500.3 163.4 493.4 164.6 486.2 165.8 486.9 166.7 483.1 167.2 479.3 167.7 469 167.7 467.6 163.4 466.2 159.1 471.9 160.1 470.9 157.2 470.2 154.3 471.1 144.1 470 144.3 468.6 144.3 463.1 142.2 465 139.5 465.5 138.5 466.9 138.1 467.1 136.2 467.8 132.1 466.6 125.7 465.7 124.3 464.3 122.1 458 120.2 460.4 116.2 461.1 114.8 461.8 115 462.5 113.1 463.9 110 463.9 104.3 464.9 103.1 466.1 101.2 463.9 101 462 101.4 460.3 101.6 457.7 98.8 459.9 96.1 461.3 94.4 465.6 95.1 467.1 91.8 467.8 89.9 467.6 85.6 467.8 83.4 468.8 77.7 468.5 77.9 468.5 77.9 468.5 77.9 472.6 74.1 473 76.7 473.7 79.3 473.2 84.1 473.2 87.4 473.2 90.5 474.6 94.1 476.3 91.2 478 88.6 481.6 66.3 482.8 63 484 59.4 483.5 54.2 481.4 56.8 476.2 62.6 467.9 68.6 462.8 75.1Z" fill="#004097"/><path d="M443.7 85.3C442.3 84.8 440.4 82.7 444.2 81.5 448.3 80.3 453.8 79.1 454.5 82.9 455 86.5 457.1 98.9 457.4 100.8 457.6 103 458.6 107.7 452.6 107.3 446.9 107.1 447.3 103 447.1 97.7 446.6 92.5 445.2 85.8 443.7 85.3Z" fill="#004097"/><path d="M419.1 97.3C419.1 97.3 417.9 98 416.5 99.7 414.8 101.4 414.1 102.8 412.2 103 411 103 404.1 100.6 403.8 99.2 403.8 98 402.8 96.1 404.3 94.2 408.1 89.7 418.6 83.4 420.5 81.5 423.1 78.9 430.3 72.4 431 76.2 431.2 77.9 436 80 435.8 83.4 435.8 87.7 432.7 94.9 432.7 97.5 432.7 102.3 431.7 116.6 431.7 116.6 431.7 116.6 435.8 117.1 435.3 119.9 434.6 122.5 429.6 125.4 432.9 127.6 436 129.7 437.2 128.1 437.9 125 438.6 121.9 440.3 118.6 440.3 118.6 440.3 118.6 439.8 126.5 435.8 142 431.5 157.5 427.7 163.7 424.1 166.1 420.5 168.5 416 166.8 417.4 163 418.8 159.4 418.4 154.9 419.1 152.7 419.8 150.6 422.2 144.6 422.7 143.4 423.2 142.2 422.5 135.3 420.1 135 417.7 135 412.2 139.1 409.4 139.5 406.5 140.2 408.9 130.9 408.9 131.4 409.6 132.9 410.6 130.2 411.8 129 414.9 126.1 418.7 124.7 418.7 124.7 418.7 124.7 423 123.7 422.3 117.3 421.8 110.8 422 101 421.1 98.9 420.1 96.5 419.1 97.3 419.1 97.3Z" fill="#004097"/><path d="M668.1 88.9C668.3 88.7 666.7 87.2 667.2 86.3 668.1 84.9 671.5 84.1 675.1 86.3 681.3 90.6 684.9 91.8 697.3 93.5 709.7 95.4 712.8 92.5 715.7 93.5 718.6 94.2 726.7 101.1 726.7 101.1 726.7 101.1 726.9 106.4 723.8 108.5 722.1 109.9 709.7 118.8 700.9 126.9 694.7 132.4 690.6 137.4 690.2 138.1 688.1 141.5 693.1 140 698.3 139.1 699.7 138.9 700.4 136.7 701.6 137 703.7 137.5 708.1 140.6 708.8 141.8 710 143.2 708.1 151.1 698.3 149.7 688.3 148 679.2 150.7 668.7 153.3 658.4 155.9 644.8 160.7 641.2 163.8 637.4 166.9 632.1 161.9 626.9 159 625.2 157.8 623.3 156.9 622.1 153.5 620.9 149.4 621.1 143.9 624.2 144.2 629.5 144.4 628.3 144.2 634.2 145.2 640.2 146.4 636.8 146.4 645.7 144 654.8 141.6 662.7 140.2 665.1 139.5 667.3 138.8 688.8 119.2 692.3 116.3 696.1 113.4 713.8 101.5 710.2 100.3 706.6 98.9 690.8 104.1 685.8 104.8 684.6 105 684.6 107.2 683.4 107.4 679.8 108.1 674.1 106.4 671.5 101.9 669.8 99.2 667.4 92 668.1 88.9Z" fill="#004097"/><path d="M854.9 236.1C855.1 236.1 853.7 240.2 853.7 244.7 853.7 249.2 854.4 260.5 856.3 265.7 858.2 271.2 860.6 277.4 862 279.3 863.4 281.2 865.3 286.2 860.3 283.6 857.2 281.9 854.3 277.9 851.5 276 847.7 273.1 843.9 272.4 842.2 270.7 839.3 268.3 840.1 267.4 841 257.6 841.7 250.9 844.8 247.1 844.8 244.2 845 241.1 845.5 237 848.1 236.5 850.6 235.9 854.7 236.1 854.9 236.1Z" fill="#004097"/><path d="M871.4 192.1C872.1 190.6 872.1 189 872.1 187.1 872.1 185.4 874.7 184.7 878.1 183.8 881.5 182.8 881.2 183.1 883.8 186.9 886.4 190.7 890.5 194.1 886.4 199.3 883.5 203.4 872.1 215.8 873 217 874.4 218.9 872.8 216 875.9 216.8 879.5 217.5 883.5 216.8 884.3 218.7 886 222.5 880.5 229.9 877.4 228.5 875 227.5 868.8 222.3 864.5 224.4 862.1 225.6 859.2 228.5 855.9 230.1 853.3 231.3 850.2 231.3 848 233 842.3 237.1 832.2 241.4 829.9 241.8 827.5 242.3 810.5 245.2 804.1 246.1 797.7 246.8 790.2 245.6 786.2 245.9 778.1 246.1 770.7 245.4 761.6 244.7 760.2 244.7 761.4 241.6 766.9 240.9 770 240.7 779.6 238.5 789.4 237.5 797.3 236.8 805.2 237.7 810.9 235.6 823.8 230.8 838.9 229.6 842 225.1 844.9 220.3 843 222.2 838.2 222.5 833.4 222.7 825.8 223.5 821.5 217.7 820.1 215.8 819.8 214.4 820.3 213.2 820.8 212 821.5 210.1 822.9 209.6 824.3 209.4 826.7 210.3 828.2 210.3 833 211 844.5 211.7 847.1 212.7 850 213.7 857.6 213.2 858.8 211.7 859.7 210.5 870.5 193.6 871.4 192.1Z" fill="#004097"/><path d="M973.9 377.3C974.6 377.1 975.6 377.1 976 377.1 977.7 377.6 980.1 381.2 978.2 381.6 976.8 381.8 975.6 382.8 973.9 383.5L973.9 389C974.9 389.2 976 389 977.5 388.8 980.6 387.8 980.4 386.9 981.8 382.1 983.5 377.3 987.3 382.1 989.5 384.3 991.4 386.2 995.9 389.6 997.1 392.4 998.1 395 993.3 394.8 990.4 394.3 987.3 393.6 979.4 393.3 974.2 392.9L974 392.9 974 397C974.5 397 974.7 397 975.2 396.8 981.9 396.6 989.5 400.9 995 402.5 997.6 403.5 1001.2 404.2 1004.1 403.2 1007.2 402.2 1009.3 399.9 1009.8 397.5 1010 395.8 1011.7 391.8 1007.7 390.1 1003.6 388.7 994.1 380.5 991.2 380.1 988.6 379.4 986.4 377.2 986.9 375.1 987.6 372.9 985.5 371 986.9 368.9 988.6 366.5 991 366.8 994.8 367.9 998.6 369.1 1004.8 371.2 1009.6 373.4 1014.4 375.3 1015.6 372.7 1018 372.7 1020.4 372.9 1020.6 370.8 1020.9 364.6 1021.1 358.1 1016.1 357.7 1015.9 359.3 1015.7 360.7 1015.2 359.8 1009.4 363.1 1003.7 366.7 984.6 362.4 982.9 361.7 981.2 361.2 981.2 358.6 979.6 356 977.9 353.6 976.5 352.2 974.6 351.2 974.4 351 974.4 351 974.1 350.7L974.1 355.7C974.8 357.1 975.3 358.3 974.8 359 974.6 359.2 974.3 359.5 974.1 359.5L974.1 363.8C977 365.7 978.4 366.7 978.2 368.6 978 370.8 977.7 371.7 976.5 370.5 975.8 369.8 974.8 369.5 974.1 369.5L974.1 377.3 973.9 377.3ZM973.9 347.4 973.9 338.8C974.4 339 974.6 339.3 974.9 340 976.6 342.4 974.7 345.5 974.7 345.5 974.7 345.5 974.2 346.5 973.9 347.4ZM968 378.5C968.5 378 969 377.8 969.9 377.8 971.3 378.1 972.8 377.6 974 377.3L974 369.4C973.5 369.4 973.3 369.4 973.3 369.4 973.3 369.4 970.9 368 970.2 367 969.5 365.8 970 361 973.3 363.2 973.5 363.4 973.8 363.4 974 363.7L974 359.4C973 360.4 971.8 360.4 970.7 359.4 969.3 358.2 968.8 358 968.8 358 968.8 358 968.1 356.8 968.1 355.6L968.1 361.1 968.1 361.3 968.1 378.5 968 378.5ZM973.9 383.5C973.2 383.7 972.2 383.7 971.3 383.5 969.9 383.3 968.7 383 968 382.8L968 387.1C968.5 387.1 969 387.3 969.7 387.8 971.1 388.5 972.6 389 974 389L974 383.5 973.9 383.5ZM973.9 338.8 973.9 347.4C973.7 348.4 973.4 349.5 973.9 350.5L973.9 355.5C973.4 354.8 972.9 353.8 972.7 353.1 971.5 351 970.8 352.9 968.6 353.8 968.1 354 967.9 354.5 967.9 355L967.9 345.2C968.6 344 969.1 342.8 969.6 342.1 970.8 339.1 972.5 337.9 973.9 338.8L973.9 338.8ZM973.9 392.8 973.9 396.9C971.3 396.9 969.4 396.4 967.9 396.4L967.9 392.1C969.9 392.4 972 392.6 973.9 392.8ZM966.3 382.1C966.5 381.1 966.8 379.5 968 378.5L968 361.3C967.8 362.7 967 364.2 966.3 364.6 964.4 365.1 960.8 364.8 960.8 364.8 960.8 364.8 960.1 360.5 964.6 359.1 967 358.4 967.7 359.6 967.9 361L967.9 355.5C967.9 355.5 967.9 355.3 967.9 355L967.9 345.2C965 349.3 960.2 354.8 957.1 358.1 953 362.4 948.7 361.4 949.9 359.8 951.1 357.9 952.3 352.9 953 351.2 953.7 349.5 953 347.4 951.8 344.5 950.4 341.9 949.4 345.5 947.5 349.3 945.8 353.1 943.2 357 941.5 357.4 939.8 358.1 939.4 358.8 937.4 361 935.2 363.4 937.4 362.9 940 364.1 942.6 365.3 952.9 366 956.3 366.5 959.6 367 961.6 369.8 961.3 372.2 961.1 374.6 954.6 372.9 952.7 372 950.6 371 947.4 372.2 948.4 373.7 949.1 375.4 953.4 375.9 959.4 378 965.4 380.1 963 382.5 961.6 383 960.4 383.2 957.8 382.5 955.6 384.7 953.7 386.8 962.8 387.1 964.2 386.8 965.4 386.8 966.3 386.6 967.8 387L967.8 382.7C966.8 382.3 966.3 382.1 966.3 382.1L966.3 382.1ZM968 392.1 968 396.4C966.1 396.2 964.9 396.4 964.4 398.1 963.4 401.4 967.5 406.5 965.1 407.2 962.5 407.9 960.3 410.3 953.9 404.1 947.5 397.9 943.1 397.4 938.4 395.7 933.9 394 925.7 391.6 928.1 395 930.5 398.1 931.9 400.3 933.8 400.5 935.7 400.7 940.2 409.1 937.6 413.7 935.2 418.2 934.2 416.1 928.8 413 923.5 409.6 918.5 407.5 917.6 406.5 916.9 405.8 922.1 406 924.1 405.8 925.8 405.3 928.4 405.8 925.5 402.7 921.2 398.4 919.8 399.6 917.4 402 915.2 403.9 911.4 406.8 910 407.5 906.9 408.7 895.7 415.4 893.3 416.3 891.2 417.3 882.8 418.2 882.1 414.6 881.6 413.4 881.9 411 881.4 408.4 880.4 403.1 879.3 397.4 879 396.5 879 395.1 880.2 392 882.1 395.1 883.8 398 886.2 405.4 888.3 406.1 888.8 406.1 889.7 405.1 891.7 404.7 893.8 404.2 897 404.2 899.3 403.3 903.6 401.1 907.4 397.8 908.9 397.1 911.8 395.2 913 394.5 908.2 389.9 903.4 385.4 891 381.3 886.5 373.6 885.5 371.9 883.1 367.6 882.9 366 882.9 364.8 885.8 362.9 886.7 362.9 887.9 362.7 889.8 366.3 890.8 367.4 892.2 370.5 897.5 375.3 900.6 376.5 901.8 377 902.7 377 904.9 377.9 908.7 379.6 913.7 382.5 915.6 383.9 918.5 386 921.6 387 924.2 386.5 927.1 386 930.2 389.8 932.3 390.8 934.2 391.8 943.5 394.4 946.4 393.2 949.5 392 950.7 392 948.5 391.3 946.4 390.6 933 380.1 929.9 374.8 929.7 374.3 925.1 372.6 924.9 372.2 922.8 367.6 927.5 366.9 931.1 370.8 934.9 375.1 937.3 377.7 941.6 380.1 946.1 382.5 948 382.5 952.8 386.8 957.3 390.9 958.5 392.5 960.2 392.3 961.3 391.9 964.4 391.9 968 392.1Z" fill="#004097"/><path d="M950 780.2 950 772C950.5 771.8 951 771.8 951.2 771.5 952.4 770.5 953.3 769.6 954.1 768.2 954.8 766.8 955.3 765.3 955.3 763.7 955.5 762.3 955.1 760.3 953.9 758.2 953.2 756.5 951.8 755.1 950.1 753.2L950.1 743.4C954.7 747.7 958.5 751.8 959.9 754.6 963 760.3 963 766.3 959.9 772.3 957.4 776.8 954.1 779.4 950 780.2L950 780.2ZM950 731.9 972.9 745.3 984.8 717.6 978.6 714.3 969.8 734.8 950 723.3 950 731.9 950 731.9ZM950 703.7 950 695.3C951 695.5 951.9 696 952.6 696.3 957.6 698.5 965 700.6 968.6 701.3 972.2 701.8 974.8 701.8 977 701.5 988 700.3 988.5 691.9 981.8 685.7 980.1 684.3 978.2 682.1 975.1 680.2 972 678.3 964.6 675.4 959.6 673.3 957.2 672.3 953.6 670.9 950 669.7L950 661.6C954.1 662.8 958.4 664.2 961.9 665.7 972.4 670 982.7 675.5 987 680.7 991.1 685.7 994.4 692.9 992.5 699.6 990.4 706.1 984.2 708.4 978.2 709.4 972.2 710.6 960.8 708.2 950.2 703.9L950 703.7 950 703.7ZM950 657.6C965.3 662.6 985.4 665 995.2 662.6 1000.9 661.2 1004.8 657.3 1006.2 650.7 1007.2 645.7 1006.2 641.4 1003.3 637.6L1008.5 638.8 1009.7 632.6 969.8 623.8 966.4 641.5 973.1 643.2 975 633.6C977.9 634.5 988.9 636.5 990.8 637.2 993 637.9 994.6 638.6 996.1 639.6 997.5 640.6 998.7 641.7 999.4 643.2 999.9 644.6 1000.1 646.5 999.6 648.5 999.4 649.9 998.9 651.4 997.9 652.6 996.9 653.5 995.5 654.5 993.6 655 982.8 658.3 962.3 653.8 949.9 649.5L949.9 657.6 950 657.6ZM950 628.4 950 620.3C950.5 620.3 951 620.5 951.4 620.5L950 628.4 950 628.4 950 628.4ZM950 612.7 950 605.5 967.2 602.2 950 593.8 950 585.9 976 599.3 1014.2 606.2 1013 614.1 975.5 607.4 950 612.7ZM950 585.9 950 593.8 934.7 586.2 935.4 578.3 950 585.9 950 585.9ZM950 605.5 950 612.7 929.7 617 931.1 608.9 950 605.5 950 605.5ZM950 620.3 950 628.4C945.9 627.4 942.6 627 939.7 627.9 934.7 629.8 933.7 633.6 934.9 638.4 935.1 639.8 936.1 641.3 937.8 642.7 939.2 644.4 941.9 645.8 945.2 647.2 946.4 647.7 948.1 648.4 950 649.1L950 657.5C942.8 655.1 936.6 652.3 933 649.1 928.2 645 926.5 639.5 926.5 632.9 926.5 627.9 931.8 621.9 937 620.5 939.4 619.8 941.5 619.3 943.9 619.6 946 619.6 947.9 619.8 950 620.3L950 620.3ZM950 661.7C941.6 659.1 933.3 657.2 929.2 657.9 923.5 658.9 917.5 661.7 915.6 668.4 913.7 674.9 916.6 681.8 920.6 687 924.7 692 939.2 699.4 950 703.7L950 695.3C944.3 692.9 935.2 688.9 932.6 687.2 929.5 685.3 927.3 683.1 925.9 681.5 920.4 675.5 920.9 667.4 930.7 665.7 932.6 665.5 935.5 665.5 939.1 666.2 941 666.7 945.6 668.1 950.1 669.8L950.1 661.7 950 661.7ZM950 723.3 950 731.9 903 704.6 903 702 904.9 697 950 723.3 950 723.3ZM950 743.4C945 738.9 939.3 734.3 934.5 730.7 924.7 724 911.3 716.1 905.4 715.6 904.4 715.6 903.7 715.6 903 715.6L903 723.7C903.7 723.7 904.4 723.7 905.1 723.7 907.2 723.7 909.9 724.7 913.2 726.1 916.5 727.8 926.1 734.2 930.9 737.6 935.4 741 945.5 748.6 948.3 751.2 948.8 751.9 949.5 752.4 950 753.1L950 743.4 950 743.4ZM950 772 950 780.1C948.8 780.6 947.4 780.6 945.9 780.3 939.9 780.1 925.8 771.7 916.3 765 912 761.9 907.2 758.1 902.9 754.5L902.9 745C902.9 745 903.1 745 903.1 745.2 905.7 747.8 915 755 919.8 758.1 924.3 761.4 932.5 766.5 935.8 767.9 939.1 769.6 944.2 772.2 946.3 772.4 947.9 772.5 949.1 772.3 950 772L950 772ZM903 833.2 903 822.9 916.6 837.2 911.8 842.9 903 833.2 903 833.2ZM903 810 923.3 828.2 927.6 822 903 800 903 810 903 810ZM903 787.6 940 804.8 944.3 798.3 903 761.3 903 771.6 923.5 790.2 903 779.9 903 787.6ZM903 702 903 704.6 902 704.1 903 702 903 702ZM903 715.6 903 723.7C901.8 723.9 901.1 724.2 900.4 724.7 899.2 725.7 898.2 726.8 897.5 728.3 896.8 729.5 896.3 730.9 896.3 732.6 896.1 734 896.5 736 897.7 738.1 898.7 740 900.3 742.4 903 745L903 754.6C897.7 750.1 893.2 745.3 891.5 741.9 888.4 735.9 888.4 730 891.5 724 894.4 718.7 898.2 716.1 903 715.6L903 715.6ZM903 761.3 882 742.9 878.2 749.4 903 771.6 903 761.3 903 761.3ZM903 779.9 903 787.6 874.1 774.2 903 800 903 810 871.2 781.6 871.2 764.2 903 779.9 903 779.9ZM903 822.9 871.2 789.9 871.2 799.7 880.8 809.5 871.2 821.2 871.2 840.6 893.4 864 898.2 858.3 872.9 830.6 885.8 814.8 903 833.2 903 822.9 903 822.9ZM871.2 887.4 871.2 878.6C871.2 878.4 871.2 878.4 871.2 878.4 872.2 877.4 872.9 876.5 873.3 875.5 873.8 874.3 873.8 872.9 873.8 871.4 873.6 869.7 873.1 867.8 871.9 865.4 871.7 864.9 871.4 864.2 871.2 863.7L871.2 853.2 872.2 852.2C877.2 858.9 880.1 864.9 880.6 870.1 881.1 875.4 879.6 879.9 875.6 884 874.1 885.5 872.6 886.7 871.2 887.4ZM871.2 764.1 871.2 781.5 861.6 772.9 868.8 762.9 871.2 764.1 871.2 764.1ZM871.2 790 858.5 776.9 853.9 782.9 871.1 799.9 871.1 790 871.2 790ZM871.2 821.3 871.2 840.7 838 805.5 838 802.6 841.3 798.3 867.8 825.1 871.2 821.3 871.2 821.3ZM871.2 853.3 871.2 863.8C870 861.9 868.6 859.7 866.9 857.6L871.2 853.3 871.2 853.3ZM871.2 878.6C870 879.6 869 880 867.6 880.5 866.4 880.7 864.7 880.5 862.8 879.8 860.6 878.8 858.3 877.2 855.6 874.8 852.7 872.2 846 864 842.5 859.5 841.3 857.8 839.6 855.4 838 853.1L838 865.8C845.4 875.1 855 885.2 860.5 887.3 864.3 889 867.9 889 871.2 887.5L871.2 878.6 871.2 878.6ZM838 916.1 838 906.1 852.1 893.9 856.2 900.4 838 916.1 838 916.1ZM838 821.7C838.5 822.2 839 822.4 839.7 822.9 841.1 824.3 843 826 845 828.6L850 823.1C845.9 817.8 841.9 814.5 838.1 813.1L838.1 821.7ZM838 802.6 838 805.5 836.6 804.3 838 802.6 838 802.6ZM838 813.1 838 821.7C837 821.2 836.1 821 835.4 820.7 834.2 820.5 833 820.5 832 820.9 831 821.4 830.1 822.1 829.4 823 828.4 824 827.5 825.1 827 826.6 826.5 828 826.5 829.9 827 832.3 827.5 834.7 828.7 837.5 830.6 841.1 831.8 843.3 834.9 848.3 838 852.8L838 865.5C837.8 865 837.5 864.8 837.3 864.5 829.9 854.9 821.8 840.8 820.3 833.9 818.9 827.2 820.3 821.5 824.8 816.9 828.4 813.1 832.4 811.6 836.7 812.6 837.3 812.9 837.5 813.1 838 813.1L838 813.1ZM838 906.1 834.7 909.2 817 879.8 829.9 868.8 825.6 862.4 812.9 873.4 803.3 857.2 803.3 871.3 833.2 920.5 838 916.2 838 906.1 838 906.1ZM803.3 923.3 803.3 909.4 816.7 931.4 810.7 935.5 803.3 923.3 803.3 923.3ZM803.3 847.5 803.3 837.5 811.9 830.1 816 836.6 803.3 847.5ZM803.3 837.5 803.3 847.5 799.7 850.6 803.3 857.1 803.3 871.2 790 849 803.3 837.5 803.3 837.5ZM803.3 909.4 778 867.4 789.2 859.3 785.1 852.6 756.4 873.1 760.2 879.6 771.9 871.5 803.2 923.3 803.2 909.4 803.3 909.4ZM722.3 983.5 722.3 973.5C722.8 972.5 723.2 971.1 723.2 969.4 723.7 967 723.4 963.7 722.7 959.6 722.5 959.1 722.5 958.2 722.2 957.4L722.2 932.6C722.7 933.8 723.1 935.2 723.4 936.4 727.5 948.6 730.8 963.4 729.9 970.3 729.5 976.6 726.9 980.9 722.3 983.5L722.3 983.5ZM722.3 916.6 744.8 973.7 751.2 970.4 735.4 929.3 752.1 920.2 749.2 913 732.5 921.8 723.7 900.5 742.8 890.5 739.5 883.3 722.3 892.4 722.3 916.6ZM722.3 892.5 722.3 916.6 714.4 896.8 722.3 892.5 722.3 892.5ZM722.3 932.6C718.5 921.8 713.5 912 709.4 908 708.7 907.3 708.2 906.8 707.5 906.3L707.5 917.3C708.2 918.5 709.2 920.2 710.1 921.8 711.8 925.4 715.1 933.3 717 939.2 718.7 944.2 721.1 952.3 722.3 957.4L722.3 932.6 722.3 932.6ZM722.3 973.5 722.3 983.5C721.6 984 721.1 984.2 720.4 984.5 715.9 986.6 711.3 986.2 707.5 983.1L707.5 972.4C708.2 973.6 709.2 974.5 709.9 975.3 711.6 977 713 977.7 714.2 977.9 715.6 978.1 716.8 978.1 718.3 977.4 719.7 976.9 720.7 976 721.6 974.8 721.9 974.4 722.1 973.9 722.3 973.5ZM707.5 906.3 707.5 917.3C706.5 916.1 705.8 914.9 705.1 914.2 703.4 912.8 702 911.8 700.6 911.6 699.4 911.6 698 911.8 696.5 912.3 695.3 912.8 694.1 913.7 693.4 914.9 692.4 916.1 691.7 917.8 691.5 920.1 691.3 922.5 691.5 925.6 692 929.7 692.7 933.8 695.6 941.9 697.5 947.9 699.4 953.9 703 963.9 704.7 967.5 705.7 969.4 706.6 970.8 707.6 972.3L707.6 983C706.9 982.5 706.2 982 705.4 981.3 700.9 976.5 694.9 962.7 691.1 950.7 687 938.5 683.9 925.9 684.7 918.9 685.4 912 688.8 907.2 694.3 904.8 699.2 902.7 703.5 903.2 707.5 906.3L707.5 906.3ZM589.7 1016.5 589.7 996.2 591.6 1016.3 589.7 1016.5 589.7 1016.5ZM589.7 941.2 601.9 939.5 611.2 1013.6 617.9 1012.4 608.6 938.6 622 936 621 928.8 589.7 933.3 589.7 941.2 589.7 941.2ZM644.7 968.4 653.1 1006.9 659.8 1005 651.7 966.5 657 919.4 650.3 921.3 646.2 957.6 631.6 925.8 624.7 927.7 644.7 968.4ZM573.2 958.9 566.8 958.9C567 949.6 564.2 944.3 558.2 944.1 551.3 943.9 548.2 949.1 548.2 958.9 548.4 964.2 550.1 967.7 553.5 969.9 554.7 970.4 555.9 971.6 557.8 972.3 559.7 973.3 561.1 974 562.3 974.4 571.4 978.9 575 985.2 574.7 995.2 574 1010 568.5 1018.4 557.5 1018.8 549.9 1019.1 544.8 1014.7 542.2 1006.6 541.2 1004 540.8 999.2 541 991.8L547 991.8C546.3 1005.2 549.9 1011.6 557.7 1011.1 564.6 1010.6 568.2 1006.1 568.2 997.3 568.2 989.9 565.8 986.1 560.5 983.7 560 983.7 559.5 983.5 559.1 982.7 558.4 982.5 557.2 981.7 555.7 981 552.1 979.3 549.7 977.7 548.1 976.5 543.8 973.4 541.6 967.7 541.9 958.3 542.1 944.2 547.4 936.1 557.2 935.8 568 935.9 573.5 944.3 573.2 958.9L573.2 958.9ZM589.7 933.3 589.7 941.2 588.7 941.2 588 933.6 589.7 933.3 589.7 933.3ZM589.7 996.2 584.4 933.8 577.5 934.8 584.7 1017.2 589.7 1016.5 589.7 996.2 589.7 996.2ZM520.9 984.2 520.9 970.8C522.8 970.3 524.5 969.4 525.9 967.5 527.3 964.9 528.8 959.9 529 956.5 529 953.2 528.3 950 526.8 947.4 525.4 945 523.5 943.6 520.8 943.3L520.8 935.4 522 935.4C524.6 935.6 526.8 936.4 528.7 937.6 530.6 939 532.3 940.7 533.5 942.6 534.7 944.5 535.4 946.7 535.9 949 536.4 951.4 536.6 953.5 536.6 955.9 536.6 964.5 535.9 962.8 535.4 963.8 534.7 965.5 534.4 967.6 533.7 969.3 533 971.2 532 972.9 530.8 974.3 529.6 975.7 528.2 976.7 526.5 977.4L535.6 1018.7 527.9 1018.2 520.9 984.2ZM520.9 935.5 520.9 943.4 520.7 943.4 514.2 943.2 512.8 970.7 519.2 970.9C519.7 970.9 520.4 970.9 520.9 970.9L520.9 984.3 519.7 979 512.5 978.5 510.8 1017.7 503.9 1017.5 507.5 934.8 520.9 935.5 520.9 935.5ZM467.4 1012.9 467.4 993.1 475 931.2 502 935 501 943.1 481 940 477.7 967 493 969.2 492 977.3 476.9 975.2 472.6 1005.8 494.3 1008.4 493.3 1016.5 467.4 1012.9 467.4 1012.9ZM467.4 938.1 469.8 930.4 467.4 929.7 467.4 938.1ZM467.4 929.7 467.4 938.1 444.9 1009.3 438 1007.9 436.8 922.8 443.7 925.2 444.2 991.4 462.8 929 467.4 929.7 467.4 929.7ZM467.4 993.1 464.8 1012.7 467.4 1012.9 467.4 993.1 467.4 993.1ZM415.1 1001.9 415.1 971.8 426.1 920.2 432.8 921.9 415.8 1002.2 415.1 1001.9 415.1 1001.9ZM415.1 940.7 421.1 918 415.1 915.8 415.1 940.7ZM415.1 915.9 415.1 940.8 399.8 997.7 393.1 995.6 393.6 917.9 375.2 978.4 375.2 954 389.5 906.9 399.8 911 398.8 974.8 414.3 915.8 415.1 915.9 415.1 915.9ZM415.1 971.8 408.9 1000.5 415.1 1001.9 415.1 971.8 415.1 971.8ZM375.2 930.2 384.8 904.9 378.6 901.8 375.3 910.2 375.3 930.2ZM375.2 910.1 375.2 930.2 362.5 963.9C361.3 967 360.1 969.4 358.2 971.3 356.5 973.5 354.8 974.9 352.7 975.9 350.8 976.9 348.9 977.3 346.7 977.1 338.8 976.4 335.5 972.3 332.8 965.9 331.8 963.7 331.6 961.1 331.6 958.2 331.6 955.3 332.3 952.5 333.3 949.6L355.5 890.6 362 893.7 339.5 953.2C338.3 956.3 338.3 959.4 339.3 962.5 340.2 965.4 341.9 967.5 343.8 968.5 345.7 969.5 347.9 969.2 350.5 968 352.9 966.8 354.8 964.4 356 961.3L375.2 910.1 375.2 910.1ZM375.2 953.9 365.9 985.4 372.4 988 375.3 978.2 375.3 953.9Z" fill="#004097"/><path d="M149.4 601.9C149.6 600.2 149.6 598.3 149.6 596.4 149.4 595.7 149.4 595 149.4 594.2L149.4 601.9 149.4 601.9ZM149.4 782.3 149.4 773.2 164.9 764.8 153.2 743.8 149.4 745.7 149.4 738.3 187.9 720.4 191.2 727.3 160.9 741.4 171.4 761 202 746 206.3 752.4 149.4 782.3 149.4 782.3ZM149.4 718.5 149.4 709.9 171.2 701.1 166.4 690.6 172.8 688 185.7 716.9 179.2 719.5 173.9 708.3 149.4 718.5 149.4 718.5ZM149.4 692.9 171.4 685 168.8 677.6 149.4 684.5 149.4 692.9 149.4 692.9ZM149.4 663.5 149.4 655.9 160.4 652.3 162.5 659.2 149.4 663.5 149.4 663.5ZM149.4 648 149.4 635.3C149.6 634.6 149.6 634.3 149.4 633.2 149.4 633 149.4 632.7 149.4 632.5L149.4 622C152.8 623.9 155.1 627 156.3 631.8 157.7 638.7 155.3 642.5 150.8 646.8 150.3 647.3 149.8 647.5 149.4 648ZM132.6 614.6C134.3 614.4 136.2 614.1 138.3 613.4 140.2 612.7 142.1 611.7 144 610.3 145.7 609.1 147.1 607.2 148.3 604.8 148.8 604.1 149 602.9 149.3 601.9L149.3 594.3C148.8 591.9 148.3 589.8 147.4 588.1 146.2 586 144.8 584.3 143.3 583.1 141.6 581.9 139.5 580.2 137.6 579.8 126.9 577.9 118.7 581.7 111.8 587.7L111.8 597.7C120.9 587.9 130.9 580.5 139.8 590.1 141.2 591.5 142.4 593.9 142.7 597.7 142.9 599.4 142.7 601 141.7 602.2 141 603.4 139.8 604.3 138.6 605.1 137.4 605.6 136.2 606.1 135 606.3 133.8 606.5 132.9 606.5 131.9 606.8L132.6 614.6 132.6 614.6ZM149.4 622 149.4 632.5C148.9 631.8 148.4 631.8 147.7 630.8 147 629.6 145.6 628.7 143.6 627.9 141.4 627.2 138.8 626.7 135.2 626.9 129.5 626.9 120.4 628.6 111.8 630.7L111.8 622.6C121.6 620.4 131.4 619.5 138.3 619.5 142.4 619.6 146.3 620.3 149.4 622L149.4 622ZM149.4 635.4 149.4 648C143.4 652.1 129.8 657.1 119.5 659.5 117.1 660 114.7 660.5 111.9 660.9L111.9 652.8C114.5 652.3 116.7 651.8 118.1 651.6 123.6 650.4 135.5 646.8 138.9 645.4 142.3 644 144.6 642.3 146.1 640.9 147.8 639.2 148.7 637.8 149.2 636.4 149.1 635.8 149.1 635.6 149.4 635.4L149.4 635.4ZM149.4 655.9 111.9 668.1 111.9 676.5 149.4 663.6 149.4 655.9 149.4 655.9ZM149.4 684.6 149.4 693 111.9 706.1 111.9 697.7 149.4 684.6 149.4 684.6ZM149.4 709.9 149.4 718.5 111.9 733.8 111.9 724.7 149.4 709.9 149.4 709.9ZM149.4 738.3 149.4 745.7 116.4 761.7 112.8 755 149.4 738.3 149.4 738.3ZM149.4 773.2 149.4 782.3 133.2 790.9 129.1 784.2 149.4 773.2ZM111.8 587.6C104.2 594.3 97.7 603.6 91 610.8 90 611.8 88.8 612.7 87.6 613.2 86.2 613.7 84.7 614.2 82.8 614.2 80.2 614.4 78 613.7 76.3 612.8 74.4 611.6 73.4 609.7 73.2 606.8 73 603.2 73.7 600.3 75.6 598.2 77.5 596.3 81.1 595.1 86.3 594.6L85.6 586.5C83.9 586.7 82 587.2 79.9 587.7 78 588.2 75.8 589.1 73.7 590.6 71.6 592 69.6 593.9 68.2 596.8 66.8 599.7 66.3 603.3 66.8 607.6 67 610.7 67.8 613.1 69.2 615.2 70.6 617.3 72.3 618.8 74 619.7 75.9 620.9 77.8 621.6 79.5 621.8 81.2 622.3 82.6 622.3 83.8 622.3 86.2 622.1 88.1 621.6 89.5 621.3 90.9 620.8 92.4 620.1 93.8 619.2 97.6 616.3 104.3 606 111.7 597.7L111.7 587.6 111.8 587.6ZM111.8 622.7 111.8 630.8C103.9 632.7 96.3 635.1 91.5 637.3 88.4 638.7 85.8 640.4 84.1 641.8 82.7 643.5 81.7 644.9 81.2 646.3 80.7 648 80.7 647.7 81 649.2 81.2 650.9 81.5 650.6 82.4 651.8 83.4 653 84.8 653.9 86.7 654.7 88.6 655.4 91.5 655.7 95.1 655.7 97.7 655.4 105.6 654 111.8 652.8L111.8 660.9C101.5 662.6 89.3 663.8 84.8 662.1 78.8 660.2 75.7 657.5 74.5 650.6 73.3 643.9 75 640.8 79.8 636.3 86 630.3 98.9 625.6 111.8 622.7L111.8 622.7ZM111.8 668.1 111.8 676.5 101.3 680.1C98.4 681 96.3 683.2 95.1 686.1 93.9 688.7 93.4 691.4 94.1 693.7 94.8 696.1 96.5 698 98.9 699.2 101.3 700.6 104.2 700.6 107 699.4L111.8 697.7 111.8 706.1 109.7 707.1C106.8 708.1 104.4 708.5 102.1 708.3 99.7 708.1 97.5 707.6 95.7 706.4 93.8 705.4 92.1 704 90.7 702.1 89.5 700.4 88.3 698.5 87.8 696.4 87.1 694.3 86.9 692.1 87.1 689.7 87.1 687.3 87.6 684.9 88.5 682.8 89.7 680.4 90.9 678.5 92.8 676.6 94.7 674.9 96.9 673.3 99.5 672.3L111.8 668.1 111.8 668.1ZM111.8 724.7 111.8 733.8 104.4 736.7 101.3 729 111.8 724.7Z" fill="#004097"/><path d="M306.6 935.9 306.6 913.4 308.3 914.8 321.9 885.2 306.6 900 306.6 890.4 325.7 872.5 333.1 877.8 306.6 935.9 306.6 935.9ZM306.6 871.9 306.6 860.9 307.8 859.7 314 864.2 306.6 871.9ZM306.6 860.9 306.6 871.9 264.5 914.7 264.5 892 285 855.2 264.5 876 264.5 864.8 285.8 844 294.9 851.6 271 896 306.6 860.9 306.6 860.9ZM306.6 890.5 264.5 929.7 264.5 930.9 270 934.7 293.2 912.2 304.9 922 292 948.8 298.7 952.9 306.6 935.9 306.6 913.4 299 907.2 306.6 900 306.6 890.5 306.6 890.5ZM264.5 849.7 278.1 837.5 272.4 832.2 264.5 839.4 264.5 849.7 264.5 849.7ZM264.5 825.8 264.5 824.6 265.2 825.3 264.5 825.8ZM264.5 824.6 264.5 825.8 246.4 842 246.4 832.7 260.3 820 264.5 824.6 264.5 824.6ZM264.5 839.4 246.3 856.1 246.3 866.4 264.5 849.7 264.5 839.4 264.5 839.4ZM264.5 864.7 264.5 876 246.3 894.4 246.3 882.7 264.5 864.7 264.5 864.7ZM264.5 892 249.2 919.2 255.4 924 264.5 914.7 264.5 892 264.5 892ZM264.5 929.7 264.5 930.9 264 930.4 264.5 929.7 264.5 929.7ZM246.4 807.9 246.4 806 247.4 807.2 246.4 807.9ZM221.8 787.6C222.5 788.1 223 788.8 223.2 789.7 223.9 790.7 224.2 791.8 224.4 793 224.6 794.2 224.4 795.4 223.9 796.8 223.4 798 222.7 798.9 221.8 800.4L221.8 810.4C226.1 807 229 803.5 230.4 799.6 232.1 794.8 231.8 790 229.4 785.3 227.5 781.7 224.9 779.3 221.8 778.1L221.8 787.6 221.8 787.6ZM246.4 806 246.4 807.9 223.7 826.3 236.1 842.1 246.4 832.8 246.4 842.1 221.8 863.6 221.8 854.3 230.4 846.9 221.8 836.1 221.8 817.5 242.1 801.3 246.4 806 246.4 806ZM246.4 856.1 221.8 878.6 221.8 888.6 246.4 866.4 246.4 856.1 246.4 856.1ZM246.4 882.7 246.4 894.4 234 906.8 227.3 901.1 246.4 882.7ZM205 789C206 788.7 206.7 788.3 207.4 788 211 786.3 213.6 785.6 215.8 785.4 217.9 785.4 219.4 785.7 220.6 786.4 221.1 786.9 221.6 787.1 221.8 787.6L221.8 778.3C220.1 777.6 218 777.3 215.8 777.6 212.7 777.8 209.1 778.8 205 780.5L205 789 205 789ZM221.8 800.5C221.6 800.7 221.3 801 221.1 801.2 219.7 802.9 217.8 804.5 215.4 806.2L218.7 813.1C219.9 812.1 220.9 811.4 221.8 810.5L221.8 800.5 221.8 800.5ZM221.8 817.4 221.8 836 218 831 205 841.3 205 831 221.8 817.4 221.8 817.4ZM221.8 854.2 221.8 863.5 205 878.4 205 869 221.8 854.2 221.8 854.2ZM221.8 878.6 221.8 888.6 217.5 892.7 212.2 887.2 221.8 878.6ZM186.4 826.5C183.5 828.6 180.9 830.1 178.5 830.8 176.3 831.8 174.7 832 173.2 832 171.8 831.8 170.6 831.5 169.9 830.8 168.9 829.9 168.2 829.1 167.7 827.9 167 826.5 166.8 825 166.8 823.6 166.8 821.9 167.3 820.3 168.5 818.1 169.7 816 171.6 813.6 174.5 810.7 182.9 802.3 194.1 794.4 205.1 789L205.1 780.4C189.3 787.3 168.3 803.6 162.6 814.1 159.3 820.1 159.3 826 162.1 832 164.5 837 168.1 839.6 172.9 839.9 177.4 840.1 183.2 838 189.9 833.2L186.4 826.5 186.4 826.5ZM205 831 205 841.3 184 858 178.7 852 205 831 205 831ZM205 869 205 878.3 204 879.3 198.7 874.3 205 869Z" fill="#004097"/><g><path d="M482.2 886 481.8 887.6 460.6 882.1 461 880.5 469.2 881.5C470 878.5 470.9 875.3 471.7 872.3L477.1 851.5 469.7 850.4 470.2 848.5 483.1 848.7 483.7 849.5 481.4 857.5 477.2 873.8C476.4 876.8 475.7 879.9 474.9 883L482.2 886Z" fill="#004097"/></g><g><path d="M511.3 889.9C520.6 886.8 525.2 881.6 526.7 873.4 524.8 875.1 522.4 876 519.6 875.9 513.6 875.7 509.2 871.3 509.4 864.2 509.7 856.7 514.9 852.2 521.5 852.4 528.8 852.6 533.1 858.7 532.8 868.2 532.4 879.6 525.5 888.7 511.8 891.6L511.3 889.9ZM527 871.2C527.1 870.3 527.2 869.3 527.2 868.2 527.5 858.6 525 854.6 521.2 854.5 517.8 854.4 514.9 857.3 514.7 863.5 514.5 869.8 517.4 872.9 521.5 873.1 523.6 873.2 525.3 872.5 527 871.2Z" fill="#004097"/></g><g><path d="M578.9 887.9 579.1 889.7 556.4 891.6 556.3 889.9 564.7 888.1C564.5 884.8 564.2 881.5 563.9 878.2L562 855.9 554.4 857.4 554.2 855.3 566.9 851 567.7 851.5 568.3 860.2 569.8 877.7C570.1 880.9 570.4 884.2 570.8 887.6L578.9 887.9Z" fill="#004097"/></g><g><path d="M622.1 873C623.5 879.1 619.4 884.4 611.8 886.1 604.3 887.8 598.8 885.5 597.5 879.7 596.5 875.3 598.8 871.6 603.9 867.8 598.1 866.3 594.9 863.3 593.9 859 592.5 852.8 596.7 847.8 603.1 846.3 609.8 844.7 614.6 847.7 615.8 852.7 616.5 855.8 615.4 859.6 610.5 863.7 617.3 865.3 620.9 867.9 622.1 873ZM608.6 863.4C611.1 860.1 611.7 857.4 610.9 854.1 610 850.2 607.2 847.7 603.4 848.5 600.1 849.3 597.7 852.3 598.5 856.1 599.3 859.3 601.5 861.9 608.6 863.4ZM616.9 875.4C616.1 871.8 613.3 869.8 605.6 868.2 602.7 871.3 601.6 874 602.4 877.8 603.5 882.7 607.1 885 611.5 884 615.8 883 617.9 879.5 616.9 875.4Z" fill="#004097"/></g></g></g></g></svg>